%TF.GenerationSoftware,KiCad,Pcbnew,10.0.1*%
%TF.CreationDate,2026-05-05T11:20:08+10:00*%
%TF.ProjectId,LEDBlinker,4c454442-6c69-46e6-9b65-722e6b696361,rev?*%
%TF.SameCoordinates,Original*%
%TF.FileFunction,Soldermask,Bot*%
%TF.FilePolarity,Negative*%
%FSLAX46Y46*%
G04 Gerber Fmt 4.6, Leading zero omitted, Abs format (unit mm)*
G04 Created by KiCad (PCBNEW 10.0.1) date 2026-05-05 11:20:08*
%MOMM*%
%LPD*%
G01*
G04 APERTURE LIST*
G04 Aperture macros list*
%AMRoundRect*
0 Rectangle with rounded corners*
0 $1 Rounding radius*
0 $2 $3 $4 $5 $6 $7 $8 $9 X,Y pos of 4 corners*
0 Add a 4 corners polygon primitive as box body*
4,1,4,$2,$3,$4,$5,$6,$7,$8,$9,$2,$3,0*
0 Add four circle primitives for the rounded corners*
1,1,$1+$1,$2,$3*
1,1,$1+$1,$4,$5*
1,1,$1+$1,$6,$7*
1,1,$1+$1,$8,$9*
0 Add four rect primitives between the rounded corners*
20,1,$1+$1,$2,$3,$4,$5,0*
20,1,$1+$1,$4,$5,$6,$7,0*
20,1,$1+$1,$6,$7,$8,$9,0*
20,1,$1+$1,$8,$9,$2,$3,0*%
G04 Aperture macros list end*
%ADD10RoundRect,0.250000X-0.550000X0.550000X-0.550000X-0.550000X0.550000X-0.550000X0.550000X0.550000X0*%
%ADD11C,1.600000*%
%ADD12R,1.800000X1.800000*%
%ADD13C,1.800000*%
%ADD14C,2.200000*%
%ADD15RoundRect,0.250000X-0.550000X-0.550000X0.550000X-0.550000X0.550000X0.550000X-0.550000X0.550000X0*%
%ADD16R,1.295400X1.295400*%
%ADD17C,1.295400*%
%ADD18RoundRect,0.102000X-0.654000X0.654000X-0.654000X-0.654000X0.654000X-0.654000X0.654000X0.654000X0*%
%ADD19C,1.512000*%
%ADD20RoundRect,0.102000X0.754000X0.754000X-0.754000X0.754000X-0.754000X-0.754000X0.754000X-0.754000X0*%
%ADD21C,1.712000*%
%ADD22O,2.504000X4.804000*%
%ADD23R,1.700000X1.700000*%
%ADD24C,1.700000*%
G04 APERTURE END LIST*
D10*
%TO.C,C1*%
X193000000Y-87044888D03*
D11*
X193000000Y-89544888D03*
%TD*%
D12*
%TO.C,D2*%
X108725000Y-113000000D03*
D13*
X111265000Y-113000000D03*
%TD*%
D12*
%TO.C,D10*%
X180933889Y-113000000D03*
D13*
X183473889Y-113000000D03*
%TD*%
D14*
%TO.C,H4*%
X199000000Y-114500000D03*
%TD*%
D12*
%TO.C,D11*%
X189960000Y-113000000D03*
D13*
X192500000Y-113000000D03*
%TD*%
D12*
%TO.C,D9*%
X171907778Y-113000000D03*
D13*
X174447778Y-113000000D03*
%TD*%
D15*
%TO.C,U1*%
X175190000Y-68190000D03*
D11*
X175190000Y-70730000D03*
X175190000Y-73270000D03*
X175190000Y-75810000D03*
X182810000Y-75810000D03*
X182810000Y-73270000D03*
X182810000Y-70730000D03*
X182810000Y-68190000D03*
%TD*%
D14*
%TO.C,H2*%
X199000000Y-54000000D03*
%TD*%
D12*
%TO.C,D8*%
X162881667Y-113000000D03*
D13*
X165421667Y-113000000D03*
%TD*%
D16*
%TO.C,U2*%
X136760000Y-66500000D03*
D17*
X139300000Y-66500000D03*
X141840000Y-66500000D03*
X144380000Y-66500000D03*
X146920000Y-66500000D03*
X149460000Y-66500000D03*
X152000000Y-66500000D03*
X154540000Y-66500000D03*
X154540000Y-58880000D03*
X152000000Y-58880000D03*
X149460000Y-58880000D03*
X146920000Y-58880000D03*
X144380000Y-58880000D03*
X141840000Y-58880000D03*
X139300000Y-58880000D03*
X136760000Y-58880000D03*
%TD*%
D14*
%TO.C,H3*%
X103000000Y-114500000D03*
%TD*%
D18*
%TO.C,SW1*%
X104000000Y-71000000D03*
D19*
X104000000Y-73500000D03*
X104000000Y-76000000D03*
%TD*%
D12*
%TO.C,D3*%
X117751111Y-113000000D03*
D13*
X120291111Y-113000000D03*
%TD*%
D11*
%TO.C,R3*%
X120500000Y-57420000D03*
X120500000Y-67580000D03*
%TD*%
%TO.C,R1*%
X198000000Y-59000000D03*
X187840000Y-59000000D03*
%TD*%
D14*
%TO.C,H1*%
X103000000Y-54000000D03*
%TD*%
D12*
%TO.C,D4*%
X126777222Y-113000000D03*
D13*
X129317222Y-113000000D03*
%TD*%
D12*
%TO.C,D6*%
X144829444Y-113000000D03*
D13*
X147369444Y-113000000D03*
%TD*%
D12*
%TO.C,D1*%
X103500000Y-62000000D03*
D13*
X106040000Y-62000000D03*
%TD*%
D20*
%TO.C,R2*%
X195500000Y-66469500D03*
D21*
X193000000Y-66469500D03*
X190500000Y-66469500D03*
D22*
X197400000Y-73469500D03*
X188600000Y-73469500D03*
%TD*%
D11*
%TO.C,R5*%
X114000000Y-57420000D03*
X114000000Y-67580000D03*
%TD*%
%TO.C,C2*%
X181000000Y-85500000D03*
X181000000Y-90500000D03*
%TD*%
D12*
%TO.C,D7*%
X153855556Y-113000000D03*
D13*
X156395556Y-113000000D03*
%TD*%
D23*
%TO.C,J1*%
X111377500Y-88000000D03*
D24*
X111377500Y-90540000D03*
X111377500Y-93080000D03*
X111377500Y-95620000D03*
X111377500Y-98160000D03*
X111377500Y-100700000D03*
%TD*%
D12*
%TO.C,D5*%
X135803333Y-113000000D03*
D13*
X138343333Y-113000000D03*
%TD*%
D11*
%TO.C,R4*%
X179840000Y-101000000D03*
X190000000Y-101000000D03*
%TD*%
M02*
