%TF.GenerationSoftware,KiCad,Pcbnew,10.0.1*%
%TF.CreationDate,2026-05-05T11:20:08+10:00*%
%TF.ProjectId,LEDBlinker,4c454442-6c69-46e6-9b65-722e6b696361,rev?*%
%TF.SameCoordinates,Original*%
%TF.FileFunction,Copper,L1,Top*%
%TF.FilePolarity,Positive*%
%FSLAX46Y46*%
G04 Gerber Fmt 4.6, Leading zero omitted, Abs format (unit mm)*
G04 Created by KiCad (PCBNEW 10.0.1) date 2026-05-05 11:20:08*
%MOMM*%
%LPD*%
G01*
G04 APERTURE LIST*
G04 Aperture macros list*
%AMRoundRect*
0 Rectangle with rounded corners*
0 $1 Rounding radius*
0 $2 $3 $4 $5 $6 $7 $8 $9 X,Y pos of 4 corners*
0 Add a 4 corners polygon primitive as box body*
4,1,4,$2,$3,$4,$5,$6,$7,$8,$9,$2,$3,0*
0 Add four circle primitives for the rounded corners*
1,1,$1+$1,$2,$3*
1,1,$1+$1,$4,$5*
1,1,$1+$1,$6,$7*
1,1,$1+$1,$8,$9*
0 Add four rect primitives between the rounded corners*
20,1,$1+$1,$2,$3,$4,$5,0*
20,1,$1+$1,$4,$5,$6,$7,0*
20,1,$1+$1,$6,$7,$8,$9,0*
20,1,$1+$1,$8,$9,$2,$3,0*%
G04 Aperture macros list end*
%TA.AperFunction,ComponentPad*%
%ADD10RoundRect,0.250000X-0.550000X0.550000X-0.550000X-0.550000X0.550000X-0.550000X0.550000X0.550000X0*%
%TD*%
%TA.AperFunction,ComponentPad*%
%ADD11C,1.600000*%
%TD*%
%TA.AperFunction,ComponentPad*%
%ADD12R,1.800000X1.800000*%
%TD*%
%TA.AperFunction,ComponentPad*%
%ADD13C,1.800000*%
%TD*%
%TA.AperFunction,ComponentPad*%
%ADD14RoundRect,0.250000X-0.550000X-0.550000X0.550000X-0.550000X0.550000X0.550000X-0.550000X0.550000X0*%
%TD*%
%TA.AperFunction,ComponentPad*%
%ADD15R,1.295400X1.295400*%
%TD*%
%TA.AperFunction,ComponentPad*%
%ADD16C,1.295400*%
%TD*%
%TA.AperFunction,ComponentPad*%
%ADD17R,1.308000X1.308000*%
%TD*%
%TA.AperFunction,ComponentPad*%
%ADD18C,1.308000*%
%TD*%
%TA.AperFunction,ComponentPad*%
%ADD19R,1.508000X1.508000*%
%TD*%
%TA.AperFunction,ComponentPad*%
%ADD20C,1.508000*%
%TD*%
%TA.AperFunction,ComponentPad*%
%ADD21O,2.300000X4.600000*%
%TD*%
%TA.AperFunction,ComponentPad*%
%ADD22R,1.700000X1.700000*%
%TD*%
%TA.AperFunction,ComponentPad*%
%ADD23C,1.700000*%
%TD*%
%TA.AperFunction,ViaPad*%
%ADD24C,0.600000*%
%TD*%
%TA.AperFunction,Conductor*%
%ADD25C,1.000000*%
%TD*%
G04 APERTURE END LIST*
D10*
%TO.P,C1,1*%
%TO.N,Net-(U1-THRES)*%
X193000000Y-87044888D03*
D11*
%TO.P,C1,2*%
%TO.N,GND*%
X193000000Y-89544888D03*
%TD*%
D12*
%TO.P,D2,1,K_1*%
%TO.N,Net-(D10-K)*%
X108725000Y-113000000D03*
D13*
%TO.P,D2,2,A_2*%
%TO.N,Net-(D2-A)*%
X111265000Y-113000000D03*
%TD*%
D12*
%TO.P,D10,1,K_1*%
%TO.N,Net-(D10-K)*%
X180933889Y-113000000D03*
D13*
%TO.P,D10,2,A_2*%
%TO.N,Net-(D10-A)*%
X183473889Y-113000000D03*
%TD*%
D12*
%TO.P,D11,1,K_1*%
%TO.N,Net-(D10-K)*%
X189960000Y-113000000D03*
D13*
%TO.P,D11,2,A_2*%
%TO.N,Net-(D11-A)*%
X192500000Y-113000000D03*
%TD*%
D12*
%TO.P,D9,1,K_1*%
%TO.N,Net-(D10-K)*%
X171907778Y-113000000D03*
D13*
%TO.P,D9,2,A_2*%
%TO.N,Net-(D9-A)*%
X174447778Y-113000000D03*
%TD*%
D14*
%TO.P,U1,1,GND_1*%
%TO.N,GND*%
X175190000Y-68190000D03*
D11*
%TO.P,U1,2,TRIG_2*%
%TO.N,Net-(U1-THRES)*%
X175190000Y-70730000D03*
%TO.P,U1,3,OUT_3*%
%TO.N,/OUT*%
X175190000Y-73270000D03*
%TO.P,U1,4,~{RST}_4*%
%TO.N,+5V*%
X175190000Y-75810000D03*
%TO.P,U1,5,CONT_5*%
%TO.N,Net-(U1-CONT)*%
X182810000Y-75810000D03*
%TO.P,U1,6,THRES_6*%
%TO.N,Net-(U1-THRES)*%
X182810000Y-73270000D03*
%TO.P,U1,7,DISCH_7*%
%TO.N,Net-(U1-DISCH)*%
X182810000Y-70730000D03*
%TO.P,U1,8,VCC_8*%
%TO.N,+5V*%
X182810000Y-68190000D03*
%TD*%
D12*
%TO.P,D8,1,K_1*%
%TO.N,Net-(D10-K)*%
X162881667Y-113000000D03*
D13*
%TO.P,D8,2,A_2*%
%TO.N,Net-(D8-A)*%
X165421667Y-113000000D03*
%TD*%
D15*
%TO.P,U2,1,5_1*%
%TO.N,Net-(D7-A)*%
X136760000Y-66500000D03*
D16*
%TO.P,U2,2,1_2*%
%TO.N,Net-(D3-A)*%
X139300000Y-66500000D03*
%TO.P,U2,3,0_3*%
%TO.N,Net-(D2-A)*%
X141840000Y-66500000D03*
%TO.P,U2,4,2_4*%
%TO.N,Net-(D4-A)*%
X144380000Y-66500000D03*
%TO.P,U2,5,6_5*%
%TO.N,Net-(D8-A)*%
X146920000Y-66500000D03*
%TO.P,U2,6,7_6*%
%TO.N,Net-(D9-A)*%
X149460000Y-66500000D03*
%TO.P,U2,7,3_7*%
%TO.N,Net-(D5-A)*%
X152000000Y-66500000D03*
%TO.P,U2,8,VSS_8*%
%TO.N,GND*%
X154540000Y-66500000D03*
%TO.P,U2,9,8_9*%
%TO.N,Net-(D10-A)*%
X154540000Y-58880000D03*
%TO.P,U2,10,4_10*%
%TO.N,Net-(D6-A)*%
X152000000Y-58880000D03*
%TO.P,U2,11,9_11*%
%TO.N,Net-(D11-A)*%
X149460000Y-58880000D03*
%TO.P,U2,12,CARRYOUT_12*%
%TO.N,unconnected-(U2-CARRYOUT-Pad12)*%
X146920000Y-58880000D03*
%TO.P,U2,13,CLOCKINHIBIT_13*%
%TO.N,GND*%
X144380000Y-58880000D03*
%TO.P,U2,14,CLOCK_14*%
%TO.N,/OUT*%
X141840000Y-58880000D03*
%TO.P,U2,15,RESET_15*%
%TO.N,Net-(SW1-B)*%
X139300000Y-58880000D03*
%TO.P,U2,16,VDD_16*%
%TO.N,+5V*%
X136760000Y-58880000D03*
%TD*%
D17*
%TO.P,SW1,1,A_1*%
%TO.N,unconnected-(SW1-A-Pad1)*%
X104000000Y-71000000D03*
D18*
%TO.P,SW1,2,B_2*%
%TO.N,Net-(SW1-B)*%
X104000000Y-73500000D03*
%TO.P,SW1,3,C_3*%
%TO.N,+5V*%
X104000000Y-76000000D03*
%TD*%
D12*
%TO.P,D3,1,K_1*%
%TO.N,Net-(D10-K)*%
X117751111Y-113000000D03*
D13*
%TO.P,D3,2,A_2*%
%TO.N,Net-(D3-A)*%
X120291111Y-113000000D03*
%TD*%
D11*
%TO.P,R3,1*%
%TO.N,GND*%
X120500000Y-57420000D03*
%TO.P,R3,2*%
%TO.N,Net-(SW1-B)*%
X120500000Y-67580000D03*
%TD*%
%TO.P,R1,1*%
%TO.N,+5V*%
X198000000Y-59000000D03*
%TO.P,R1,2*%
%TO.N,Net-(U1-DISCH)*%
X187840000Y-59000000D03*
%TD*%
D12*
%TO.P,D4,1,K_1*%
%TO.N,Net-(D10-K)*%
X126777222Y-113000000D03*
D13*
%TO.P,D4,2,A_2*%
%TO.N,Net-(D4-A)*%
X129317222Y-113000000D03*
%TD*%
D12*
%TO.P,D6,1,K_1*%
%TO.N,Net-(D10-K)*%
X144829444Y-113000000D03*
D13*
%TO.P,D6,2,A_2*%
%TO.N,Net-(D6-A)*%
X147369444Y-113000000D03*
%TD*%
D12*
%TO.P,D1,1,K_1*%
%TO.N,GND*%
X103500000Y-62000000D03*
D13*
%TO.P,D1,2,A_2*%
%TO.N,Net-(D1-A)*%
X106040000Y-62000000D03*
%TD*%
D19*
%TO.P,R2,1,1_1*%
%TO.N,unconnected-(R2-Pad1)*%
X195500000Y-66469500D03*
D20*
%TO.P,R2,2,2_2*%
%TO.N,Net-(U1-DISCH)*%
X193000000Y-66469500D03*
%TO.P,R2,3,3_3*%
%TO.N,Net-(U1-THRES)*%
X190500000Y-66469500D03*
D21*
%TO.P,R2,S1,MountPin_S1*%
%TO.N,GND*%
X197400000Y-73469500D03*
%TO.P,R2,S2,MountPin_S2*%
X188600000Y-73469500D03*
%TD*%
D11*
%TO.P,R5,1*%
%TO.N,+5V*%
X114000000Y-57420000D03*
%TO.P,R5,2*%
%TO.N,Net-(D1-A)*%
X114000000Y-67580000D03*
%TD*%
%TO.P,C2,1*%
%TO.N,Net-(U1-CONT)*%
X181000000Y-85500000D03*
%TO.P,C2,2*%
%TO.N,GND*%
X181000000Y-90500000D03*
%TD*%
D12*
%TO.P,D7,1,K_1*%
%TO.N,Net-(D10-K)*%
X153855556Y-113000000D03*
D13*
%TO.P,D7,2,A_2*%
%TO.N,Net-(D7-A)*%
X156395556Y-113000000D03*
%TD*%
D22*
%TO.P,J1,1,Pin_1_1*%
%TO.N,+5V*%
X111377500Y-88000000D03*
D23*
%TO.P,J1,2,Pin_2_2*%
%TO.N,GND*%
X111377500Y-90540000D03*
%TO.P,J1,3,Pin_3_3*%
%TO.N,unconnected-(J1-Pin_3-Pad3)*%
X111377500Y-93080000D03*
%TO.P,J1,4,Pin_4_4*%
%TO.N,unconnected-(J1-Pin_4-Pad4)*%
X111377500Y-95620000D03*
%TO.P,J1,5,Pin_5_5*%
%TO.N,unconnected-(J1-Pin_5-Pad5)*%
X111377500Y-98160000D03*
%TO.P,J1,6,Pin_6_6*%
%TO.N,unconnected-(J1-Pin_6-Pad6)*%
X111377500Y-100700000D03*
%TD*%
D12*
%TO.P,D5,1,K_1*%
%TO.N,Net-(D10-K)*%
X135803333Y-113000000D03*
D13*
%TO.P,D5,2,A_2*%
%TO.N,Net-(D5-A)*%
X138343333Y-113000000D03*
%TD*%
D11*
%TO.P,R4,1*%
%TO.N,GND*%
X179840000Y-101000000D03*
%TO.P,R4,2*%
%TO.N,Net-(D10-K)*%
X190000000Y-101000000D03*
%TD*%
D24*
%TO.N,Net-(D2-A)*%
X140420000Y-65080000D03*
%TO.N,Net-(D3-A)*%
X137952300Y-65152300D03*
%TO.N,Net-(D4-A)*%
X136000000Y-68000000D03*
%TO.N,Net-(D5-A)*%
X145500000Y-70000000D03*
%TO.N,Net-(D6-A)*%
X147500000Y-72000000D03*
%TD*%
%TO.N,Net-(D10-K)*%
D25*
X160881667Y-115000000D02*
X162881667Y-113000000D01*
X173907778Y-115000000D02*
X178933889Y-115000000D01*
X180933889Y-113000000D02*
X182933889Y-115000000D01*
X128777222Y-115000000D02*
X133803333Y-115000000D01*
X189960000Y-113000000D02*
X189960000Y-101040000D01*
X151855556Y-115000000D02*
X153855556Y-113000000D01*
X189960000Y-101040000D02*
X190000000Y-101000000D01*
X187960000Y-115000000D02*
X189960000Y-113000000D01*
X124777222Y-115000000D02*
X126777222Y-113000000D01*
X135803333Y-113000000D02*
X137803333Y-115000000D01*
X108725000Y-113000000D02*
X110725000Y-115000000D01*
X153855556Y-113000000D02*
X155855556Y-115000000D01*
X155855556Y-115000000D02*
X160881667Y-115000000D01*
X126777222Y-113000000D02*
X128777222Y-115000000D01*
X137803333Y-115000000D02*
X142829444Y-115000000D01*
X178933889Y-115000000D02*
X180933889Y-113000000D01*
X110725000Y-115000000D02*
X115751111Y-115000000D01*
X133803333Y-115000000D02*
X135803333Y-113000000D01*
X146829444Y-115000000D02*
X151855556Y-115000000D01*
X142829444Y-115000000D02*
X144829444Y-113000000D01*
X119751111Y-115000000D02*
X124777222Y-115000000D01*
X162881667Y-113000000D02*
X164881667Y-115000000D01*
X117751111Y-113000000D02*
X119751111Y-115000000D01*
X171907778Y-113000000D02*
X173907778Y-115000000D01*
X144829444Y-113000000D02*
X146829444Y-115000000D01*
X182933889Y-115000000D02*
X187960000Y-115000000D01*
X164881667Y-115000000D02*
X169907778Y-115000000D01*
X169907778Y-115000000D02*
X171907778Y-113000000D01*
X115751111Y-115000000D02*
X117751111Y-113000000D01*
%TO.N,Net-(D2-A)*%
X140420000Y-65080000D02*
X141840000Y-66500000D01*
%TO.N,Net-(U1-THRES)*%
X193000000Y-87044888D02*
X193000000Y-68969500D01*
X190500000Y-66469500D02*
X189610500Y-66469500D01*
X177730000Y-73270000D02*
X175190000Y-70730000D01*
X193000000Y-68969500D02*
X190500000Y-66469500D01*
X189610500Y-66469500D02*
X182810000Y-73270000D01*
X182810000Y-73270000D02*
X177730000Y-73270000D01*
%TO.N,/OUT*%
X143720000Y-57000000D02*
X156000000Y-57000000D01*
X161770000Y-73270000D02*
X175190000Y-73270000D01*
X159000000Y-70500000D02*
X161770000Y-73270000D01*
X159000000Y-60000000D02*
X159000000Y-70500000D01*
X141840000Y-58880000D02*
X143720000Y-57000000D01*
X156000000Y-57000000D02*
X159000000Y-60000000D01*
%TO.N,+5V*%
X111000000Y-76000000D02*
X104000000Y-76000000D01*
X111377500Y-88000000D02*
X113000000Y-86377500D01*
X113000000Y-78000000D02*
X111000000Y-76000000D01*
X113000000Y-86377500D02*
X113000000Y-78000000D01*
%TO.N,Net-(U1-CONT)*%
X183000000Y-80000000D02*
X183000000Y-76000000D01*
X181000000Y-85500000D02*
X181000000Y-82000000D01*
X183000000Y-76000000D02*
X182810000Y-75810000D01*
X181000000Y-82000000D02*
X183000000Y-80000000D01*
%TO.N,Net-(U1-DISCH)*%
X191530500Y-65000000D02*
X193000000Y-66469500D01*
X187000000Y-66540000D02*
X187840000Y-65700000D01*
X182810000Y-70730000D02*
X187000000Y-66540000D01*
X187000000Y-66540000D02*
X188540000Y-65000000D01*
X187840000Y-65700000D02*
X187840000Y-59000000D01*
X188540000Y-65000000D02*
X191530500Y-65000000D01*
%TO.N,Net-(D3-A)*%
X137952300Y-65152300D02*
X139300000Y-66500000D01*
%TO.N,Net-(D4-A)*%
X142880000Y-68000000D02*
X144380000Y-66500000D01*
X136000000Y-68000000D02*
X142880000Y-68000000D01*
%TO.N,Net-(D5-A)*%
X150500000Y-68000000D02*
X152000000Y-66500000D01*
X148500000Y-70000000D02*
X150500000Y-68000000D01*
X145500000Y-70000000D02*
X148500000Y-70000000D01*
%TO.N,Net-(D6-A)*%
X156500000Y-68000000D02*
X156500000Y-63380000D01*
X156500000Y-63380000D02*
X152000000Y-58880000D01*
X152500000Y-72000000D02*
X156500000Y-68000000D01*
X147500000Y-72000000D02*
X152500000Y-72000000D01*
%TO.N,Net-(SW1-B)*%
X120500000Y-67500000D02*
X120500000Y-67580000D01*
X127500000Y-60500000D02*
X120500000Y-67500000D01*
X114580000Y-73500000D02*
X120500000Y-67580000D01*
X104000000Y-73500000D02*
X114580000Y-73500000D01*
X139300000Y-58880000D02*
X137680000Y-60500000D01*
X137680000Y-60500000D02*
X127500000Y-60500000D01*
%TO.N,Net-(D1-A)*%
X111620000Y-67580000D02*
X106040000Y-62000000D01*
X114000000Y-67580000D02*
X111620000Y-67580000D01*
%TD*%
%TA.AperFunction,Conductor*%
%TO.N,GND*%
G36*
X200498194Y-51000561D02*
G01*
X200501786Y-51000690D01*
X200505230Y-51000874D01*
X200528503Y-51002537D01*
X200528504Y-51002538D01*
X200528505Y-51002538D01*
X200702825Y-51015006D01*
X200709836Y-51015760D01*
X200711990Y-51016069D01*
X200716804Y-51016761D01*
X200723739Y-51018011D01*
X200912119Y-51058990D01*
X200918924Y-51060728D01*
X200925721Y-51062724D01*
X200932385Y-51064942D01*
X201112981Y-51132300D01*
X201119493Y-51134998D01*
X201125912Y-51137929D01*
X201132230Y-51141092D01*
X201301369Y-51233450D01*
X201307440Y-51237051D01*
X201313391Y-51240875D01*
X201319179Y-51244894D01*
X201473463Y-51360389D01*
X201478964Y-51364822D01*
X201484288Y-51369435D01*
X201489463Y-51374252D01*
X201625746Y-51510535D01*
X201630563Y-51515710D01*
X201635176Y-51521034D01*
X201639598Y-51526521D01*
X201755104Y-51680818D01*
X201759129Y-51686617D01*
X201762937Y-51692541D01*
X201762942Y-51692549D01*
X201766545Y-51698622D01*
X201858908Y-51867772D01*
X201862070Y-51874088D01*
X201864994Y-51880490D01*
X201867700Y-51887023D01*
X201935047Y-52067589D01*
X201937276Y-52074285D01*
X201939264Y-52081053D01*
X201941015Y-52087910D01*
X201981983Y-52276238D01*
X201983238Y-52283198D01*
X201984238Y-52290156D01*
X201984993Y-52297177D01*
X201999122Y-52494719D01*
X201999311Y-52498242D01*
X201999437Y-52501763D01*
X201999500Y-52505303D01*
X201999500Y-115994695D01*
X201999437Y-115998235D01*
X201999311Y-116001756D01*
X201999122Y-116005279D01*
X201984993Y-116202821D01*
X201984238Y-116209842D01*
X201983938Y-116211929D01*
X201983236Y-116216806D01*
X201981983Y-116223760D01*
X201941015Y-116412088D01*
X201939264Y-116418945D01*
X201937276Y-116425713D01*
X201935047Y-116432409D01*
X201867700Y-116612975D01*
X201864994Y-116619508D01*
X201862070Y-116625910D01*
X201858908Y-116632226D01*
X201766545Y-116801376D01*
X201762942Y-116807449D01*
X201759134Y-116813375D01*
X201755101Y-116819185D01*
X201639609Y-116973464D01*
X201635176Y-116978964D01*
X201630563Y-116984288D01*
X201625746Y-116989463D01*
X201489463Y-117125746D01*
X201484288Y-117130563D01*
X201478964Y-117135176D01*
X201473464Y-117139609D01*
X201319185Y-117255101D01*
X201313375Y-117259134D01*
X201307449Y-117262942D01*
X201301376Y-117266545D01*
X201132226Y-117358908D01*
X201125910Y-117362070D01*
X201119508Y-117364994D01*
X201112975Y-117367700D01*
X200932409Y-117435047D01*
X200925713Y-117437276D01*
X200918945Y-117439264D01*
X200912088Y-117441015D01*
X200723760Y-117481983D01*
X200716806Y-117483236D01*
X200711929Y-117483938D01*
X200709842Y-117484238D01*
X200702821Y-117484993D01*
X200505279Y-117499122D01*
X200501756Y-117499311D01*
X200498214Y-117499437D01*
X200494696Y-117499500D01*
X101505304Y-117499500D01*
X101501784Y-117499437D01*
X101498243Y-117499311D01*
X101494720Y-117499122D01*
X101297177Y-117484993D01*
X101290156Y-117484238D01*
X101283187Y-117483236D01*
X101276238Y-117481983D01*
X101087910Y-117441015D01*
X101081053Y-117439264D01*
X101074285Y-117437276D01*
X101067589Y-117435047D01*
X100887023Y-117367700D01*
X100880490Y-117364994D01*
X100874088Y-117362070D01*
X100867772Y-117358908D01*
X100698622Y-117266545D01*
X100692549Y-117262942D01*
X100686611Y-117259125D01*
X100680831Y-117255113D01*
X100526521Y-117139598D01*
X100521034Y-117135176D01*
X100515710Y-117130563D01*
X100510535Y-117125746D01*
X100374252Y-116989463D01*
X100369435Y-116984288D01*
X100364822Y-116978964D01*
X100360402Y-116973481D01*
X100244880Y-116819161D01*
X100240887Y-116813410D01*
X100237038Y-116807421D01*
X100233468Y-116801403D01*
X100202815Y-116745266D01*
X100141090Y-116632226D01*
X100137929Y-116625912D01*
X100137928Y-116625910D01*
X100134998Y-116619493D01*
X100132296Y-116612970D01*
X100064946Y-116432396D01*
X100062724Y-116425721D01*
X100060728Y-116418924D01*
X100058990Y-116412119D01*
X100018011Y-116223739D01*
X100016765Y-116216830D01*
X100015756Y-116209812D01*
X100015007Y-116202847D01*
X100000875Y-116005245D01*
X100000689Y-116001783D01*
X100000561Y-115998188D01*
X100000500Y-115994695D01*
X100000500Y-114393705D01*
X101649500Y-114393705D01*
X101649500Y-114606293D01*
X101682751Y-114816239D01*
X101682752Y-114816243D01*
X101748439Y-115018405D01*
X101748441Y-115018408D01*
X101844808Y-115207541D01*
X101844941Y-115207806D01*
X101844947Y-115207815D01*
X101844948Y-115207816D01*
X101844950Y-115207819D01*
X101969891Y-115379786D01*
X101969893Y-115379788D01*
X101969896Y-115379792D01*
X102120208Y-115530104D01*
X102120211Y-115530106D01*
X102120217Y-115530112D01*
X102120593Y-115530420D01*
X102121791Y-115531254D01*
X102268410Y-115637779D01*
X102292183Y-115655051D01*
X102292189Y-115655055D01*
X102292439Y-115655181D01*
X102481588Y-115751557D01*
X102683757Y-115817246D01*
X102683758Y-115817246D01*
X102683761Y-115817247D01*
X102817947Y-115838500D01*
X102893707Y-115850500D01*
X103106290Y-115850500D01*
X103106293Y-115850500D01*
X103190197Y-115837210D01*
X103316238Y-115817247D01*
X103316238Y-115817246D01*
X103316240Y-115817246D01*
X103316243Y-115817246D01*
X103316246Y-115817245D01*
X103318822Y-115816837D01*
X103323629Y-115814845D01*
X103518412Y-115751557D01*
X103707816Y-115655051D01*
X103731591Y-115637778D01*
X103878210Y-115531252D01*
X103879400Y-115530424D01*
X103879788Y-115530107D01*
X103879788Y-115530106D01*
X103879792Y-115530104D01*
X104030104Y-115379792D01*
X104155051Y-115207816D01*
X104251557Y-115018412D01*
X104317246Y-114816243D01*
X104317247Y-114816238D01*
X104350500Y-114606290D01*
X104350500Y-114393705D01*
X104317248Y-114183767D01*
X104317247Y-114183761D01*
X104317246Y-114183757D01*
X104251557Y-113981588D01*
X104155181Y-113792439D01*
X104155055Y-113792189D01*
X104155051Y-113792183D01*
X104155049Y-113792180D01*
X104030108Y-113620213D01*
X104030106Y-113620211D01*
X104030104Y-113620208D01*
X103879792Y-113469896D01*
X103879788Y-113469893D01*
X103879786Y-113469891D01*
X103707819Y-113344950D01*
X103707815Y-113344947D01*
X103707806Y-113344941D01*
X103707541Y-113344808D01*
X103518408Y-113248441D01*
X103518405Y-113248439D01*
X103316243Y-113182752D01*
X103316239Y-113182751D01*
X103106293Y-113149500D01*
X103106290Y-113149500D01*
X103106287Y-113149500D01*
X102893713Y-113149500D01*
X102893710Y-113149500D01*
X102893707Y-113149500D01*
X102683765Y-113182750D01*
X102481583Y-113248444D01*
X102292456Y-113344808D01*
X102292201Y-113344936D01*
X102292183Y-113344947D01*
X102120214Y-113469890D01*
X101969890Y-113620214D01*
X101844947Y-113792183D01*
X101844936Y-113792201D01*
X101844808Y-113792456D01*
X101748443Y-113981584D01*
X101748439Y-113981593D01*
X101682752Y-114183755D01*
X101682751Y-114183759D01*
X101649500Y-114393705D01*
X100000500Y-114393705D01*
X100000500Y-112052130D01*
X107324500Y-112052130D01*
X107324500Y-113947920D01*
X107324584Y-113948648D01*
X107328281Y-113983039D01*
X107330908Y-114007480D01*
X107330909Y-114007485D01*
X107330912Y-114007492D01*
X107381200Y-114142327D01*
X107422378Y-114197333D01*
X107422739Y-114197815D01*
X107467454Y-114257546D01*
X107467457Y-114257548D01*
X107467458Y-114257549D01*
X107521356Y-114297897D01*
X107582668Y-114343796D01*
X107582669Y-114343796D01*
X107582670Y-114343797D01*
X107717511Y-114394089D01*
X107717512Y-114394089D01*
X107717517Y-114394091D01*
X107717518Y-114394091D01*
X107718073Y-114394298D01*
X107719247Y-114394466D01*
X107722767Y-114394655D01*
X107777127Y-114400500D01*
X108168319Y-114400499D01*
X108221470Y-114415977D01*
X108850460Y-114816243D01*
X109465793Y-115207819D01*
X109599912Y-115293167D01*
X109616765Y-115306685D01*
X109947858Y-115637778D01*
X109947858Y-115637779D01*
X110087209Y-115777131D01*
X110087213Y-115777134D01*
X110087218Y-115777139D01*
X110251086Y-115886632D01*
X110365704Y-115934108D01*
X110433164Y-115962051D01*
X110529812Y-115981275D01*
X110626459Y-116000500D01*
X110626460Y-116000500D01*
X115849651Y-116000500D01*
X115849652Y-116000500D01*
X115946299Y-115981275D01*
X116042947Y-115962051D01*
X116110407Y-115934108D01*
X116225025Y-115886632D01*
X116388893Y-115777139D01*
X116528250Y-115637782D01*
X116528252Y-115637779D01*
X116533887Y-115632144D01*
X116533890Y-115632139D01*
X116859342Y-115306685D01*
X116876185Y-115293174D01*
X117697960Y-114770226D01*
X117757203Y-114754937D01*
X117804259Y-114770226D01*
X118626023Y-115293167D01*
X118642876Y-115306685D01*
X118973969Y-115637778D01*
X118973969Y-115637779D01*
X119113320Y-115777131D01*
X119113324Y-115777134D01*
X119113329Y-115777139D01*
X119277197Y-115886632D01*
X119391815Y-115934108D01*
X119459275Y-115962051D01*
X119555923Y-115981275D01*
X119652570Y-116000500D01*
X119652571Y-116000500D01*
X124875762Y-116000500D01*
X124875763Y-116000500D01*
X124972410Y-115981275D01*
X125069058Y-115962051D01*
X125136518Y-115934108D01*
X125251136Y-115886632D01*
X125415004Y-115777139D01*
X125554361Y-115637782D01*
X125554363Y-115637779D01*
X125559998Y-115632144D01*
X125560001Y-115632139D01*
X125885453Y-115306685D01*
X125902296Y-115293174D01*
X126724071Y-114770226D01*
X126783314Y-114754937D01*
X126830370Y-114770226D01*
X127652134Y-115293167D01*
X127668987Y-115306685D01*
X128000080Y-115637778D01*
X128000080Y-115637779D01*
X128139431Y-115777131D01*
X128139435Y-115777134D01*
X128139440Y-115777139D01*
X128303308Y-115886632D01*
X128417926Y-115934108D01*
X128485386Y-115962051D01*
X128582034Y-115981275D01*
X128678681Y-116000500D01*
X128678682Y-116000500D01*
X133901873Y-116000500D01*
X133901874Y-116000500D01*
X133998521Y-115981275D01*
X134095169Y-115962051D01*
X134162629Y-115934108D01*
X134277247Y-115886632D01*
X134441115Y-115777139D01*
X134580472Y-115637782D01*
X134580474Y-115637779D01*
X134586109Y-115632144D01*
X134586112Y-115632139D01*
X134911564Y-115306685D01*
X134928407Y-115293174D01*
X135750182Y-114770226D01*
X135809425Y-114754937D01*
X135856481Y-114770226D01*
X136678245Y-115293167D01*
X136695098Y-115306685D01*
X137026191Y-115637778D01*
X137026191Y-115637779D01*
X137165542Y-115777131D01*
X137165546Y-115777134D01*
X137165551Y-115777139D01*
X137329419Y-115886632D01*
X137444037Y-115934108D01*
X137511497Y-115962051D01*
X137608145Y-115981275D01*
X137704792Y-116000500D01*
X137704793Y-116000500D01*
X142927984Y-116000500D01*
X142927985Y-116000500D01*
X143024632Y-115981275D01*
X143121280Y-115962051D01*
X143188740Y-115934108D01*
X143303358Y-115886632D01*
X143467226Y-115777139D01*
X143606583Y-115637782D01*
X143606585Y-115637779D01*
X143612220Y-115632144D01*
X143612223Y-115632139D01*
X143937675Y-115306685D01*
X143954518Y-115293174D01*
X144776293Y-114770226D01*
X144835536Y-114754937D01*
X144882592Y-114770226D01*
X145704356Y-115293167D01*
X145721209Y-115306685D01*
X146052302Y-115637778D01*
X146052302Y-115637779D01*
X146191653Y-115777131D01*
X146191657Y-115777134D01*
X146191662Y-115777139D01*
X146355530Y-115886632D01*
X146470148Y-115934108D01*
X146537608Y-115962051D01*
X146634256Y-115981275D01*
X146730903Y-116000500D01*
X146730904Y-116000500D01*
X151954096Y-116000500D01*
X151954097Y-116000500D01*
X152050744Y-115981275D01*
X152147392Y-115962051D01*
X152214852Y-115934108D01*
X152329470Y-115886632D01*
X152493338Y-115777139D01*
X152632695Y-115637782D01*
X152632697Y-115637779D01*
X152638332Y-115632144D01*
X152638335Y-115632139D01*
X152963787Y-115306685D01*
X152980630Y-115293174D01*
X153802405Y-114770226D01*
X153861648Y-114754937D01*
X153908704Y-114770226D01*
X154730468Y-115293167D01*
X154747321Y-115306685D01*
X155078414Y-115637778D01*
X155078414Y-115637779D01*
X155217765Y-115777131D01*
X155217769Y-115777134D01*
X155217774Y-115777139D01*
X155381642Y-115886632D01*
X155496260Y-115934108D01*
X155563720Y-115962051D01*
X155660368Y-115981275D01*
X155757015Y-116000500D01*
X155757016Y-116000500D01*
X160980207Y-116000500D01*
X160980208Y-116000500D01*
X161076855Y-115981275D01*
X161173503Y-115962051D01*
X161240963Y-115934108D01*
X161355581Y-115886632D01*
X161519449Y-115777139D01*
X161658806Y-115637782D01*
X161658808Y-115637779D01*
X161664443Y-115632144D01*
X161664446Y-115632139D01*
X161989898Y-115306685D01*
X162006741Y-115293174D01*
X162828516Y-114770226D01*
X162887759Y-114754937D01*
X162934815Y-114770226D01*
X163756579Y-115293167D01*
X163773432Y-115306685D01*
X164104525Y-115637778D01*
X164104525Y-115637779D01*
X164243876Y-115777131D01*
X164243880Y-115777134D01*
X164243885Y-115777139D01*
X164407753Y-115886632D01*
X164522371Y-115934108D01*
X164589831Y-115962051D01*
X164686479Y-115981275D01*
X164783126Y-116000500D01*
X164783127Y-116000500D01*
X170006318Y-116000500D01*
X170006319Y-116000500D01*
X170102966Y-115981275D01*
X170199614Y-115962051D01*
X170267074Y-115934108D01*
X170381692Y-115886632D01*
X170545560Y-115777139D01*
X170684917Y-115637782D01*
X170684919Y-115637779D01*
X170690554Y-115632144D01*
X170690557Y-115632139D01*
X171016009Y-115306685D01*
X171032852Y-115293174D01*
X171854627Y-114770226D01*
X171913870Y-114754937D01*
X171960926Y-114770226D01*
X172782690Y-115293167D01*
X172799543Y-115306685D01*
X173130636Y-115637778D01*
X173130636Y-115637779D01*
X173269987Y-115777131D01*
X173269991Y-115777134D01*
X173269996Y-115777139D01*
X173433864Y-115886632D01*
X173548482Y-115934108D01*
X173615942Y-115962051D01*
X173712590Y-115981275D01*
X173809237Y-116000500D01*
X173809238Y-116000500D01*
X179032429Y-116000500D01*
X179032430Y-116000500D01*
X179129077Y-115981275D01*
X179225725Y-115962051D01*
X179293185Y-115934108D01*
X179407803Y-115886632D01*
X179571671Y-115777139D01*
X179711028Y-115637782D01*
X179711030Y-115637779D01*
X179716665Y-115632144D01*
X179716668Y-115632139D01*
X180042120Y-115306685D01*
X180058963Y-115293174D01*
X180880738Y-114770226D01*
X180939981Y-114754937D01*
X180987037Y-114770226D01*
X181808801Y-115293167D01*
X181825654Y-115306685D01*
X182156747Y-115637778D01*
X182156747Y-115637779D01*
X182296098Y-115777131D01*
X182296102Y-115777134D01*
X182296107Y-115777139D01*
X182459975Y-115886632D01*
X182574593Y-115934108D01*
X182642053Y-115962051D01*
X182738701Y-115981275D01*
X182835348Y-116000500D01*
X182835349Y-116000500D01*
X188058540Y-116000500D01*
X188058541Y-116000500D01*
X188155188Y-115981275D01*
X188251836Y-115962051D01*
X188319296Y-115934108D01*
X188433914Y-115886632D01*
X188597782Y-115777139D01*
X188737139Y-115637782D01*
X188737141Y-115637779D01*
X188742776Y-115632144D01*
X188742780Y-115632139D01*
X189068233Y-115306685D01*
X189085074Y-115293174D01*
X190463531Y-114415976D01*
X190516682Y-114400499D01*
X190907867Y-114400499D01*
X190907872Y-114400499D01*
X190967483Y-114394091D01*
X190967489Y-114394089D01*
X190985683Y-114387302D01*
X191042759Y-114366015D01*
X191100702Y-114344403D01*
X191104008Y-114343237D01*
X191107581Y-114342047D01*
X191115164Y-114334189D01*
X191217546Y-114257546D01*
X191303796Y-114142331D01*
X191341717Y-114040654D01*
X191356946Y-114013690D01*
X191364034Y-114004764D01*
X191415030Y-113970956D01*
X191476157Y-113973579D01*
X191482801Y-113976058D01*
X191518201Y-113998809D01*
X191560056Y-114040663D01*
X191587635Y-114068242D01*
X191765978Y-114197815D01*
X191962394Y-114297895D01*
X192172049Y-114366015D01*
X192259140Y-114379809D01*
X192302685Y-114386706D01*
X192389773Y-114400500D01*
X192610225Y-114400500D01*
X192610228Y-114400500D01*
X192653122Y-114393705D01*
X197649500Y-114393705D01*
X197649500Y-114606293D01*
X197682751Y-114816239D01*
X197682752Y-114816243D01*
X197748439Y-115018405D01*
X197748441Y-115018408D01*
X197844808Y-115207541D01*
X197844941Y-115207806D01*
X197844947Y-115207815D01*
X197844948Y-115207816D01*
X197844950Y-115207819D01*
X197969891Y-115379786D01*
X197969893Y-115379788D01*
X197969896Y-115379792D01*
X198120208Y-115530104D01*
X198120211Y-115530106D01*
X198120217Y-115530112D01*
X198120593Y-115530420D01*
X198121791Y-115531254D01*
X198268410Y-115637779D01*
X198292183Y-115655051D01*
X198292189Y-115655055D01*
X198292439Y-115655181D01*
X198481588Y-115751557D01*
X198683757Y-115817246D01*
X198683758Y-115817246D01*
X198683761Y-115817247D01*
X198817947Y-115838500D01*
X198893707Y-115850500D01*
X199106290Y-115850500D01*
X199106293Y-115850500D01*
X199190197Y-115837210D01*
X199316238Y-115817247D01*
X199316238Y-115817246D01*
X199316240Y-115817246D01*
X199316243Y-115817246D01*
X199316246Y-115817245D01*
X199318822Y-115816837D01*
X199323629Y-115814845D01*
X199518412Y-115751557D01*
X199707816Y-115655051D01*
X199731591Y-115637778D01*
X199878210Y-115531252D01*
X199879400Y-115530424D01*
X199879788Y-115530107D01*
X199879788Y-115530106D01*
X199879792Y-115530104D01*
X200030104Y-115379792D01*
X200155051Y-115207816D01*
X200251557Y-115018412D01*
X200317246Y-114816243D01*
X200317247Y-114816238D01*
X200350500Y-114606290D01*
X200350500Y-114393705D01*
X200317248Y-114183767D01*
X200317247Y-114183761D01*
X200317246Y-114183757D01*
X200251557Y-113981588D01*
X200155181Y-113792439D01*
X200155055Y-113792189D01*
X200155051Y-113792183D01*
X200155049Y-113792180D01*
X200030108Y-113620213D01*
X200030106Y-113620211D01*
X200030104Y-113620208D01*
X199879792Y-113469896D01*
X199879788Y-113469893D01*
X199879786Y-113469891D01*
X199707819Y-113344950D01*
X199707815Y-113344947D01*
X199707806Y-113344941D01*
X199707541Y-113344808D01*
X199518408Y-113248441D01*
X199518405Y-113248439D01*
X199316243Y-113182752D01*
X199316239Y-113182751D01*
X199106293Y-113149500D01*
X199106290Y-113149500D01*
X199106287Y-113149500D01*
X198893713Y-113149500D01*
X198893710Y-113149500D01*
X198893707Y-113149500D01*
X198683765Y-113182750D01*
X198481583Y-113248444D01*
X198292456Y-113344808D01*
X198292201Y-113344936D01*
X198292183Y-113344947D01*
X198120214Y-113469890D01*
X197969890Y-113620214D01*
X197844947Y-113792183D01*
X197844936Y-113792201D01*
X197844808Y-113792456D01*
X197748443Y-113981584D01*
X197748439Y-113981593D01*
X197682752Y-114183755D01*
X197682751Y-114183759D01*
X197649500Y-114393705D01*
X192653122Y-114393705D01*
X192664655Y-114391878D01*
X192719086Y-114383257D01*
X192789941Y-114372034D01*
X192827947Y-114366016D01*
X192827947Y-114366015D01*
X192827951Y-114366015D01*
X193037606Y-114297895D01*
X193234022Y-114197815D01*
X193412365Y-114068242D01*
X193568242Y-113912365D01*
X193697815Y-113734022D01*
X193797895Y-113537606D01*
X193866015Y-113327951D01*
X193889012Y-113182752D01*
X193900500Y-113110225D01*
X193900500Y-112889771D01*
X193866015Y-112672052D01*
X193866015Y-112672050D01*
X193797897Y-112462400D01*
X193797896Y-112462399D01*
X193797895Y-112462394D01*
X193697815Y-112265978D01*
X193568242Y-112087635D01*
X193412365Y-111931758D01*
X193292340Y-111844555D01*
X193242460Y-111808315D01*
X193242453Y-111808310D01*
X193234022Y-111802185D01*
X193234021Y-111802184D01*
X193234019Y-111802183D01*
X193229197Y-111799726D01*
X193229194Y-111799724D01*
X193116802Y-111742458D01*
X193116802Y-111742457D01*
X193116800Y-111742457D01*
X193079136Y-111723266D01*
X193042747Y-111704724D01*
X193042747Y-111704723D01*
X193037608Y-111702105D01*
X193034353Y-111701047D01*
X192827945Y-111633983D01*
X192610228Y-111599500D01*
X192610225Y-111599500D01*
X192610222Y-111599500D01*
X192389778Y-111599500D01*
X192389775Y-111599500D01*
X192389772Y-111599500D01*
X192172053Y-111633983D01*
X191962401Y-111702101D01*
X191765980Y-111802182D01*
X191765976Y-111802184D01*
X191689609Y-111857669D01*
X191587740Y-111931680D01*
X191587634Y-111931756D01*
X191587623Y-111931768D01*
X191521041Y-111998349D01*
X191495985Y-112016553D01*
X191485837Y-112021724D01*
X191425406Y-112031298D01*
X191370888Y-112003521D01*
X191370886Y-112003520D01*
X191365872Y-111998506D01*
X191343119Y-111963102D01*
X191331961Y-111933184D01*
X191329458Y-111925533D01*
X191318670Y-111887358D01*
X191280815Y-111802184D01*
X190969033Y-111100674D01*
X190960500Y-111060466D01*
X190960500Y-102685352D01*
X190962894Y-102663710D01*
X191044374Y-102300000D01*
X191256431Y-101353422D01*
X191260347Y-101332290D01*
X191263530Y-101319755D01*
X191268477Y-101304534D01*
X191268478Y-101304529D01*
X191294204Y-101142107D01*
X191300500Y-101102357D01*
X191300500Y-100897641D01*
X191268479Y-100695476D01*
X191268478Y-100695470D01*
X191268477Y-100695466D01*
X191205220Y-100500781D01*
X191112415Y-100318641D01*
X191112291Y-100318396D01*
X191112287Y-100318389D01*
X191112285Y-100318386D01*
X190991970Y-100152786D01*
X190991968Y-100152784D01*
X190991966Y-100152781D01*
X190847219Y-100008034D01*
X190847215Y-100008031D01*
X190847213Y-100008029D01*
X190811240Y-99981893D01*
X190681618Y-99887716D01*
X190681600Y-99887705D01*
X190681335Y-99887572D01*
X190499219Y-99794780D01*
X190304524Y-99731519D01*
X190102358Y-99699500D01*
X190102355Y-99699500D01*
X190102352Y-99699500D01*
X189897648Y-99699500D01*
X189897645Y-99699500D01*
X189897642Y-99699500D01*
X189695474Y-99731519D01*
X189500779Y-99794780D01*
X189318663Y-99887572D01*
X189318404Y-99887701D01*
X189318380Y-99887716D01*
X189152789Y-100008026D01*
X189008026Y-100152789D01*
X188887716Y-100318380D01*
X188887707Y-100318396D01*
X188887579Y-100318651D01*
X188794780Y-100500779D01*
X188731519Y-100695474D01*
X188699500Y-100897640D01*
X188699500Y-100897641D01*
X188699500Y-100897644D01*
X188699500Y-101102355D01*
X188699500Y-101102358D01*
X188699499Y-101102358D01*
X188705795Y-101142107D01*
X188706984Y-101155174D01*
X188707462Y-101174761D01*
X188958119Y-102659948D01*
X188959500Y-102676423D01*
X188959500Y-111060465D01*
X188950967Y-111100673D01*
X188601331Y-111887353D01*
X188601326Y-111887365D01*
X188576593Y-111963600D01*
X188575185Y-111967640D01*
X188565910Y-111992510D01*
X188565909Y-111992513D01*
X188561104Y-112037211D01*
X188559500Y-112052130D01*
X188559500Y-112443318D01*
X188544022Y-112496469D01*
X187666828Y-113874916D01*
X187653310Y-113891769D01*
X187585663Y-113959416D01*
X187560608Y-113977620D01*
X187549974Y-113983039D01*
X187538846Y-113988708D01*
X187493900Y-113999500D01*
X184688801Y-113999500D01*
X184658204Y-113994653D01*
X184647375Y-113991134D01*
X184647373Y-113991134D01*
X184647371Y-113991132D01*
X184647369Y-113991132D01*
X184629289Y-113977995D01*
X184597873Y-113955170D01*
X184597871Y-113955166D01*
X184578966Y-113896979D01*
X184578966Y-113893830D01*
X184597871Y-113835642D01*
X184671704Y-113734022D01*
X184771784Y-113537606D01*
X184839904Y-113327951D01*
X184862901Y-113182752D01*
X184874389Y-113110225D01*
X184874389Y-112889771D01*
X184839904Y-112672052D01*
X184839904Y-112672050D01*
X184771786Y-112462400D01*
X184771785Y-112462399D01*
X184771784Y-112462394D01*
X184671704Y-112265978D01*
X184542131Y-112087635D01*
X184386254Y-111931758D01*
X184266229Y-111844555D01*
X184216349Y-111808315D01*
X184216342Y-111808310D01*
X184207911Y-111802185D01*
X184207910Y-111802184D01*
X184207908Y-111802183D01*
X184203086Y-111799726D01*
X184203083Y-111799724D01*
X184090691Y-111742458D01*
X184090691Y-111742457D01*
X184090689Y-111742457D01*
X184053025Y-111723266D01*
X184016636Y-111704724D01*
X184016636Y-111704723D01*
X184011497Y-111702105D01*
X184008242Y-111701047D01*
X183801834Y-111633983D01*
X183584117Y-111599500D01*
X183584114Y-111599500D01*
X183584111Y-111599500D01*
X183363667Y-111599500D01*
X183363664Y-111599500D01*
X183363661Y-111599500D01*
X183145942Y-111633983D01*
X182936290Y-111702101D01*
X182739869Y-111802182D01*
X182739865Y-111802184D01*
X182663498Y-111857669D01*
X182561629Y-111931680D01*
X182561523Y-111931756D01*
X182561512Y-111931768D01*
X182494930Y-111998349D01*
X182469874Y-112016553D01*
X182459726Y-112021724D01*
X182399295Y-112031298D01*
X182344777Y-112003521D01*
X182344775Y-112003520D01*
X182339761Y-111998506D01*
X182317008Y-111963100D01*
X182277686Y-111857670D01*
X182191438Y-111742458D01*
X182191437Y-111742457D01*
X182191435Y-111742454D01*
X182137532Y-111702102D01*
X182100851Y-111674642D01*
X182076216Y-111656200D01*
X181947816Y-111608311D01*
X181947800Y-111608305D01*
X181941377Y-111605910D01*
X181941372Y-111605909D01*
X181941370Y-111605908D01*
X181941366Y-111605908D01*
X181940363Y-111605800D01*
X181939547Y-111605525D01*
X181936095Y-111605341D01*
X181919201Y-111603524D01*
X181910138Y-111602550D01*
X181910137Y-111602549D01*
X181881765Y-111599500D01*
X181881762Y-111599500D01*
X181881759Y-111599500D01*
X179986022Y-111599500D01*
X179986018Y-111599500D01*
X179977827Y-111599500D01*
X179971864Y-111601021D01*
X179962958Y-111601978D01*
X179926409Y-111605907D01*
X179926403Y-111605908D01*
X179926403Y-111605909D01*
X179926395Y-111605912D01*
X179791560Y-111656200D01*
X179676345Y-111742451D01*
X179676343Y-111742453D01*
X179590089Y-111857671D01*
X179539799Y-111992506D01*
X179539799Y-111992509D01*
X179534993Y-112037211D01*
X179533389Y-112052130D01*
X179533389Y-112443318D01*
X179517911Y-112496469D01*
X178640717Y-113874916D01*
X178627199Y-113891769D01*
X178559552Y-113959416D01*
X178534497Y-113977620D01*
X178523863Y-113983039D01*
X178512735Y-113988708D01*
X178467789Y-113999500D01*
X175662690Y-113999500D01*
X175632093Y-113994653D01*
X175621264Y-113991134D01*
X175621262Y-113991134D01*
X175621260Y-113991132D01*
X175621258Y-113991132D01*
X175603178Y-113977995D01*
X175571762Y-113955170D01*
X175571760Y-113955166D01*
X175552855Y-113896979D01*
X175552855Y-113893830D01*
X175571760Y-113835642D01*
X175645593Y-113734022D01*
X175745673Y-113537606D01*
X175813793Y-113327951D01*
X175836790Y-113182752D01*
X175848278Y-113110225D01*
X175848278Y-112889771D01*
X175813793Y-112672052D01*
X175813793Y-112672050D01*
X175745675Y-112462400D01*
X175745674Y-112462399D01*
X175745673Y-112462394D01*
X175645593Y-112265978D01*
X175516020Y-112087635D01*
X175360143Y-111931758D01*
X175240118Y-111844555D01*
X175190238Y-111808315D01*
X175190231Y-111808310D01*
X175181800Y-111802185D01*
X175181799Y-111802184D01*
X175181797Y-111802183D01*
X175176975Y-111799726D01*
X175176972Y-111799724D01*
X175064580Y-111742458D01*
X175064580Y-111742457D01*
X175064578Y-111742457D01*
X175026914Y-111723266D01*
X174990525Y-111704724D01*
X174990525Y-111704723D01*
X174985386Y-111702105D01*
X174982131Y-111701047D01*
X174775723Y-111633983D01*
X174558006Y-111599500D01*
X174558003Y-111599500D01*
X174558000Y-111599500D01*
X174337556Y-111599500D01*
X174337553Y-111599500D01*
X174337550Y-111599500D01*
X174119831Y-111633983D01*
X173910179Y-111702101D01*
X173713758Y-111802182D01*
X173713754Y-111802184D01*
X173637387Y-111857669D01*
X173535518Y-111931680D01*
X173535412Y-111931756D01*
X173535401Y-111931768D01*
X173468819Y-111998349D01*
X173443763Y-112016553D01*
X173433615Y-112021724D01*
X173373184Y-112031298D01*
X173318666Y-112003521D01*
X173318664Y-112003520D01*
X173313650Y-111998506D01*
X173290897Y-111963100D01*
X173251575Y-111857670D01*
X173165327Y-111742458D01*
X173165326Y-111742457D01*
X173165324Y-111742454D01*
X173111421Y-111702102D01*
X173074740Y-111674642D01*
X173050105Y-111656200D01*
X172921705Y-111608311D01*
X172921689Y-111608305D01*
X172915266Y-111605910D01*
X172915261Y-111605909D01*
X172915259Y-111605908D01*
X172915255Y-111605908D01*
X172914252Y-111605800D01*
X172913436Y-111605525D01*
X172909984Y-111605341D01*
X172893090Y-111603524D01*
X172884027Y-111602550D01*
X172884026Y-111602549D01*
X172855654Y-111599500D01*
X172855651Y-111599500D01*
X172855648Y-111599500D01*
X170959911Y-111599500D01*
X170959907Y-111599500D01*
X170951716Y-111599500D01*
X170945753Y-111601021D01*
X170936847Y-111601978D01*
X170900298Y-111605907D01*
X170900292Y-111605908D01*
X170900292Y-111605909D01*
X170900284Y-111605912D01*
X170765449Y-111656200D01*
X170650234Y-111742451D01*
X170650232Y-111742453D01*
X170563978Y-111857671D01*
X170513688Y-111992506D01*
X170513688Y-111992509D01*
X170508882Y-112037211D01*
X170507278Y-112052130D01*
X170507278Y-112443318D01*
X170491800Y-112496469D01*
X169614606Y-113874916D01*
X169601088Y-113891769D01*
X169533441Y-113959416D01*
X169508386Y-113977620D01*
X169497752Y-113983039D01*
X169486624Y-113988708D01*
X169441678Y-113999500D01*
X166636579Y-113999500D01*
X166605982Y-113994653D01*
X166595153Y-113991134D01*
X166595151Y-113991134D01*
X166595149Y-113991132D01*
X166595147Y-113991132D01*
X166577067Y-113977995D01*
X166545651Y-113955170D01*
X166545649Y-113955166D01*
X166526744Y-113896979D01*
X166526744Y-113893830D01*
X166545649Y-113835642D01*
X166619482Y-113734022D01*
X166719562Y-113537606D01*
X166787682Y-113327951D01*
X166810679Y-113182752D01*
X166822167Y-113110225D01*
X166822167Y-112889771D01*
X166787682Y-112672052D01*
X166787682Y-112672050D01*
X166719564Y-112462400D01*
X166719563Y-112462399D01*
X166719562Y-112462394D01*
X166619482Y-112265978D01*
X166489909Y-112087635D01*
X166334032Y-111931758D01*
X166214007Y-111844555D01*
X166164127Y-111808315D01*
X166164120Y-111808310D01*
X166155689Y-111802185D01*
X166155688Y-111802184D01*
X166155686Y-111802183D01*
X166150864Y-111799726D01*
X166150861Y-111799724D01*
X166038469Y-111742458D01*
X166038469Y-111742457D01*
X166038467Y-111742457D01*
X166000803Y-111723266D01*
X165964414Y-111704724D01*
X165964414Y-111704723D01*
X165959275Y-111702105D01*
X165956020Y-111701047D01*
X165749612Y-111633983D01*
X165531895Y-111599500D01*
X165531892Y-111599500D01*
X165531889Y-111599500D01*
X165311445Y-111599500D01*
X165311442Y-111599500D01*
X165311439Y-111599500D01*
X165093720Y-111633983D01*
X164884068Y-111702101D01*
X164687647Y-111802182D01*
X164687643Y-111802184D01*
X164611276Y-111857669D01*
X164509407Y-111931680D01*
X164509301Y-111931756D01*
X164509290Y-111931768D01*
X164442708Y-111998349D01*
X164417652Y-112016553D01*
X164407504Y-112021724D01*
X164347073Y-112031298D01*
X164292555Y-112003521D01*
X164292553Y-112003520D01*
X164287539Y-111998506D01*
X164264786Y-111963100D01*
X164225464Y-111857670D01*
X164139216Y-111742458D01*
X164139215Y-111742457D01*
X164139213Y-111742454D01*
X164085310Y-111702102D01*
X164048629Y-111674642D01*
X164023994Y-111656200D01*
X163895594Y-111608311D01*
X163895578Y-111608305D01*
X163889155Y-111605910D01*
X163889150Y-111605909D01*
X163889148Y-111605908D01*
X163889144Y-111605908D01*
X163888141Y-111605800D01*
X163887325Y-111605525D01*
X163883873Y-111605341D01*
X163866979Y-111603524D01*
X163857916Y-111602550D01*
X163857915Y-111602549D01*
X163829543Y-111599500D01*
X163829540Y-111599500D01*
X163829537Y-111599500D01*
X161933800Y-111599500D01*
X161933796Y-111599500D01*
X161925605Y-111599500D01*
X161919642Y-111601021D01*
X161910736Y-111601978D01*
X161874187Y-111605907D01*
X161874181Y-111605908D01*
X161874181Y-111605909D01*
X161874173Y-111605912D01*
X161739338Y-111656200D01*
X161624123Y-111742451D01*
X161624121Y-111742453D01*
X161537867Y-111857671D01*
X161487577Y-111992506D01*
X161487577Y-111992509D01*
X161482771Y-112037211D01*
X161481167Y-112052130D01*
X161481167Y-112443318D01*
X161465689Y-112496469D01*
X160588495Y-113874916D01*
X160574977Y-113891769D01*
X160507330Y-113959416D01*
X160482275Y-113977620D01*
X160471641Y-113983039D01*
X160460513Y-113988708D01*
X160415567Y-113999500D01*
X157610468Y-113999500D01*
X157579871Y-113994653D01*
X157569042Y-113991134D01*
X157569040Y-113991134D01*
X157569038Y-113991132D01*
X157569036Y-113991132D01*
X157550956Y-113977995D01*
X157519540Y-113955170D01*
X157519538Y-113955166D01*
X157500633Y-113896979D01*
X157500633Y-113893830D01*
X157519538Y-113835642D01*
X157593371Y-113734022D01*
X157693451Y-113537606D01*
X157761571Y-113327951D01*
X157784568Y-113182752D01*
X157796056Y-113110225D01*
X157796056Y-112889771D01*
X157761571Y-112672052D01*
X157761571Y-112672050D01*
X157693453Y-112462400D01*
X157693452Y-112462399D01*
X157693451Y-112462394D01*
X157593371Y-112265978D01*
X157463798Y-112087635D01*
X157307921Y-111931758D01*
X157187896Y-111844555D01*
X157138016Y-111808315D01*
X157138009Y-111808310D01*
X157129578Y-111802185D01*
X157129577Y-111802184D01*
X157129575Y-111802183D01*
X157124753Y-111799726D01*
X157124750Y-111799724D01*
X157012358Y-111742458D01*
X157012358Y-111742457D01*
X157012356Y-111742457D01*
X156974692Y-111723266D01*
X156938303Y-111704724D01*
X156938303Y-111704723D01*
X156933164Y-111702105D01*
X156929909Y-111701047D01*
X156723501Y-111633983D01*
X156505784Y-111599500D01*
X156505781Y-111599500D01*
X156505778Y-111599500D01*
X156285334Y-111599500D01*
X156285331Y-111599500D01*
X156285328Y-111599500D01*
X156067609Y-111633983D01*
X155857957Y-111702101D01*
X155661536Y-111802182D01*
X155661532Y-111802184D01*
X155585165Y-111857669D01*
X155483296Y-111931680D01*
X155483190Y-111931756D01*
X155483179Y-111931768D01*
X155416597Y-111998349D01*
X155391541Y-112016553D01*
X155381393Y-112021724D01*
X155320962Y-112031298D01*
X155266444Y-112003521D01*
X155266442Y-112003520D01*
X155261428Y-111998506D01*
X155238675Y-111963100D01*
X155199353Y-111857670D01*
X155113105Y-111742458D01*
X155113104Y-111742457D01*
X155113102Y-111742454D01*
X155059199Y-111702102D01*
X155022518Y-111674642D01*
X154997883Y-111656200D01*
X154869483Y-111608311D01*
X154869467Y-111608305D01*
X154863044Y-111605910D01*
X154863039Y-111605909D01*
X154863037Y-111605908D01*
X154863033Y-111605908D01*
X154862030Y-111605800D01*
X154861214Y-111605525D01*
X154857762Y-111605341D01*
X154840868Y-111603524D01*
X154831805Y-111602550D01*
X154831804Y-111602549D01*
X154803432Y-111599500D01*
X154803429Y-111599500D01*
X154803426Y-111599500D01*
X152907689Y-111599500D01*
X152907685Y-111599500D01*
X152899494Y-111599500D01*
X152893531Y-111601021D01*
X152884625Y-111601978D01*
X152848076Y-111605907D01*
X152848070Y-111605908D01*
X152848070Y-111605909D01*
X152848062Y-111605912D01*
X152713227Y-111656200D01*
X152598012Y-111742451D01*
X152598010Y-111742453D01*
X152511756Y-111857671D01*
X152461466Y-111992506D01*
X152461466Y-111992509D01*
X152456660Y-112037211D01*
X152455056Y-112052130D01*
X152455056Y-112443318D01*
X152439578Y-112496469D01*
X151562384Y-113874916D01*
X151548866Y-113891769D01*
X151481219Y-113959416D01*
X151456164Y-113977620D01*
X151445530Y-113983039D01*
X151434402Y-113988708D01*
X151389456Y-113999500D01*
X148584356Y-113999500D01*
X148553759Y-113994653D01*
X148542930Y-113991134D01*
X148542928Y-113991134D01*
X148542926Y-113991132D01*
X148542924Y-113991132D01*
X148524844Y-113977995D01*
X148493428Y-113955170D01*
X148493426Y-113955166D01*
X148474521Y-113896979D01*
X148474521Y-113893830D01*
X148493426Y-113835642D01*
X148567259Y-113734022D01*
X148667339Y-113537606D01*
X148735459Y-113327951D01*
X148758456Y-113182752D01*
X148769944Y-113110225D01*
X148769944Y-112889771D01*
X148735459Y-112672052D01*
X148735459Y-112672050D01*
X148667341Y-112462400D01*
X148667340Y-112462399D01*
X148667339Y-112462394D01*
X148567259Y-112265978D01*
X148437686Y-112087635D01*
X148281809Y-111931758D01*
X148161784Y-111844555D01*
X148111904Y-111808315D01*
X148111897Y-111808310D01*
X148103466Y-111802185D01*
X148103465Y-111802184D01*
X148103463Y-111802183D01*
X148098641Y-111799726D01*
X148098638Y-111799724D01*
X147986246Y-111742458D01*
X147986246Y-111742457D01*
X147986244Y-111742457D01*
X147948580Y-111723266D01*
X147912191Y-111704724D01*
X147912191Y-111704723D01*
X147907052Y-111702105D01*
X147903797Y-111701047D01*
X147697389Y-111633983D01*
X147479672Y-111599500D01*
X147479669Y-111599500D01*
X147479666Y-111599500D01*
X147259222Y-111599500D01*
X147259219Y-111599500D01*
X147259216Y-111599500D01*
X147041497Y-111633983D01*
X146831845Y-111702101D01*
X146635424Y-111802182D01*
X146635420Y-111802184D01*
X146559053Y-111857669D01*
X146457184Y-111931680D01*
X146457078Y-111931756D01*
X146457067Y-111931768D01*
X146390485Y-111998349D01*
X146365429Y-112016553D01*
X146355281Y-112021724D01*
X146294850Y-112031298D01*
X146240332Y-112003521D01*
X146240330Y-112003520D01*
X146235316Y-111998506D01*
X146212563Y-111963100D01*
X146173241Y-111857670D01*
X146086993Y-111742458D01*
X146086992Y-111742457D01*
X146086990Y-111742454D01*
X146033087Y-111702102D01*
X145996406Y-111674642D01*
X145971771Y-111656200D01*
X145843371Y-111608311D01*
X145843355Y-111608305D01*
X145836932Y-111605910D01*
X145836927Y-111605909D01*
X145836925Y-111605908D01*
X145836921Y-111605908D01*
X145835918Y-111605800D01*
X145835102Y-111605525D01*
X145831650Y-111605341D01*
X145814756Y-111603524D01*
X145805693Y-111602550D01*
X145805692Y-111602549D01*
X145777320Y-111599500D01*
X145777317Y-111599500D01*
X145777314Y-111599500D01*
X143881577Y-111599500D01*
X143881573Y-111599500D01*
X143873382Y-111599500D01*
X143867419Y-111601021D01*
X143858513Y-111601978D01*
X143821964Y-111605907D01*
X143821958Y-111605908D01*
X143821958Y-111605909D01*
X143821950Y-111605912D01*
X143687115Y-111656200D01*
X143571900Y-111742451D01*
X143571898Y-111742453D01*
X143485644Y-111857671D01*
X143435354Y-111992506D01*
X143435354Y-111992509D01*
X143430548Y-112037211D01*
X143428944Y-112052130D01*
X143428944Y-112443318D01*
X143413466Y-112496469D01*
X142536272Y-113874916D01*
X142522754Y-113891769D01*
X142455107Y-113959416D01*
X142430052Y-113977620D01*
X142419418Y-113983039D01*
X142408290Y-113988708D01*
X142363344Y-113999500D01*
X139558245Y-113999500D01*
X139527648Y-113994653D01*
X139516819Y-113991134D01*
X139516817Y-113991134D01*
X139516815Y-113991132D01*
X139516813Y-113991132D01*
X139498733Y-113977995D01*
X139467317Y-113955170D01*
X139467315Y-113955166D01*
X139448410Y-113896979D01*
X139448410Y-113893830D01*
X139467315Y-113835642D01*
X139541148Y-113734022D01*
X139641228Y-113537606D01*
X139709348Y-113327951D01*
X139732345Y-113182752D01*
X139743833Y-113110225D01*
X139743833Y-112889771D01*
X139709348Y-112672052D01*
X139709348Y-112672050D01*
X139641230Y-112462400D01*
X139641229Y-112462399D01*
X139641228Y-112462394D01*
X139541148Y-112265978D01*
X139411575Y-112087635D01*
X139255698Y-111931758D01*
X139135673Y-111844555D01*
X139085793Y-111808315D01*
X139085786Y-111808310D01*
X139077355Y-111802185D01*
X139077354Y-111802184D01*
X139077352Y-111802183D01*
X139072530Y-111799726D01*
X139072527Y-111799724D01*
X138960135Y-111742458D01*
X138960135Y-111742457D01*
X138960133Y-111742457D01*
X138922469Y-111723266D01*
X138886080Y-111704724D01*
X138886080Y-111704723D01*
X138880941Y-111702105D01*
X138877686Y-111701047D01*
X138671278Y-111633983D01*
X138453561Y-111599500D01*
X138453558Y-111599500D01*
X138453555Y-111599500D01*
X138233111Y-111599500D01*
X138233108Y-111599500D01*
X138233105Y-111599500D01*
X138015386Y-111633983D01*
X137805734Y-111702101D01*
X137609313Y-111802182D01*
X137609309Y-111802184D01*
X137532942Y-111857669D01*
X137431073Y-111931680D01*
X137430967Y-111931756D01*
X137430956Y-111931768D01*
X137364374Y-111998349D01*
X137339318Y-112016553D01*
X137329170Y-112021724D01*
X137268739Y-112031298D01*
X137214221Y-112003521D01*
X137214219Y-112003520D01*
X137209205Y-111998506D01*
X137186452Y-111963100D01*
X137147130Y-111857670D01*
X137060882Y-111742458D01*
X137060881Y-111742457D01*
X137060879Y-111742454D01*
X137006976Y-111702102D01*
X136970295Y-111674642D01*
X136945660Y-111656200D01*
X136817260Y-111608311D01*
X136817244Y-111608305D01*
X136810821Y-111605910D01*
X136810816Y-111605909D01*
X136810814Y-111605908D01*
X136810810Y-111605908D01*
X136809807Y-111605800D01*
X136808991Y-111605525D01*
X136805539Y-111605341D01*
X136788645Y-111603524D01*
X136779582Y-111602550D01*
X136779581Y-111602549D01*
X136751209Y-111599500D01*
X136751206Y-111599500D01*
X136751203Y-111599500D01*
X134855466Y-111599500D01*
X134855462Y-111599500D01*
X134847271Y-111599500D01*
X134841308Y-111601021D01*
X134832402Y-111601978D01*
X134795853Y-111605907D01*
X134795847Y-111605908D01*
X134795847Y-111605909D01*
X134795839Y-111605912D01*
X134661004Y-111656200D01*
X134545789Y-111742451D01*
X134545787Y-111742453D01*
X134459533Y-111857671D01*
X134409243Y-111992506D01*
X134409243Y-111992509D01*
X134404437Y-112037211D01*
X134402833Y-112052130D01*
X134402833Y-112443318D01*
X134387355Y-112496469D01*
X133510161Y-113874916D01*
X133496643Y-113891769D01*
X133428996Y-113959416D01*
X133403941Y-113977620D01*
X133393307Y-113983039D01*
X133382179Y-113988708D01*
X133337233Y-113999500D01*
X130532134Y-113999500D01*
X130501537Y-113994653D01*
X130490708Y-113991134D01*
X130490706Y-113991134D01*
X130490704Y-113991132D01*
X130490702Y-113991132D01*
X130472622Y-113977995D01*
X130441206Y-113955170D01*
X130441204Y-113955166D01*
X130422299Y-113896979D01*
X130422299Y-113893830D01*
X130441204Y-113835642D01*
X130515037Y-113734022D01*
X130615117Y-113537606D01*
X130683237Y-113327951D01*
X130706234Y-113182752D01*
X130717722Y-113110225D01*
X130717722Y-112889771D01*
X130683237Y-112672052D01*
X130683237Y-112672050D01*
X130615119Y-112462400D01*
X130615118Y-112462399D01*
X130615117Y-112462394D01*
X130515037Y-112265978D01*
X130385464Y-112087635D01*
X130229587Y-111931758D01*
X130109562Y-111844555D01*
X130059682Y-111808315D01*
X130059675Y-111808310D01*
X130051244Y-111802185D01*
X130051243Y-111802184D01*
X130051241Y-111802183D01*
X130046419Y-111799726D01*
X130046416Y-111799724D01*
X129934024Y-111742458D01*
X129934024Y-111742457D01*
X129934022Y-111742457D01*
X129896358Y-111723266D01*
X129859969Y-111704724D01*
X129859969Y-111704723D01*
X129854830Y-111702105D01*
X129851575Y-111701047D01*
X129645167Y-111633983D01*
X129427450Y-111599500D01*
X129427447Y-111599500D01*
X129427444Y-111599500D01*
X129207000Y-111599500D01*
X129206997Y-111599500D01*
X129206994Y-111599500D01*
X128989275Y-111633983D01*
X128779623Y-111702101D01*
X128583202Y-111802182D01*
X128583198Y-111802184D01*
X128506831Y-111857669D01*
X128404962Y-111931680D01*
X128404856Y-111931756D01*
X128404845Y-111931768D01*
X128338263Y-111998349D01*
X128313207Y-112016553D01*
X128303059Y-112021724D01*
X128242628Y-112031298D01*
X128188110Y-112003521D01*
X128188108Y-112003520D01*
X128183094Y-111998506D01*
X128160341Y-111963100D01*
X128121019Y-111857670D01*
X128034771Y-111742458D01*
X128034770Y-111742457D01*
X128034768Y-111742454D01*
X127980865Y-111702102D01*
X127944184Y-111674642D01*
X127919549Y-111656200D01*
X127791149Y-111608311D01*
X127791133Y-111608305D01*
X127784710Y-111605910D01*
X127784705Y-111605909D01*
X127784703Y-111605908D01*
X127784699Y-111605908D01*
X127783696Y-111605800D01*
X127782880Y-111605525D01*
X127779428Y-111605341D01*
X127762534Y-111603524D01*
X127753471Y-111602550D01*
X127753470Y-111602549D01*
X127725098Y-111599500D01*
X127725095Y-111599500D01*
X127725092Y-111599500D01*
X125829355Y-111599500D01*
X125829351Y-111599500D01*
X125821160Y-111599500D01*
X125815197Y-111601021D01*
X125806291Y-111601978D01*
X125769742Y-111605907D01*
X125769736Y-111605908D01*
X125769736Y-111605909D01*
X125769728Y-111605912D01*
X125634893Y-111656200D01*
X125519678Y-111742451D01*
X125519676Y-111742453D01*
X125433422Y-111857671D01*
X125383132Y-111992506D01*
X125383132Y-111992509D01*
X125378326Y-112037211D01*
X125376722Y-112052130D01*
X125376722Y-112443318D01*
X125361244Y-112496469D01*
X124484050Y-113874916D01*
X124470532Y-113891769D01*
X124402885Y-113959416D01*
X124377830Y-113977620D01*
X124367196Y-113983039D01*
X124356068Y-113988708D01*
X124311122Y-113999500D01*
X121506023Y-113999500D01*
X121475426Y-113994653D01*
X121464597Y-113991134D01*
X121464595Y-113991134D01*
X121464593Y-113991132D01*
X121464591Y-113991132D01*
X121446511Y-113977995D01*
X121415095Y-113955170D01*
X121415093Y-113955166D01*
X121396188Y-113896979D01*
X121396188Y-113893830D01*
X121415093Y-113835642D01*
X121488926Y-113734022D01*
X121589006Y-113537606D01*
X121657126Y-113327951D01*
X121680123Y-113182752D01*
X121691611Y-113110225D01*
X121691611Y-112889771D01*
X121657126Y-112672052D01*
X121657126Y-112672050D01*
X121589008Y-112462400D01*
X121589007Y-112462399D01*
X121589006Y-112462394D01*
X121488926Y-112265978D01*
X121359353Y-112087635D01*
X121203476Y-111931758D01*
X121083451Y-111844555D01*
X121033571Y-111808315D01*
X121033564Y-111808310D01*
X121025133Y-111802185D01*
X121025132Y-111802184D01*
X121025130Y-111802183D01*
X121020308Y-111799726D01*
X121020305Y-111799724D01*
X120907913Y-111742458D01*
X120907913Y-111742457D01*
X120907911Y-111742457D01*
X120870247Y-111723266D01*
X120833858Y-111704724D01*
X120833858Y-111704723D01*
X120828719Y-111702105D01*
X120825464Y-111701047D01*
X120619056Y-111633983D01*
X120401339Y-111599500D01*
X120401336Y-111599500D01*
X120401333Y-111599500D01*
X120180889Y-111599500D01*
X120180886Y-111599500D01*
X120180883Y-111599500D01*
X119963164Y-111633983D01*
X119753512Y-111702101D01*
X119557091Y-111802182D01*
X119557087Y-111802184D01*
X119480720Y-111857669D01*
X119378851Y-111931680D01*
X119378745Y-111931756D01*
X119378734Y-111931768D01*
X119312152Y-111998349D01*
X119287096Y-112016553D01*
X119276948Y-112021724D01*
X119216517Y-112031298D01*
X119161999Y-112003521D01*
X119161997Y-112003520D01*
X119156983Y-111998506D01*
X119134230Y-111963100D01*
X119094908Y-111857670D01*
X119008660Y-111742458D01*
X119008659Y-111742457D01*
X119008657Y-111742454D01*
X118954754Y-111702102D01*
X118918073Y-111674642D01*
X118893438Y-111656200D01*
X118765038Y-111608311D01*
X118765022Y-111608305D01*
X118758599Y-111605910D01*
X118758594Y-111605909D01*
X118758592Y-111605908D01*
X118758588Y-111605908D01*
X118757585Y-111605800D01*
X118756769Y-111605525D01*
X118753317Y-111605341D01*
X118736423Y-111603524D01*
X118727360Y-111602550D01*
X118727359Y-111602549D01*
X118698987Y-111599500D01*
X118698984Y-111599500D01*
X118698981Y-111599500D01*
X116803244Y-111599500D01*
X116803240Y-111599500D01*
X116795049Y-111599500D01*
X116789086Y-111601021D01*
X116780180Y-111601978D01*
X116743631Y-111605907D01*
X116743625Y-111605908D01*
X116743625Y-111605909D01*
X116743617Y-111605912D01*
X116608782Y-111656200D01*
X116493567Y-111742451D01*
X116493565Y-111742453D01*
X116407311Y-111857671D01*
X116357021Y-111992506D01*
X116357021Y-111992509D01*
X116352215Y-112037211D01*
X116350611Y-112052130D01*
X116350611Y-112443318D01*
X116335133Y-112496469D01*
X115457939Y-113874916D01*
X115444421Y-113891769D01*
X115376774Y-113959416D01*
X115351719Y-113977620D01*
X115341085Y-113983039D01*
X115329957Y-113988708D01*
X115285011Y-113999500D01*
X112479912Y-113999500D01*
X112449315Y-113994653D01*
X112438486Y-113991134D01*
X112438484Y-113991134D01*
X112438482Y-113991132D01*
X112438480Y-113991132D01*
X112420400Y-113977995D01*
X112388984Y-113955170D01*
X112388982Y-113955166D01*
X112370077Y-113896979D01*
X112370077Y-113893830D01*
X112388982Y-113835642D01*
X112462815Y-113734022D01*
X112562895Y-113537606D01*
X112631015Y-113327951D01*
X112654012Y-113182752D01*
X112665500Y-113110225D01*
X112665500Y-112889771D01*
X112631015Y-112672052D01*
X112631015Y-112672050D01*
X112562897Y-112462400D01*
X112562896Y-112462399D01*
X112562895Y-112462394D01*
X112462815Y-112265978D01*
X112333242Y-112087635D01*
X112177365Y-111931758D01*
X112057340Y-111844555D01*
X112007460Y-111808315D01*
X112007453Y-111808310D01*
X111999022Y-111802185D01*
X111999021Y-111802184D01*
X111999019Y-111802183D01*
X111994197Y-111799726D01*
X111994194Y-111799724D01*
X111881802Y-111742458D01*
X111881802Y-111742457D01*
X111881800Y-111742457D01*
X111844136Y-111723266D01*
X111807747Y-111704724D01*
X111807747Y-111704723D01*
X111802608Y-111702105D01*
X111799353Y-111701047D01*
X111592945Y-111633983D01*
X111375228Y-111599500D01*
X111375225Y-111599500D01*
X111375222Y-111599500D01*
X111154778Y-111599500D01*
X111154775Y-111599500D01*
X111154772Y-111599500D01*
X110937053Y-111633983D01*
X110727401Y-111702101D01*
X110530980Y-111802182D01*
X110530976Y-111802184D01*
X110454609Y-111857669D01*
X110352740Y-111931680D01*
X110352634Y-111931756D01*
X110352623Y-111931768D01*
X110286041Y-111998349D01*
X110260985Y-112016553D01*
X110250837Y-112021724D01*
X110190406Y-112031298D01*
X110135888Y-112003521D01*
X110135886Y-112003520D01*
X110130872Y-111998506D01*
X110108119Y-111963100D01*
X110068797Y-111857670D01*
X109982549Y-111742458D01*
X109982548Y-111742457D01*
X109982546Y-111742454D01*
X109928643Y-111702102D01*
X109891962Y-111674642D01*
X109867327Y-111656200D01*
X109738927Y-111608311D01*
X109738911Y-111608305D01*
X109732488Y-111605910D01*
X109732483Y-111605909D01*
X109732481Y-111605908D01*
X109732477Y-111605908D01*
X109731474Y-111605800D01*
X109730658Y-111605525D01*
X109727206Y-111605341D01*
X109710312Y-111603524D01*
X109701249Y-111602550D01*
X109701248Y-111602549D01*
X109672876Y-111599500D01*
X109672873Y-111599500D01*
X109672870Y-111599500D01*
X107777133Y-111599500D01*
X107777129Y-111599500D01*
X107768938Y-111599500D01*
X107762975Y-111601021D01*
X107754069Y-111601978D01*
X107717520Y-111605907D01*
X107717514Y-111605908D01*
X107717514Y-111605909D01*
X107717506Y-111605912D01*
X107582671Y-111656200D01*
X107467456Y-111742451D01*
X107467454Y-111742453D01*
X107381200Y-111857671D01*
X107330910Y-111992506D01*
X107330910Y-111992509D01*
X107326104Y-112037211D01*
X107324500Y-112052130D01*
X100000500Y-112052130D01*
X100000500Y-70298129D01*
X102845500Y-70298129D01*
X102845500Y-70299796D01*
X102845500Y-71702408D01*
X102845785Y-71704526D01*
X102847043Y-71716224D01*
X102847044Y-71716229D01*
X102851908Y-71761480D01*
X102851909Y-71761485D01*
X102851912Y-71761492D01*
X102902200Y-71896327D01*
X102988449Y-72011541D01*
X102988882Y-72011938D01*
X102990588Y-72013144D01*
X103075142Y-72076441D01*
X103103668Y-72097796D01*
X103103669Y-72097796D01*
X103103670Y-72097797D01*
X103238511Y-72148089D01*
X103238512Y-72148089D01*
X103238517Y-72148091D01*
X103238518Y-72148091D01*
X103239073Y-72148298D01*
X103240247Y-72148466D01*
X103243767Y-72148655D01*
X103298127Y-72154500D01*
X103841471Y-72154499D01*
X103861637Y-72158791D01*
X103872044Y-72159338D01*
X103874868Y-72160255D01*
X103876828Y-72160891D01*
X103879033Y-72162493D01*
X103881785Y-72163079D01*
X103885894Y-72164911D01*
X103900540Y-72178112D01*
X103926335Y-72196845D01*
X103928412Y-72203234D01*
X103931342Y-72205875D01*
X103935223Y-72224181D01*
X103945254Y-72255032D01*
X103943142Y-72261534D01*
X103944032Y-72265730D01*
X103935746Y-72284314D01*
X103926359Y-72313226D01*
X103920957Y-72317483D01*
X103919117Y-72321613D01*
X103906465Y-72328908D01*
X103884119Y-72346525D01*
X103883445Y-72346804D01*
X103867769Y-72351222D01*
X103866113Y-72352178D01*
X103864853Y-72352044D01*
X103861068Y-72353112D01*
X103729658Y-72373926D01*
X103556826Y-72430082D01*
X103394902Y-72512586D01*
X103394895Y-72512591D01*
X103247904Y-72619387D01*
X103119387Y-72747904D01*
X103012591Y-72894895D01*
X103012586Y-72894902D01*
X102930083Y-73056824D01*
X102873924Y-73229662D01*
X102845500Y-73409131D01*
X102845500Y-73590867D01*
X102873924Y-73770336D01*
X102873926Y-73770341D01*
X102930083Y-73943174D01*
X102983055Y-74047139D01*
X103012586Y-74105096D01*
X103012591Y-74105103D01*
X103119386Y-74252093D01*
X103119390Y-74252098D01*
X103119392Y-74252100D01*
X103119394Y-74252102D01*
X103119397Y-74252106D01*
X103247894Y-74380603D01*
X103247897Y-74380605D01*
X103247903Y-74380611D01*
X103248286Y-74380925D01*
X103249504Y-74381773D01*
X103378122Y-74475220D01*
X103378121Y-74475220D01*
X103394866Y-74487385D01*
X103394910Y-74487417D01*
X103556826Y-74569917D01*
X103729654Y-74626072D01*
X103729655Y-74626072D01*
X103729658Y-74626073D01*
X103879249Y-74649766D01*
X103908699Y-74659334D01*
X103916050Y-74663080D01*
X103959314Y-74706344D01*
X103968885Y-74766776D01*
X103941107Y-74821293D01*
X103886591Y-74849070D01*
X103729662Y-74873924D01*
X103556824Y-74930083D01*
X103394902Y-75012586D01*
X103394895Y-75012591D01*
X103247904Y-75119387D01*
X103119387Y-75247904D01*
X103012591Y-75394895D01*
X103012586Y-75394902D01*
X102930083Y-75556824D01*
X102873924Y-75729662D01*
X102845500Y-75909131D01*
X102845500Y-76090864D01*
X102873924Y-76270336D01*
X102930083Y-76443174D01*
X103012586Y-76605096D01*
X103012591Y-76605103D01*
X103119386Y-76752093D01*
X103119390Y-76752098D01*
X103119392Y-76752100D01*
X103119394Y-76752102D01*
X103119397Y-76752106D01*
X103247894Y-76880603D01*
X103247897Y-76880605D01*
X103247903Y-76880611D01*
X103248286Y-76880925D01*
X103249500Y-76881770D01*
X103394904Y-76987413D01*
X103394910Y-76987417D01*
X103556826Y-77069917D01*
X103729654Y-77126072D01*
X103729655Y-77126072D01*
X103729658Y-77126073D01*
X103869252Y-77148182D01*
X103909134Y-77154500D01*
X103909136Y-77154500D01*
X103909139Y-77154500D01*
X104090861Y-77154500D01*
X104090864Y-77154500D01*
X104105871Y-77152122D01*
X104123522Y-77150927D01*
X104131763Y-77151107D01*
X104136915Y-77151220D01*
X104136919Y-77151220D01*
X104136919Y-77151219D01*
X104136920Y-77151220D01*
X104738593Y-77078068D01*
X105355566Y-77003056D01*
X105366075Y-77001529D01*
X105380311Y-77000500D01*
X110528892Y-77000500D01*
X110559483Y-77005345D01*
X110571820Y-77009353D01*
X110582709Y-77012891D01*
X110622122Y-77037042D01*
X111959417Y-78374337D01*
X111977622Y-78399395D01*
X111988709Y-78421154D01*
X111999500Y-78466100D01*
X111999500Y-85849921D01*
X111980593Y-85908112D01*
X111954949Y-85932603D01*
X110891108Y-86633182D01*
X110836659Y-86649500D01*
X110471438Y-86649500D01*
X110465475Y-86651021D01*
X110456569Y-86651978D01*
X110420020Y-86655907D01*
X110420006Y-86655912D01*
X110285171Y-86706200D01*
X110169956Y-86792451D01*
X110169954Y-86792453D01*
X110083700Y-86907671D01*
X110033412Y-87042504D01*
X110033408Y-87042520D01*
X110033408Y-87042521D01*
X110027000Y-87102132D01*
X110027000Y-88897920D01*
X110027084Y-88898648D01*
X110031781Y-88942349D01*
X110033408Y-88957480D01*
X110033409Y-88957485D01*
X110033412Y-88957492D01*
X110083701Y-89092328D01*
X110083702Y-89092331D01*
X110122620Y-89144317D01*
X110122640Y-89144344D01*
X110123048Y-89144888D01*
X110169954Y-89207546D01*
X110169957Y-89207548D01*
X110169958Y-89207549D01*
X110263343Y-89277457D01*
X110285168Y-89293796D01*
X110285169Y-89293796D01*
X110285170Y-89293797D01*
X110420011Y-89344089D01*
X110420012Y-89344089D01*
X110420017Y-89344091D01*
X110420018Y-89344091D01*
X110420573Y-89344298D01*
X110421747Y-89344466D01*
X110425267Y-89344655D01*
X110479627Y-89350500D01*
X110498844Y-89350499D01*
X110529437Y-89355343D01*
X110537717Y-89358034D01*
X110542122Y-89359465D01*
X110591621Y-89395426D01*
X110605283Y-89414229D01*
X110875410Y-89684356D01*
X111144388Y-89953334D01*
X111172165Y-90007851D01*
X111162594Y-90068283D01*
X111123886Y-90109074D01*
X111070493Y-90139901D01*
X110977401Y-90232993D01*
X110946574Y-90286386D01*
X110901103Y-90327326D01*
X110840253Y-90333720D01*
X110790834Y-90306888D01*
X110262228Y-89778282D01*
X110262227Y-89778282D01*
X110222875Y-89832445D01*
X110222866Y-89832460D01*
X110222736Y-89832719D01*
X110126404Y-90021783D01*
X110060738Y-90223882D01*
X110027500Y-90433745D01*
X110027500Y-90646253D01*
X110060738Y-90856116D01*
X110107170Y-90999020D01*
X110126404Y-91058215D01*
X110222876Y-91247553D01*
X110222878Y-91247556D01*
X110222882Y-91247562D01*
X110222886Y-91247568D01*
X110262227Y-91301716D01*
X110262228Y-91301716D01*
X110262229Y-91301716D01*
X110790836Y-90773107D01*
X110845351Y-90745332D01*
X110905783Y-90754903D01*
X110946572Y-90793610D01*
X110977401Y-90847007D01*
X111070493Y-90940099D01*
X111103134Y-90958944D01*
X111123883Y-90970924D01*
X111164823Y-91016394D01*
X111171218Y-91077244D01*
X111144386Y-91126663D01*
X110615782Y-91655268D01*
X110615782Y-91655269D01*
X110615782Y-91655270D01*
X110669940Y-91694619D01*
X110669946Y-91694623D01*
X110708742Y-91714390D01*
X110733799Y-91732595D01*
X110741856Y-91740652D01*
X110769633Y-91795169D01*
X110760062Y-91855601D01*
X110760052Y-91855621D01*
X110758622Y-91858426D01*
X110715368Y-91901670D01*
X110669707Y-91924935D01*
X110669675Y-91924953D01*
X110497714Y-92049890D01*
X110347390Y-92200214D01*
X110222447Y-92372183D01*
X110222436Y-92372201D01*
X110222308Y-92372456D01*
X110125943Y-92561584D01*
X110125939Y-92561593D01*
X110060252Y-92763755D01*
X110060251Y-92763759D01*
X110027000Y-92973705D01*
X110027000Y-93186293D01*
X110060251Y-93396239D01*
X110060252Y-93396243D01*
X110125939Y-93598405D01*
X110125941Y-93598408D01*
X110222308Y-93787541D01*
X110222441Y-93787806D01*
X110222447Y-93787815D01*
X110222448Y-93787816D01*
X110222450Y-93787819D01*
X110347391Y-93959786D01*
X110347393Y-93959788D01*
X110347396Y-93959792D01*
X110497708Y-94110104D01*
X110497711Y-94110106D01*
X110497717Y-94110112D01*
X110498093Y-94110420D01*
X110499291Y-94111254D01*
X110669680Y-94235049D01*
X110669683Y-94235051D01*
X110669689Y-94235055D01*
X110669939Y-94235181D01*
X110708190Y-94254671D01*
X110733248Y-94272876D01*
X110741304Y-94280932D01*
X110748423Y-94294905D01*
X110751453Y-94297935D01*
X110752123Y-94302166D01*
X110769081Y-94335449D01*
X110759513Y-94395875D01*
X110758083Y-94398682D01*
X110714821Y-94441950D01*
X110714815Y-94441953D01*
X110670010Y-94464782D01*
X110669690Y-94464943D01*
X110669683Y-94464947D01*
X110497714Y-94589890D01*
X110347390Y-94740214D01*
X110222447Y-94912183D01*
X110222436Y-94912201D01*
X110222308Y-94912456D01*
X110125943Y-95101584D01*
X110125939Y-95101593D01*
X110060252Y-95303755D01*
X110060251Y-95303759D01*
X110027000Y-95513705D01*
X110027000Y-95726293D01*
X110060251Y-95936239D01*
X110060252Y-95936243D01*
X110125939Y-96138405D01*
X110125941Y-96138408D01*
X110222308Y-96327541D01*
X110222441Y-96327806D01*
X110222447Y-96327815D01*
X110222448Y-96327816D01*
X110222450Y-96327819D01*
X110347391Y-96499786D01*
X110347393Y-96499788D01*
X110347396Y-96499792D01*
X110497708Y-96650104D01*
X110497711Y-96650106D01*
X110497717Y-96650112D01*
X110498093Y-96650420D01*
X110499291Y-96651254D01*
X110669680Y-96775049D01*
X110669683Y-96775051D01*
X110669689Y-96775055D01*
X110669939Y-96775181D01*
X110708190Y-96794671D01*
X110733248Y-96812876D01*
X110741304Y-96820932D01*
X110748423Y-96834905D01*
X110751453Y-96837935D01*
X110752123Y-96842166D01*
X110769081Y-96875449D01*
X110759513Y-96935875D01*
X110758083Y-96938682D01*
X110714821Y-96981950D01*
X110714815Y-96981953D01*
X110670010Y-97004782D01*
X110669690Y-97004943D01*
X110669683Y-97004947D01*
X110497714Y-97129890D01*
X110347390Y-97280214D01*
X110222447Y-97452183D01*
X110222436Y-97452201D01*
X110222308Y-97452456D01*
X110125943Y-97641584D01*
X110125939Y-97641593D01*
X110060252Y-97843755D01*
X110060251Y-97843759D01*
X110027000Y-98053705D01*
X110027000Y-98266293D01*
X110060251Y-98476239D01*
X110060252Y-98476243D01*
X110125939Y-98678405D01*
X110125941Y-98678408D01*
X110222308Y-98867541D01*
X110222441Y-98867806D01*
X110222447Y-98867815D01*
X110222448Y-98867816D01*
X110222450Y-98867819D01*
X110347391Y-99039786D01*
X110347393Y-99039788D01*
X110347396Y-99039792D01*
X110497708Y-99190104D01*
X110497711Y-99190106D01*
X110497717Y-99190112D01*
X110498093Y-99190420D01*
X110499291Y-99191254D01*
X110669680Y-99315049D01*
X110669683Y-99315051D01*
X110669689Y-99315055D01*
X110669939Y-99315181D01*
X110708190Y-99334671D01*
X110733248Y-99352876D01*
X110741304Y-99360932D01*
X110748423Y-99374905D01*
X110751453Y-99377935D01*
X110752123Y-99382166D01*
X110769081Y-99415449D01*
X110759513Y-99475875D01*
X110758083Y-99478682D01*
X110714821Y-99521950D01*
X110714815Y-99521953D01*
X110670010Y-99544782D01*
X110669690Y-99544943D01*
X110669683Y-99544947D01*
X110497714Y-99669890D01*
X110347390Y-99820214D01*
X110222447Y-99992183D01*
X110222436Y-99992201D01*
X110222308Y-99992456D01*
X110125943Y-100181584D01*
X110125939Y-100181593D01*
X110060252Y-100383755D01*
X110060251Y-100383759D01*
X110027000Y-100593705D01*
X110027000Y-100806293D01*
X110060251Y-101016239D01*
X110060252Y-101016243D01*
X110125939Y-101218405D01*
X110125941Y-101218408D01*
X110222308Y-101407541D01*
X110222441Y-101407806D01*
X110222447Y-101407815D01*
X110222448Y-101407816D01*
X110222450Y-101407819D01*
X110347391Y-101579786D01*
X110347393Y-101579788D01*
X110347396Y-101579792D01*
X110497708Y-101730104D01*
X110497711Y-101730106D01*
X110497717Y-101730112D01*
X110498093Y-101730420D01*
X110499291Y-101731254D01*
X110669680Y-101855049D01*
X110669683Y-101855051D01*
X110669689Y-101855055D01*
X110669939Y-101855181D01*
X110859088Y-101951557D01*
X111061257Y-102017246D01*
X111061258Y-102017246D01*
X111061261Y-102017247D01*
X111195447Y-102038500D01*
X111271207Y-102050500D01*
X111483790Y-102050500D01*
X111483793Y-102050500D01*
X111567697Y-102037210D01*
X111693738Y-102017247D01*
X111693738Y-102017246D01*
X111693740Y-102017246D01*
X111693743Y-102017246D01*
X111693746Y-102017245D01*
X111696322Y-102016837D01*
X111701129Y-102014845D01*
X111895912Y-101951557D01*
X112085316Y-101855051D01*
X112257292Y-101730104D01*
X112407604Y-101579792D01*
X112532551Y-101407816D01*
X112629057Y-101218412D01*
X112694746Y-101016243D01*
X112697319Y-100999999D01*
X112713525Y-100897680D01*
X178540000Y-100897680D01*
X178540000Y-101102318D01*
X178572006Y-101304407D01*
X178635243Y-101499027D01*
X178728138Y-101681346D01*
X178728513Y-101681926D01*
X178729486Y-101683202D01*
X178760523Y-101725920D01*
X178760524Y-101725920D01*
X179326540Y-101159903D01*
X179381055Y-101132128D01*
X179441487Y-101141699D01*
X179482278Y-101180409D01*
X179519918Y-101245603D01*
X179519920Y-101245606D01*
X179594394Y-101320080D01*
X179611898Y-101330186D01*
X179659588Y-101357720D01*
X179700529Y-101403189D01*
X179706925Y-101464039D01*
X179680092Y-101513459D01*
X179114077Y-102079474D01*
X179114078Y-102079474D01*
X179114078Y-102079475D01*
X179158647Y-102111858D01*
X179158653Y-102111861D01*
X179340974Y-102204757D01*
X179340978Y-102204759D01*
X179535581Y-102267990D01*
X179535585Y-102267991D01*
X179737682Y-102300000D01*
X179942315Y-102300000D01*
X179942318Y-102300000D01*
X180144413Y-102267991D01*
X180144417Y-102267990D01*
X180339020Y-102204759D01*
X180339022Y-102204757D01*
X180339027Y-102204756D01*
X180521342Y-102111863D01*
X180521350Y-102111858D01*
X180565920Y-102079475D01*
X179999903Y-101513458D01*
X179972128Y-101458944D01*
X179981699Y-101398512D01*
X180020408Y-101357721D01*
X180085606Y-101320080D01*
X180160080Y-101245606D01*
X180197721Y-101180408D01*
X180243189Y-101139468D01*
X180304040Y-101133072D01*
X180353458Y-101159903D01*
X180919475Y-101725920D01*
X180951858Y-101681350D01*
X180951863Y-101681342D01*
X181044756Y-101499027D01*
X181044757Y-101499022D01*
X181044759Y-101499020D01*
X181107990Y-101304417D01*
X181107991Y-101304413D01*
X181140000Y-101102318D01*
X181140000Y-100897680D01*
X181107991Y-100695585D01*
X181107990Y-100695581D01*
X181044759Y-100500978D01*
X181044757Y-100500974D01*
X180951860Y-100318651D01*
X180951855Y-100318643D01*
X180951671Y-100318390D01*
X180919475Y-100274078D01*
X180919474Y-100274078D01*
X180353459Y-100840092D01*
X180298943Y-100867869D01*
X180238511Y-100858298D01*
X180197720Y-100819588D01*
X180160081Y-100754396D01*
X180160080Y-100754394D01*
X180085606Y-100679920D01*
X180085603Y-100679918D01*
X180020409Y-100642278D01*
X179979468Y-100596809D01*
X179973072Y-100535958D01*
X179999902Y-100486542D01*
X180565920Y-99920524D01*
X180565920Y-99920523D01*
X180523202Y-99889486D01*
X180521926Y-99888513D01*
X180521346Y-99888138D01*
X180339027Y-99795243D01*
X180144407Y-99732006D01*
X179942318Y-99700000D01*
X179942315Y-99700000D01*
X179737685Y-99700000D01*
X179737681Y-99700000D01*
X179535592Y-99732006D01*
X179340968Y-99795244D01*
X179158912Y-99888005D01*
X179158672Y-99888126D01*
X179158641Y-99888144D01*
X179114078Y-99920522D01*
X179114078Y-99920523D01*
X179680095Y-100486540D01*
X179707871Y-100541055D01*
X179698300Y-100601487D01*
X179659591Y-100642278D01*
X179594395Y-100679919D01*
X179519919Y-100754395D01*
X179482278Y-100819591D01*
X179436808Y-100860531D01*
X179375958Y-100866926D01*
X179326540Y-100840095D01*
X178760523Y-100274078D01*
X178760522Y-100274078D01*
X178728144Y-100318641D01*
X178728126Y-100318672D01*
X178728005Y-100318912D01*
X178635244Y-100500968D01*
X178572006Y-100695591D01*
X178540000Y-100897680D01*
X112713525Y-100897680D01*
X112716593Y-100878311D01*
X112722646Y-100840092D01*
X112728000Y-100806293D01*
X112728000Y-100593705D01*
X112694748Y-100383767D01*
X112694747Y-100383761D01*
X112694746Y-100383757D01*
X112629057Y-100181588D01*
X112532681Y-99992439D01*
X112532555Y-99992189D01*
X112532551Y-99992183D01*
X112480487Y-99920523D01*
X112407608Y-99820213D01*
X112407606Y-99820211D01*
X112407604Y-99820208D01*
X112257292Y-99669896D01*
X112257288Y-99669893D01*
X112257286Y-99669891D01*
X112085319Y-99544950D01*
X112085315Y-99544947D01*
X112085306Y-99544941D01*
X112085041Y-99544808D01*
X112054404Y-99529198D01*
X112054402Y-99529197D01*
X112046807Y-99525327D01*
X112021749Y-99507122D01*
X112013693Y-99499066D01*
X111985916Y-99444549D01*
X111995486Y-99384121D01*
X111996928Y-99381290D01*
X112040183Y-99338047D01*
X112046811Y-99334670D01*
X112085316Y-99315051D01*
X112257292Y-99190104D01*
X112407604Y-99039792D01*
X112532551Y-98867816D01*
X112629057Y-98678412D01*
X112694746Y-98476243D01*
X112694747Y-98476238D01*
X112728000Y-98266290D01*
X112728000Y-98053705D01*
X112694748Y-97843767D01*
X112694747Y-97843761D01*
X112694746Y-97843757D01*
X112629057Y-97641588D01*
X112532681Y-97452439D01*
X112532555Y-97452189D01*
X112532551Y-97452183D01*
X112532549Y-97452180D01*
X112407608Y-97280213D01*
X112407606Y-97280211D01*
X112407604Y-97280208D01*
X112257292Y-97129896D01*
X112257288Y-97129893D01*
X112257286Y-97129891D01*
X112085319Y-97004950D01*
X112085315Y-97004947D01*
X112085306Y-97004941D01*
X112085041Y-97004808D01*
X112054404Y-96989198D01*
X112054402Y-96989197D01*
X112046807Y-96985327D01*
X112021749Y-96967122D01*
X112013693Y-96959066D01*
X111985916Y-96904549D01*
X111995486Y-96844121D01*
X111996928Y-96841290D01*
X112040183Y-96798047D01*
X112046811Y-96794670D01*
X112085316Y-96775051D01*
X112257292Y-96650104D01*
X112407604Y-96499792D01*
X112532551Y-96327816D01*
X112629057Y-96138412D01*
X112694746Y-95936243D01*
X112694747Y-95936238D01*
X112728000Y-95726290D01*
X112728000Y-95513705D01*
X112694748Y-95303767D01*
X112694747Y-95303761D01*
X112694746Y-95303757D01*
X112629057Y-95101588D01*
X112532681Y-94912439D01*
X112532555Y-94912189D01*
X112532551Y-94912183D01*
X112532549Y-94912180D01*
X112407608Y-94740213D01*
X112407606Y-94740211D01*
X112407604Y-94740208D01*
X112257292Y-94589896D01*
X112257288Y-94589893D01*
X112257286Y-94589891D01*
X112085319Y-94464950D01*
X112085315Y-94464947D01*
X112085306Y-94464941D01*
X112085041Y-94464808D01*
X112054404Y-94449198D01*
X112054402Y-94449197D01*
X112046807Y-94445327D01*
X112021749Y-94427122D01*
X112013693Y-94419066D01*
X111985916Y-94364549D01*
X111995486Y-94304121D01*
X111996928Y-94301290D01*
X112040183Y-94258047D01*
X112046811Y-94254670D01*
X112085316Y-94235051D01*
X112257292Y-94110104D01*
X112407604Y-93959792D01*
X112532551Y-93787816D01*
X112629057Y-93598412D01*
X112694746Y-93396243D01*
X112694747Y-93396238D01*
X112728000Y-93186290D01*
X112728000Y-92973705D01*
X112694748Y-92763767D01*
X112694747Y-92763761D01*
X112694746Y-92763757D01*
X112629057Y-92561588D01*
X112532681Y-92372439D01*
X112532555Y-92372189D01*
X112532551Y-92372183D01*
X112532549Y-92372180D01*
X112407608Y-92200213D01*
X112407606Y-92200211D01*
X112407604Y-92200208D01*
X112257292Y-92049896D01*
X112257288Y-92049893D01*
X112257286Y-92049891D01*
X112085319Y-91924950D01*
X112085316Y-91924948D01*
X112085311Y-91924945D01*
X112061062Y-91912589D01*
X112046254Y-91905044D01*
X112021193Y-91886835D01*
X112013138Y-91878779D01*
X111985364Y-91824261D01*
X111994938Y-91763833D01*
X111996370Y-91761022D01*
X112039631Y-91717766D01*
X112046259Y-91714389D01*
X112085054Y-91694622D01*
X112139216Y-91655270D01*
X111610608Y-91126662D01*
X111582833Y-91072148D01*
X111592404Y-91011716D01*
X111631113Y-90970925D01*
X111684507Y-90940099D01*
X111777599Y-90847007D01*
X111808425Y-90793613D01*
X111853894Y-90752674D01*
X111914744Y-90746278D01*
X111964165Y-90773111D01*
X112492770Y-91301716D01*
X112532120Y-91247556D01*
X112628595Y-91058215D01*
X112694259Y-90856121D01*
X112696038Y-90844888D01*
X112727500Y-90646252D01*
X112727500Y-90433749D01*
X112726531Y-90427633D01*
X112723625Y-90409285D01*
X112721787Y-90397680D01*
X179700000Y-90397680D01*
X179700000Y-90602318D01*
X179732006Y-90804407D01*
X179795243Y-90999027D01*
X179888138Y-91181346D01*
X179888513Y-91181926D01*
X179889486Y-91183202D01*
X179920523Y-91225920D01*
X179920524Y-91225920D01*
X180486540Y-90659903D01*
X180541055Y-90632128D01*
X180601487Y-90641699D01*
X180642278Y-90680409D01*
X180642279Y-90680410D01*
X180679920Y-90745606D01*
X180754394Y-90820080D01*
X180754396Y-90820081D01*
X180819588Y-90857720D01*
X180860529Y-90903189D01*
X180866925Y-90964039D01*
X180840092Y-91013459D01*
X180274077Y-91579474D01*
X180274078Y-91579474D01*
X180274078Y-91579475D01*
X180318647Y-91611858D01*
X180318653Y-91611861D01*
X180500974Y-91704757D01*
X180500978Y-91704759D01*
X180695581Y-91767990D01*
X180695585Y-91767991D01*
X180897682Y-91800000D01*
X181102315Y-91800000D01*
X181102318Y-91800000D01*
X181304413Y-91767991D01*
X181304417Y-91767990D01*
X181499020Y-91704759D01*
X181499022Y-91704757D01*
X181499027Y-91704756D01*
X181681342Y-91611863D01*
X181681350Y-91611858D01*
X181725920Y-91579475D01*
X181159903Y-91013458D01*
X181132128Y-90958944D01*
X181141699Y-90898512D01*
X181180408Y-90857721D01*
X181245606Y-90820080D01*
X181320080Y-90745606D01*
X181357721Y-90680408D01*
X181403189Y-90639468D01*
X181464040Y-90633072D01*
X181513458Y-90659903D01*
X182079475Y-91225920D01*
X182111858Y-91181350D01*
X182111863Y-91181342D01*
X182204756Y-90999027D01*
X182204757Y-90999022D01*
X182204759Y-90999020D01*
X182267990Y-90804417D01*
X182267991Y-90804413D01*
X182300000Y-90602318D01*
X182300000Y-90397680D01*
X182267991Y-90195585D01*
X182267990Y-90195581D01*
X182204759Y-90000978D01*
X182204757Y-90000974D01*
X182111861Y-89818653D01*
X182111860Y-89818651D01*
X182111858Y-89818647D01*
X182079475Y-89774078D01*
X182079474Y-89774078D01*
X181513459Y-90340092D01*
X181458943Y-90367869D01*
X181398511Y-90358298D01*
X181357720Y-90319588D01*
X181320081Y-90254396D01*
X181320080Y-90254394D01*
X181245606Y-90179920D01*
X181245603Y-90179918D01*
X181180409Y-90142278D01*
X181139468Y-90096809D01*
X181133072Y-90035958D01*
X181159902Y-89986542D01*
X181725921Y-89420523D01*
X181713934Y-89411814D01*
X181683213Y-89389494D01*
X181681925Y-89388512D01*
X181681346Y-89388138D01*
X181545539Y-89318942D01*
X181499027Y-89295243D01*
X181464985Y-89284182D01*
X181304407Y-89232006D01*
X181102318Y-89200000D01*
X181102315Y-89200000D01*
X180897685Y-89200000D01*
X180897681Y-89200000D01*
X180695592Y-89232006D01*
X180500968Y-89295244D01*
X180318912Y-89388005D01*
X180318672Y-89388126D01*
X180318641Y-89388144D01*
X180274078Y-89420522D01*
X180274078Y-89420523D01*
X180840095Y-89986540D01*
X180867871Y-90041055D01*
X180858300Y-90101487D01*
X180819591Y-90142278D01*
X180754395Y-90179919D01*
X180679919Y-90254395D01*
X180642278Y-90319591D01*
X180596808Y-90360531D01*
X180535958Y-90366926D01*
X180486540Y-90340095D01*
X179920523Y-89774078D01*
X179920522Y-89774078D01*
X179888144Y-89818641D01*
X179888126Y-89818672D01*
X179888005Y-89818912D01*
X179795244Y-90000968D01*
X179732006Y-90195591D01*
X179700000Y-90397680D01*
X112721787Y-90397680D01*
X112707406Y-90306886D01*
X112694260Y-90223882D01*
X112685068Y-90195591D01*
X112628595Y-90021784D01*
X112532123Y-89832446D01*
X112532119Y-89832440D01*
X112532112Y-89832430D01*
X112492771Y-89778282D01*
X112492770Y-89778282D01*
X112492769Y-89778282D01*
X112492768Y-89778282D01*
X111964163Y-90306886D01*
X111909647Y-90334663D01*
X111849215Y-90325092D01*
X111808424Y-90286383D01*
X111789955Y-90254394D01*
X111777599Y-90232993D01*
X111684507Y-90139901D01*
X111631111Y-90109072D01*
X111590172Y-90063605D01*
X111583776Y-90002755D01*
X111610607Y-89953336D01*
X112152866Y-89411079D01*
X112152866Y-89411075D01*
X112155584Y-89406225D01*
X112177662Y-89379323D01*
X112182942Y-89374813D01*
X112227934Y-89352992D01*
X112230920Y-89352398D01*
X112238959Y-89351607D01*
X112239468Y-89351397D01*
X112239942Y-89351510D01*
X112250222Y-89350499D01*
X112275367Y-89350499D01*
X112275372Y-89350499D01*
X112334983Y-89344091D01*
X112402407Y-89318943D01*
X112468227Y-89294394D01*
X112471530Y-89293230D01*
X112475082Y-89292047D01*
X112482667Y-89284186D01*
X112585046Y-89207546D01*
X112671296Y-89092331D01*
X112721591Y-88957483D01*
X112728000Y-88897873D01*
X112727999Y-88540839D01*
X112744316Y-88486392D01*
X113584043Y-87211250D01*
X113596713Y-87195706D01*
X113777140Y-87015281D01*
X113886632Y-86851414D01*
X113962052Y-86669335D01*
X114000501Y-86476040D01*
X114000501Y-86278959D01*
X114000501Y-86274882D01*
X114000501Y-86272979D01*
X114000500Y-86272952D01*
X114000500Y-77901465D01*
X114000500Y-77901460D01*
X114000499Y-77901456D01*
X114000498Y-77901454D01*
X114000426Y-77900870D01*
X114000035Y-77899128D01*
X113962051Y-77708165D01*
X113886632Y-77526086D01*
X113777139Y-77362218D01*
X113777134Y-77362213D01*
X113777131Y-77362209D01*
X113635298Y-77220377D01*
X113621374Y-77206453D01*
X113621373Y-77206453D01*
X111777141Y-75362221D01*
X111777141Y-75362220D01*
X111637784Y-75222862D01*
X111591099Y-75191668D01*
X111473923Y-75113372D01*
X111473921Y-75113371D01*
X111473912Y-75113367D01*
X111436203Y-75097747D01*
X111436201Y-75097746D01*
X111436201Y-75097745D01*
X111354173Y-75063769D01*
X111354172Y-75063768D01*
X111354172Y-75063769D01*
X111345165Y-75060038D01*
X111345164Y-75060037D01*
X111291836Y-75037949D01*
X111291834Y-75037948D01*
X111164313Y-75012583D01*
X111098543Y-74999500D01*
X111098541Y-74999500D01*
X105378172Y-74999500D01*
X105359168Y-74996979D01*
X105359044Y-74997620D01*
X105355565Y-74996942D01*
X104136860Y-74848771D01*
X104132989Y-74848326D01*
X104077341Y-74822892D01*
X104047271Y-74769605D01*
X104054264Y-74708821D01*
X104095650Y-74663756D01*
X104133548Y-74652793D01*
X104133409Y-74651647D01*
X105355566Y-74503056D01*
X105366075Y-74501529D01*
X105380311Y-74500500D01*
X114678540Y-74500500D01*
X114678541Y-74500500D01*
X114805631Y-74475220D01*
X114871836Y-74462051D01*
X114925165Y-74439961D01*
X115053914Y-74386632D01*
X115217782Y-74277139D01*
X115357139Y-74137782D01*
X115357139Y-74137781D01*
X115371058Y-74123862D01*
X115371062Y-74123856D01*
X120019387Y-69475530D01*
X120034080Y-69463428D01*
X121171372Y-68697503D01*
X121181610Y-68692287D01*
X121201739Y-68677663D01*
X121213241Y-68669305D01*
X121279282Y-68624830D01*
X121297389Y-68612050D01*
X121298221Y-68611435D01*
X121323295Y-68589776D01*
X121329779Y-68584635D01*
X121347219Y-68571966D01*
X121491966Y-68427219D01*
X121590327Y-68291836D01*
X121612285Y-68261613D01*
X121612287Y-68261610D01*
X121626686Y-68233348D01*
X121629006Y-68229645D01*
X121630609Y-68228302D01*
X121636951Y-68218701D01*
X121641424Y-68213352D01*
X121834143Y-67901456D01*
X134999500Y-67901456D01*
X134999500Y-68098543D01*
X135018162Y-68192361D01*
X135031937Y-68261613D01*
X135036046Y-68282270D01*
X135036046Y-68282272D01*
X135036047Y-68282275D01*
X135037948Y-68291835D01*
X135113364Y-68473909D01*
X135113366Y-68473911D01*
X135113367Y-68473913D01*
X135113368Y-68473914D01*
X135222861Y-68637782D01*
X135362218Y-68777139D01*
X135526086Y-68886632D01*
X135708165Y-68962051D01*
X135901459Y-69000500D01*
X135901460Y-69000500D01*
X142978540Y-69000500D01*
X142978541Y-69000500D01*
X143075188Y-68981275D01*
X143171836Y-68962051D01*
X143225165Y-68939961D01*
X143353914Y-68886632D01*
X143517782Y-68777139D01*
X143657139Y-68637782D01*
X143657139Y-68637781D01*
X143671058Y-68623862D01*
X143671062Y-68623855D01*
X144122743Y-68172173D01*
X144138514Y-68160054D01*
X144138233Y-68159641D01*
X144141156Y-68157653D01*
X144141164Y-68157649D01*
X145094822Y-67404782D01*
X145097380Y-67402749D01*
X145097495Y-67402657D01*
X145097507Y-67402645D01*
X145097510Y-67402644D01*
X145120456Y-67382050D01*
X145124969Y-67378000D01*
X145127996Y-67375802D01*
X145128002Y-67375798D01*
X145133056Y-67370743D01*
X145140095Y-67364427D01*
X145140098Y-67364421D01*
X145140102Y-67364419D01*
X145143431Y-67360771D01*
X145143531Y-67360862D01*
X145147297Y-67356501D01*
X145255798Y-67248002D01*
X145362028Y-67101788D01*
X145444078Y-66940756D01*
X145499927Y-66768871D01*
X145499945Y-66768759D01*
X145505643Y-66732782D01*
X145528200Y-66590371D01*
X145528200Y-66409628D01*
X145528200Y-66409627D01*
X145771800Y-66409627D01*
X145771800Y-66590371D01*
X145800070Y-66768867D01*
X145800071Y-66768870D01*
X145855918Y-66940749D01*
X145855920Y-66940752D01*
X145937831Y-67101513D01*
X145937964Y-67101778D01*
X145937970Y-67101787D01*
X145937971Y-67101788D01*
X145937973Y-67101791D01*
X146044197Y-67247996D01*
X146044199Y-67247998D01*
X146044202Y-67248002D01*
X146171998Y-67375798D01*
X146172001Y-67375800D01*
X146172007Y-67375806D01*
X146172390Y-67376120D01*
X146173604Y-67376965D01*
X146317624Y-67481602D01*
X146318211Y-67482028D01*
X146318217Y-67482032D01*
X146318467Y-67482158D01*
X146479244Y-67564078D01*
X146651129Y-67619927D01*
X146651130Y-67619927D01*
X146651133Y-67619928D01*
X146680277Y-67624544D01*
X146829630Y-67648200D01*
X147010368Y-67648200D01*
X147010370Y-67648200D01*
X147083378Y-67636636D01*
X147188866Y-67619928D01*
X147188866Y-67619927D01*
X147188868Y-67619927D01*
X147188871Y-67619927D01*
X147188874Y-67619926D01*
X147191450Y-67619518D01*
X147196257Y-67617526D01*
X147360756Y-67564078D01*
X147521788Y-67482028D01*
X147522375Y-67481602D01*
X147666420Y-67376946D01*
X147667610Y-67376118D01*
X147667998Y-67375801D01*
X147667998Y-67375800D01*
X147668002Y-67375798D01*
X147795798Y-67248002D01*
X147891059Y-67116886D01*
X147902026Y-67101791D01*
X147902028Y-67101788D01*
X147984078Y-66940756D01*
X148039927Y-66768871D01*
X148039945Y-66768759D01*
X148045643Y-66732782D01*
X148068200Y-66590371D01*
X148068200Y-66409628D01*
X148039929Y-66231139D01*
X148039928Y-66231138D01*
X148039928Y-66231133D01*
X148032814Y-66209239D01*
X147984078Y-66059244D01*
X147902028Y-65898212D01*
X147902026Y-65898208D01*
X147796799Y-65753375D01*
X147796591Y-65753085D01*
X147796580Y-65753050D01*
X147796031Y-65752262D01*
X147795878Y-65752079D01*
X147795800Y-65752001D01*
X147795798Y-65751998D01*
X147668002Y-65624202D01*
X147667998Y-65624199D01*
X147667996Y-65624197D01*
X147522383Y-65518403D01*
X147521787Y-65517970D01*
X147521778Y-65517964D01*
X147521513Y-65517831D01*
X147366809Y-65439006D01*
X147360756Y-65435922D01*
X147360755Y-65435921D01*
X147360752Y-65435920D01*
X147360749Y-65435918D01*
X147188871Y-65380071D01*
X147188867Y-65380070D01*
X147010371Y-65351800D01*
X147010368Y-65351800D01*
X147010365Y-65351800D01*
X146829635Y-65351800D01*
X146829632Y-65351800D01*
X146829629Y-65351800D01*
X146651137Y-65380069D01*
X146479242Y-65435922D01*
X146318485Y-65517831D01*
X146318226Y-65517960D01*
X146318211Y-65517970D01*
X146172004Y-65624196D01*
X146044196Y-65752004D01*
X145937970Y-65898211D01*
X145937960Y-65898226D01*
X145937831Y-65898485D01*
X145855920Y-66059245D01*
X145855918Y-66059249D01*
X145800071Y-66231127D01*
X145800070Y-66231131D01*
X145771800Y-66409627D01*
X145528200Y-66409627D01*
X145499929Y-66231139D01*
X145499928Y-66231138D01*
X145499928Y-66231133D01*
X145492814Y-66209239D01*
X145444078Y-66059244D01*
X145362028Y-65898212D01*
X145362026Y-65898208D01*
X145256799Y-65753375D01*
X145256591Y-65753085D01*
X145256580Y-65753050D01*
X145256031Y-65752262D01*
X145255878Y-65752079D01*
X145255800Y-65752001D01*
X145255798Y-65751998D01*
X145128002Y-65624202D01*
X145127998Y-65624199D01*
X145127996Y-65624197D01*
X144982383Y-65518403D01*
X144981787Y-65517970D01*
X144981778Y-65517964D01*
X144981513Y-65517831D01*
X144826809Y-65439006D01*
X144820756Y-65435922D01*
X144820755Y-65435921D01*
X144820752Y-65435920D01*
X144820749Y-65435918D01*
X144648871Y-65380071D01*
X144648867Y-65380070D01*
X144470371Y-65351800D01*
X144470368Y-65351800D01*
X144470365Y-65351800D01*
X144289635Y-65351800D01*
X144289632Y-65351800D01*
X144289629Y-65351800D01*
X144111137Y-65380069D01*
X143939242Y-65435922D01*
X143778485Y-65517831D01*
X143778226Y-65517960D01*
X143778211Y-65517970D01*
X143632004Y-65624196D01*
X143504193Y-65752007D01*
X143496286Y-65762889D01*
X143484390Y-65776461D01*
X143475219Y-65785174D01*
X143122191Y-66232354D01*
X143071294Y-66266312D01*
X143010157Y-66263867D01*
X142962134Y-66225955D01*
X142950333Y-66201605D01*
X142904078Y-66059244D01*
X142822028Y-65898212D01*
X142822026Y-65898208D01*
X142716799Y-65753375D01*
X142716591Y-65753085D01*
X142716580Y-65753050D01*
X142716031Y-65752262D01*
X142715878Y-65752079D01*
X142715800Y-65752001D01*
X142715798Y-65751998D01*
X142588002Y-65624202D01*
X142587998Y-65624199D01*
X142587996Y-65624197D01*
X142579662Y-65618142D01*
X142569194Y-65609372D01*
X142552995Y-65593774D01*
X142552991Y-65593770D01*
X141783006Y-64985905D01*
X141602711Y-64843571D01*
X141602709Y-64843569D01*
X141602703Y-64843565D01*
X141598532Y-64840804D01*
X141583181Y-64828261D01*
X141360993Y-64606073D01*
X141057781Y-64302861D01*
X141057777Y-64302858D01*
X141057774Y-64302855D01*
X140975850Y-64248115D01*
X140893925Y-64193374D01*
X140893918Y-64193370D01*
X140711841Y-64117951D01*
X140711842Y-64117951D01*
X140711839Y-64117950D01*
X140711833Y-64117948D01*
X140615187Y-64098724D01*
X140518544Y-64079500D01*
X140518542Y-64079500D01*
X140518540Y-64079500D01*
X140321460Y-64079500D01*
X140321457Y-64079500D01*
X140321454Y-64079500D01*
X140176488Y-64108336D01*
X140128166Y-64117948D01*
X140128160Y-64117950D01*
X140128157Y-64117951D01*
X139946080Y-64193370D01*
X139946073Y-64193374D01*
X139782225Y-64302855D01*
X139782221Y-64302858D01*
X139642858Y-64442221D01*
X139642855Y-64442225D01*
X139533374Y-64606073D01*
X139533370Y-64606080D01*
X139457950Y-64788157D01*
X139457949Y-64788160D01*
X139426323Y-64947153D01*
X139396426Y-65000536D01*
X139340860Y-65026152D01*
X139280851Y-65014215D01*
X139267881Y-65005542D01*
X139061156Y-64842343D01*
X139051152Y-64834833D01*
X139040586Y-64825665D01*
X138590078Y-64375158D01*
X138426225Y-64265674D01*
X138426218Y-64265670D01*
X138244141Y-64190251D01*
X138244142Y-64190251D01*
X138244139Y-64190250D01*
X138244133Y-64190248D01*
X138147487Y-64171024D01*
X138050844Y-64151800D01*
X138050842Y-64151800D01*
X138050840Y-64151800D01*
X137853760Y-64151800D01*
X137853757Y-64151800D01*
X137853754Y-64151800D01*
X137708788Y-64180636D01*
X137660466Y-64190248D01*
X137660460Y-64190250D01*
X137660457Y-64190251D01*
X137478380Y-64265670D01*
X137478373Y-64265674D01*
X137314525Y-64375155D01*
X137314521Y-64375158D01*
X137175158Y-64514521D01*
X137175155Y-64514525D01*
X137065674Y-64678373D01*
X137065670Y-64678380D01*
X136990251Y-64860457D01*
X136990248Y-64860467D01*
X136951800Y-65053754D01*
X136951800Y-65237119D01*
X136946954Y-65267712D01*
X136942832Y-65280398D01*
X136906880Y-65329889D01*
X136902759Y-65332884D01*
X136844571Y-65351800D01*
X136056238Y-65351800D01*
X136050273Y-65353322D01*
X136013098Y-65357318D01*
X136004819Y-65358208D01*
X136004814Y-65358209D01*
X136004806Y-65358212D01*
X135869971Y-65408500D01*
X135754756Y-65494751D01*
X135754754Y-65494753D01*
X135668500Y-65609971D01*
X135618210Y-65744806D01*
X135618210Y-65744811D01*
X135618209Y-65744817D01*
X135611954Y-65803001D01*
X135611800Y-65804429D01*
X135611800Y-65804435D01*
X135611800Y-66996032D01*
X135606955Y-67026624D01*
X135602173Y-67041342D01*
X135569304Y-67088499D01*
X135561436Y-67094701D01*
X135538039Y-67108415D01*
X135526090Y-67113364D01*
X135526080Y-67113370D01*
X135362237Y-67222846D01*
X135362219Y-67222859D01*
X135222858Y-67362220D01*
X135113365Y-67526087D01*
X135113365Y-67526088D01*
X135037950Y-67708157D01*
X135036961Y-67713127D01*
X135033396Y-67731056D01*
X135002879Y-67884471D01*
X134999500Y-67901456D01*
X121834143Y-67901456D01*
X122346650Y-67072015D01*
X122360859Y-67054059D01*
X127874340Y-61540579D01*
X127899392Y-61522378D01*
X127921159Y-61511288D01*
X127966100Y-61500500D01*
X137778540Y-61500500D01*
X137778541Y-61500500D01*
X137875188Y-61481275D01*
X137971836Y-61462051D01*
X138025165Y-61439961D01*
X138153914Y-61386632D01*
X138317782Y-61277139D01*
X138457139Y-61137782D01*
X138457139Y-61137781D01*
X138471060Y-61123860D01*
X138471062Y-61123856D01*
X139042744Y-60552172D01*
X139058525Y-60540047D01*
X139058244Y-60539633D01*
X139061154Y-60537654D01*
X139061164Y-60537649D01*
X140014822Y-59784782D01*
X140017380Y-59782749D01*
X140017495Y-59782657D01*
X140017507Y-59782645D01*
X140017510Y-59782644D01*
X140040456Y-59762050D01*
X140044969Y-59758000D01*
X140047996Y-59755802D01*
X140048002Y-59755798D01*
X140053056Y-59750743D01*
X140060095Y-59744427D01*
X140060098Y-59744421D01*
X140060102Y-59744419D01*
X140063431Y-59740771D01*
X140063531Y-59740862D01*
X140067297Y-59736501D01*
X140175798Y-59628002D01*
X140282028Y-59481788D01*
X140364078Y-59320756D01*
X140419927Y-59148871D01*
X140419945Y-59148759D01*
X140424225Y-59121734D01*
X140448200Y-58970371D01*
X140448200Y-58789628D01*
X140448200Y-58789627D01*
X140691800Y-58789627D01*
X140691800Y-58970371D01*
X140720070Y-59148867D01*
X140720071Y-59148870D01*
X140775918Y-59320749D01*
X140775920Y-59320752D01*
X140857831Y-59481513D01*
X140857964Y-59481778D01*
X140857970Y-59481787D01*
X140857971Y-59481788D01*
X140857973Y-59481791D01*
X140964197Y-59627996D01*
X140964199Y-59627998D01*
X140964202Y-59628002D01*
X141091998Y-59755798D01*
X141092001Y-59755800D01*
X141092007Y-59755806D01*
X141092390Y-59756120D01*
X141093601Y-59756963D01*
X141237624Y-59861602D01*
X141238211Y-59862028D01*
X141238217Y-59862032D01*
X141238467Y-59862158D01*
X141399244Y-59944078D01*
X141571129Y-59999927D01*
X141571130Y-59999927D01*
X141571133Y-59999928D01*
X141607632Y-60005709D01*
X141749630Y-60028200D01*
X141930368Y-60028200D01*
X141930370Y-60028200D01*
X141985455Y-60019474D01*
X142108866Y-59999928D01*
X142108866Y-59999927D01*
X142108868Y-59999927D01*
X142108871Y-59999927D01*
X142108874Y-59999926D01*
X142111450Y-59999518D01*
X142116257Y-59997526D01*
X142280756Y-59944078D01*
X142441788Y-59862028D01*
X142442375Y-59861602D01*
X142586420Y-59756946D01*
X142587610Y-59756118D01*
X142587998Y-59755801D01*
X142587998Y-59755800D01*
X142588002Y-59755798D01*
X142715798Y-59628002D01*
X142723707Y-59617114D01*
X142735617Y-59603527D01*
X142744782Y-59594822D01*
X143098179Y-59147171D01*
X143109109Y-59139879D01*
X143116701Y-59129153D01*
X143133936Y-59123315D01*
X143149074Y-59113216D01*
X143162204Y-59113740D01*
X143174652Y-59109525D01*
X143192028Y-59114933D01*
X143210210Y-59115660D01*
X143220523Y-59123802D01*
X143233073Y-59127708D01*
X143243616Y-59142032D01*
X143258234Y-59153572D01*
X143269649Y-59176758D01*
X143269858Y-59177375D01*
X143316381Y-59320557D01*
X143316383Y-59320560D01*
X143322262Y-59332098D01*
X143322263Y-59332101D01*
X143398401Y-59481530D01*
X143398403Y-59481534D01*
X143409557Y-59496885D01*
X143409558Y-59496886D01*
X143871152Y-59035291D01*
X143925667Y-59007516D01*
X143986099Y-59017087D01*
X144026890Y-59055796D01*
X144061453Y-59115660D01*
X144064962Y-59121737D01*
X144138263Y-59195038D01*
X144204201Y-59233108D01*
X144245141Y-59278576D01*
X144251537Y-59339426D01*
X144224704Y-59388846D01*
X143763112Y-59850439D01*
X143763112Y-59850440D01*
X143778476Y-59861602D01*
X143934294Y-59940994D01*
X143935570Y-59941741D01*
X143939420Y-59943606D01*
X143939439Y-59943616D01*
X143939442Y-59943618D01*
X144111240Y-59999439D01*
X144111244Y-59999440D01*
X144111250Y-59999441D01*
X144289668Y-60027700D01*
X144470329Y-60027700D01*
X144470332Y-60027700D01*
X144615532Y-60004701D01*
X144648755Y-59999440D01*
X144648759Y-59999439D01*
X144820557Y-59943618D01*
X144820560Y-59943616D01*
X144820597Y-59943597D01*
X144824428Y-59941742D01*
X144825697Y-59940998D01*
X144981519Y-59861604D01*
X144981529Y-59861598D01*
X144996886Y-59850440D01*
X144535294Y-59388848D01*
X144507517Y-59334331D01*
X144517088Y-59273899D01*
X144555797Y-59233108D01*
X144621737Y-59195038D01*
X144695038Y-59121737D01*
X144733108Y-59055797D01*
X144778576Y-59014857D01*
X144839427Y-59008461D01*
X144888848Y-59035294D01*
X145350440Y-59496886D01*
X145361598Y-59481529D01*
X145361604Y-59481519D01*
X145440998Y-59325697D01*
X145441742Y-59324428D01*
X145443597Y-59320597D01*
X145443616Y-59320560D01*
X145443618Y-59320557D01*
X145499439Y-59148759D01*
X145499440Y-59148755D01*
X145506790Y-59102348D01*
X145527700Y-58970332D01*
X145527700Y-58789666D01*
X145499441Y-58611250D01*
X145499440Y-58611244D01*
X145499439Y-58611240D01*
X145443618Y-58439442D01*
X145443616Y-58439439D01*
X145443606Y-58439420D01*
X145441741Y-58435570D01*
X145440991Y-58434288D01*
X145429621Y-58411972D01*
X145361602Y-58278475D01*
X145283061Y-58170373D01*
X145269003Y-58142782D01*
X145268232Y-58140410D01*
X145265481Y-58131945D01*
X145265479Y-58070761D01*
X145301439Y-58021262D01*
X145304018Y-58019389D01*
X145362183Y-58000500D01*
X145929762Y-58000500D01*
X145960350Y-58005343D01*
X145971192Y-58008866D01*
X146000749Y-58030341D01*
X146020687Y-58044826D01*
X146020687Y-58044827D01*
X146020690Y-58044829D01*
X146030419Y-58074772D01*
X146039597Y-58103016D01*
X146039597Y-58106167D01*
X146020690Y-58164358D01*
X146020688Y-58164359D01*
X145937969Y-58278213D01*
X145937961Y-58278226D01*
X145937831Y-58278485D01*
X145855920Y-58439245D01*
X145855918Y-58439249D01*
X145800071Y-58611127D01*
X145800070Y-58611131D01*
X145771800Y-58789627D01*
X145771800Y-58970371D01*
X145800070Y-59148867D01*
X145800071Y-59148870D01*
X145855918Y-59320749D01*
X145855920Y-59320752D01*
X145937831Y-59481513D01*
X145937964Y-59481778D01*
X145937970Y-59481787D01*
X145937971Y-59481788D01*
X145937973Y-59481791D01*
X146044197Y-59627996D01*
X146044199Y-59627998D01*
X146044202Y-59628002D01*
X146171998Y-59755798D01*
X146172001Y-59755800D01*
X146172007Y-59755806D01*
X146172390Y-59756120D01*
X146173601Y-59756963D01*
X146317624Y-59861602D01*
X146318211Y-59862028D01*
X146318217Y-59862032D01*
X146318467Y-59862158D01*
X146479244Y-59944078D01*
X146651129Y-59999927D01*
X146651130Y-59999927D01*
X146651133Y-59999928D01*
X146687632Y-60005709D01*
X146829630Y-60028200D01*
X147010368Y-60028200D01*
X147010370Y-60028200D01*
X147065455Y-60019474D01*
X147188866Y-59999928D01*
X147188866Y-59999927D01*
X147188868Y-59999927D01*
X147188871Y-59999927D01*
X147188874Y-59999926D01*
X147191450Y-59999518D01*
X147196257Y-59997526D01*
X147360756Y-59944078D01*
X147521788Y-59862028D01*
X147522375Y-59861602D01*
X147666420Y-59756946D01*
X147667610Y-59756118D01*
X147667998Y-59755801D01*
X147667998Y-59755800D01*
X147668002Y-59755798D01*
X147795798Y-59628002D01*
X147891059Y-59496886D01*
X147902026Y-59481791D01*
X147902028Y-59481788D01*
X147984078Y-59320756D01*
X148039927Y-59148871D01*
X148039945Y-59148759D01*
X148044225Y-59121734D01*
X148068200Y-58970371D01*
X148068200Y-58789628D01*
X148039928Y-58611132D01*
X148039927Y-58611127D01*
X148024927Y-58564962D01*
X148024926Y-58564962D01*
X147984078Y-58439244D01*
X147902028Y-58278212D01*
X147902026Y-58278208D01*
X147823414Y-58170008D01*
X147823189Y-58169692D01*
X147822953Y-58168947D01*
X147809620Y-58142778D01*
X147807664Y-58136758D01*
X147806099Y-58131944D01*
X147806099Y-58115530D01*
X147804778Y-58111342D01*
X147806099Y-58107389D01*
X147806099Y-58070759D01*
X147842062Y-58021259D01*
X147842068Y-58021255D01*
X147844616Y-58019404D01*
X147902802Y-58000500D01*
X148469762Y-58000500D01*
X148500350Y-58005343D01*
X148511187Y-58008865D01*
X148560687Y-58044826D01*
X148579597Y-58103016D01*
X148579597Y-58106167D01*
X148560690Y-58164357D01*
X148477969Y-58278213D01*
X148477961Y-58278226D01*
X148477831Y-58278485D01*
X148395920Y-58439245D01*
X148395918Y-58439249D01*
X148340071Y-58611127D01*
X148340070Y-58611131D01*
X148311800Y-58789627D01*
X148311800Y-58970371D01*
X148340070Y-59148867D01*
X148340071Y-59148870D01*
X148395918Y-59320749D01*
X148395920Y-59320752D01*
X148477831Y-59481513D01*
X148477964Y-59481778D01*
X148477970Y-59481787D01*
X148477971Y-59481788D01*
X148477973Y-59481791D01*
X148584197Y-59627996D01*
X148584199Y-59627998D01*
X148584202Y-59628002D01*
X148711998Y-59755798D01*
X148712001Y-59755800D01*
X148712007Y-59755806D01*
X148712390Y-59756120D01*
X148713601Y-59756963D01*
X148857624Y-59861602D01*
X148858211Y-59862028D01*
X148858217Y-59862032D01*
X148858467Y-59862158D01*
X149019244Y-59944078D01*
X149191129Y-59999927D01*
X149191130Y-59999927D01*
X149191133Y-59999928D01*
X149227632Y-60005709D01*
X149369630Y-60028200D01*
X149550368Y-60028200D01*
X149550370Y-60028200D01*
X149605455Y-60019474D01*
X149728866Y-59999928D01*
X149728866Y-59999927D01*
X149728868Y-59999927D01*
X149728871Y-59999927D01*
X149728874Y-59999926D01*
X149731450Y-59999518D01*
X149736257Y-59997526D01*
X149900756Y-59944078D01*
X150061788Y-59862028D01*
X150062375Y-59861602D01*
X150206420Y-59756946D01*
X150207610Y-59756118D01*
X150207998Y-59755801D01*
X150207998Y-59755800D01*
X150208002Y-59755798D01*
X150335798Y-59628002D01*
X150431059Y-59496886D01*
X150442026Y-59481791D01*
X150442028Y-59481788D01*
X150524078Y-59320756D01*
X150579927Y-59148871D01*
X150579945Y-59148759D01*
X150584225Y-59121734D01*
X150608200Y-58970371D01*
X150608200Y-58789628D01*
X150579928Y-58611132D01*
X150579927Y-58611127D01*
X150564927Y-58564962D01*
X150564926Y-58564962D01*
X150524078Y-58439244D01*
X150442028Y-58278212D01*
X150442026Y-58278208D01*
X150363414Y-58170008D01*
X150363189Y-58169692D01*
X150362953Y-58168947D01*
X150349620Y-58142778D01*
X150347664Y-58136758D01*
X150346099Y-58131944D01*
X150346099Y-58115530D01*
X150344778Y-58111342D01*
X150346099Y-58107389D01*
X150346099Y-58070759D01*
X150382062Y-58021259D01*
X150382068Y-58021255D01*
X150384616Y-58019404D01*
X150442802Y-58000500D01*
X151009762Y-58000500D01*
X151040350Y-58005343D01*
X151051187Y-58008865D01*
X151100687Y-58044826D01*
X151119597Y-58103016D01*
X151119597Y-58106167D01*
X151100690Y-58164357D01*
X151017969Y-58278213D01*
X151017961Y-58278226D01*
X151017831Y-58278485D01*
X150935920Y-58439245D01*
X150935918Y-58439249D01*
X150880071Y-58611127D01*
X150880070Y-58611131D01*
X150851800Y-58789627D01*
X150851800Y-58970371D01*
X150880070Y-59148867D01*
X150880071Y-59148870D01*
X150935918Y-59320749D01*
X150935920Y-59320752D01*
X151017831Y-59481513D01*
X151017964Y-59481778D01*
X151017970Y-59481787D01*
X151017971Y-59481788D01*
X151017973Y-59481791D01*
X151124197Y-59627996D01*
X151124199Y-59627998D01*
X151124202Y-59628002D01*
X151251998Y-59755798D01*
X151252001Y-59755800D01*
X151252006Y-59755805D01*
X151252397Y-59756126D01*
X151253600Y-59756963D01*
X151262879Y-59763704D01*
X151276467Y-59775614D01*
X151285177Y-59784783D01*
X152238836Y-60537650D01*
X152248860Y-60545176D01*
X152259415Y-60554335D01*
X155459417Y-63754337D01*
X155477622Y-63779395D01*
X155488709Y-63801154D01*
X155499500Y-63846100D01*
X155499500Y-65837364D01*
X155494654Y-65867957D01*
X155487107Y-65891184D01*
X155462956Y-65930595D01*
X155048846Y-66344704D01*
X154994330Y-66372481D01*
X154933898Y-66362910D01*
X154893108Y-66324202D01*
X154855038Y-66258263D01*
X154781737Y-66184962D01*
X154781734Y-66184960D01*
X154715796Y-66146890D01*
X154674856Y-66101420D01*
X154668461Y-66040570D01*
X154695291Y-65991152D01*
X155156886Y-65529558D01*
X155156885Y-65529557D01*
X155141534Y-65518403D01*
X155141530Y-65518401D01*
X154985710Y-65439007D01*
X154984430Y-65438258D01*
X154980559Y-65436382D01*
X154980557Y-65436381D01*
X154894749Y-65408500D01*
X154808754Y-65380558D01*
X154808749Y-65380557D01*
X154630332Y-65352300D01*
X154630329Y-65352300D01*
X154449671Y-65352300D01*
X154449668Y-65352300D01*
X154271249Y-65380557D01*
X154271244Y-65380558D01*
X154099442Y-65436381D01*
X154095558Y-65438262D01*
X154094288Y-65439006D01*
X153937748Y-65518768D01*
X153926457Y-65521478D01*
X153923111Y-65529558D01*
X153923112Y-65529559D01*
X153923111Y-65529559D01*
X154384704Y-65991150D01*
X154384705Y-65991151D01*
X154412482Y-66045668D01*
X154402911Y-66106100D01*
X154364202Y-66146891D01*
X154298265Y-66184960D01*
X154224958Y-66258267D01*
X154186892Y-66324200D01*
X154141422Y-66365141D01*
X154080572Y-66371536D01*
X154031152Y-66344704D01*
X153819578Y-66133130D01*
X153569559Y-65883111D01*
X153569558Y-65883111D01*
X153561479Y-65886457D01*
X153558769Y-65897747D01*
X153479007Y-66054288D01*
X153478258Y-66055566D01*
X153476381Y-66059442D01*
X153420558Y-66231244D01*
X153420557Y-66231249D01*
X153392300Y-66409666D01*
X153392300Y-66590328D01*
X153392299Y-66590330D01*
X153420557Y-66768749D01*
X153420558Y-66768754D01*
X153424557Y-66781060D01*
X153464261Y-66903257D01*
X153476381Y-66940556D01*
X153478258Y-66944430D01*
X153479007Y-66945710D01*
X153558401Y-67101530D01*
X153558403Y-67101534D01*
X153569557Y-67116885D01*
X153569558Y-67116886D01*
X154031152Y-66655291D01*
X154085667Y-66627516D01*
X154146099Y-66637087D01*
X154186890Y-66675796D01*
X154224960Y-66741734D01*
X154224962Y-66741737D01*
X154298263Y-66815038D01*
X154364201Y-66853108D01*
X154405141Y-66898576D01*
X154411537Y-66959426D01*
X154384704Y-67008846D01*
X153923112Y-67470439D01*
X153923112Y-67470440D01*
X153938476Y-67481602D01*
X154094294Y-67560994D01*
X154095570Y-67561741D01*
X154099420Y-67563606D01*
X154099439Y-67563616D01*
X154099442Y-67563618D01*
X154271240Y-67619439D01*
X154271244Y-67619440D01*
X154271250Y-67619441D01*
X154449668Y-67647700D01*
X154630329Y-67647700D01*
X154630332Y-67647700D01*
X154791828Y-67622121D01*
X154808755Y-67619440D01*
X154808759Y-67619439D01*
X154980557Y-67563618D01*
X154980560Y-67563616D01*
X154980597Y-67563597D01*
X154984428Y-67561742D01*
X154985697Y-67560998D01*
X155141519Y-67481604D01*
X155141529Y-67481598D01*
X155156886Y-67470440D01*
X154695294Y-67008848D01*
X154667517Y-66954331D01*
X154677088Y-66893899D01*
X154715797Y-66853108D01*
X154781737Y-66815038D01*
X154855038Y-66741737D01*
X154893108Y-66675797D01*
X154938576Y-66634857D01*
X154999427Y-66628461D01*
X155048848Y-66655294D01*
X155459417Y-67065863D01*
X155477622Y-67090921D01*
X155488709Y-67112680D01*
X155499500Y-67157626D01*
X155499500Y-67528890D01*
X155494654Y-67559483D01*
X155487107Y-67582710D01*
X155462957Y-67622121D01*
X152125662Y-70959417D01*
X152100605Y-70977621D01*
X152078847Y-70988708D01*
X152033900Y-70999500D01*
X149147034Y-70999500D01*
X149116434Y-70994652D01*
X149108594Y-70992104D01*
X149059097Y-70956137D01*
X149040194Y-70897945D01*
X149059101Y-70839762D01*
X149062900Y-70834533D01*
X149087990Y-70810408D01*
X149137782Y-70777139D01*
X149277139Y-70637782D01*
X149277139Y-70637780D01*
X149282776Y-70632144D01*
X149282777Y-70632141D01*
X149291060Y-70623859D01*
X149291061Y-70623856D01*
X151277139Y-68637781D01*
X151277138Y-68637781D01*
X151742744Y-68172172D01*
X151758525Y-68160047D01*
X151758244Y-68159633D01*
X151761154Y-68157654D01*
X151761164Y-68157649D01*
X152714822Y-67404782D01*
X152717380Y-67402749D01*
X152717495Y-67402657D01*
X152717507Y-67402645D01*
X152717510Y-67402644D01*
X152740456Y-67382050D01*
X152744969Y-67378000D01*
X152747996Y-67375802D01*
X152748002Y-67375798D01*
X152753056Y-67370743D01*
X152760095Y-67364427D01*
X152760098Y-67364421D01*
X152760102Y-67364419D01*
X152763431Y-67360771D01*
X152763531Y-67360862D01*
X152767297Y-67356501D01*
X152875798Y-67248002D01*
X152982028Y-67101788D01*
X153064078Y-66940756D01*
X153119927Y-66768871D01*
X153119945Y-66768759D01*
X153125643Y-66732782D01*
X153148200Y-66590371D01*
X153148200Y-66409628D01*
X153119929Y-66231139D01*
X153119928Y-66231138D01*
X153119928Y-66231133D01*
X153112814Y-66209239D01*
X153064078Y-66059244D01*
X152982028Y-65898212D01*
X152982026Y-65898208D01*
X152876799Y-65753375D01*
X152876591Y-65753085D01*
X152876580Y-65753050D01*
X152876031Y-65752262D01*
X152875878Y-65752079D01*
X152875800Y-65752001D01*
X152875798Y-65751998D01*
X152748002Y-65624202D01*
X152747998Y-65624199D01*
X152747996Y-65624197D01*
X152602383Y-65518403D01*
X152601787Y-65517970D01*
X152601778Y-65517964D01*
X152601513Y-65517831D01*
X152446809Y-65439006D01*
X152440756Y-65435922D01*
X152440755Y-65435921D01*
X152440752Y-65435920D01*
X152440749Y-65435918D01*
X152268871Y-65380071D01*
X152268867Y-65380070D01*
X152090371Y-65351800D01*
X152090368Y-65351800D01*
X152090365Y-65351800D01*
X151909635Y-65351800D01*
X151909632Y-65351800D01*
X151909629Y-65351800D01*
X151731137Y-65380069D01*
X151559242Y-65435922D01*
X151398485Y-65517831D01*
X151398226Y-65517960D01*
X151398211Y-65517970D01*
X151252004Y-65624196D01*
X151124193Y-65752007D01*
X151116286Y-65762889D01*
X151104390Y-65776461D01*
X151095219Y-65785174D01*
X150742191Y-66232354D01*
X150691294Y-66266312D01*
X150630157Y-66263867D01*
X150582134Y-66225955D01*
X150570333Y-66201605D01*
X150524078Y-66059244D01*
X150442028Y-65898212D01*
X150442026Y-65898208D01*
X150336799Y-65753375D01*
X150336591Y-65753085D01*
X150336580Y-65753050D01*
X150336031Y-65752262D01*
X150335878Y-65752079D01*
X150335800Y-65752001D01*
X150335798Y-65751998D01*
X150208002Y-65624202D01*
X150207998Y-65624199D01*
X150207996Y-65624197D01*
X150062383Y-65518403D01*
X150061787Y-65517970D01*
X150061778Y-65517964D01*
X150061513Y-65517831D01*
X149906809Y-65439006D01*
X149900756Y-65435922D01*
X149900755Y-65435921D01*
X149900752Y-65435920D01*
X149900749Y-65435918D01*
X149728871Y-65380071D01*
X149728867Y-65380070D01*
X149550371Y-65351800D01*
X149550368Y-65351800D01*
X149550365Y-65351800D01*
X149369635Y-65351800D01*
X149369632Y-65351800D01*
X149369629Y-65351800D01*
X149191137Y-65380069D01*
X149019242Y-65435922D01*
X148858485Y-65517831D01*
X148858226Y-65517960D01*
X148858211Y-65517970D01*
X148712004Y-65624196D01*
X148584196Y-65752004D01*
X148477970Y-65898211D01*
X148477960Y-65898226D01*
X148477831Y-65898485D01*
X148395920Y-66059245D01*
X148395918Y-66059249D01*
X148340071Y-66231127D01*
X148340070Y-66231131D01*
X148311800Y-66409627D01*
X148311800Y-66590371D01*
X148340070Y-66768867D01*
X148340071Y-66768870D01*
X148395918Y-66940749D01*
X148395920Y-66940752D01*
X148477831Y-67101513D01*
X148477964Y-67101778D01*
X148477970Y-67101787D01*
X148477971Y-67101788D01*
X148477973Y-67101791D01*
X148584197Y-67247996D01*
X148584199Y-67247998D01*
X148584202Y-67248002D01*
X148711998Y-67375798D01*
X148712001Y-67375800D01*
X148712007Y-67375806D01*
X148712390Y-67376120D01*
X148713604Y-67376965D01*
X148857624Y-67481602D01*
X148858211Y-67482028D01*
X148858217Y-67482032D01*
X148858467Y-67482158D01*
X149019244Y-67564078D01*
X149191129Y-67619927D01*
X149191130Y-67619927D01*
X149191133Y-67619928D01*
X149220295Y-67624546D01*
X149249746Y-67634116D01*
X149259901Y-67639290D01*
X149303165Y-67682556D01*
X149312737Y-67742973D01*
X149312245Y-67746082D01*
X149284475Y-67800602D01*
X149284466Y-67800612D01*
X148125662Y-68959417D01*
X148100605Y-68977621D01*
X148078847Y-68988708D01*
X148033900Y-68999500D01*
X145401455Y-68999500D01*
X145320027Y-69015697D01*
X145217727Y-69036047D01*
X145217720Y-69036047D01*
X145208161Y-69037948D01*
X145026088Y-69113365D01*
X145026087Y-69113365D01*
X144862220Y-69222858D01*
X144722858Y-69362220D01*
X144613365Y-69526087D01*
X144613365Y-69526088D01*
X144537950Y-69708158D01*
X144537950Y-69708159D01*
X144537949Y-69708166D01*
X144499500Y-69901455D01*
X144499500Y-70098543D01*
X144536047Y-70282271D01*
X144536047Y-70282275D01*
X144537948Y-70291837D01*
X144613364Y-70473909D01*
X144613366Y-70473911D01*
X144613367Y-70473913D01*
X144613368Y-70473914D01*
X144722861Y-70637782D01*
X144862218Y-70777139D01*
X145026086Y-70886632D01*
X145208165Y-70962051D01*
X145401459Y-71000500D01*
X146852966Y-71000500D01*
X146883558Y-71005345D01*
X146891397Y-71007892D01*
X146940897Y-71043856D01*
X146959805Y-71102046D01*
X146940898Y-71160237D01*
X146937099Y-71165466D01*
X146912009Y-71189591D01*
X146862217Y-71222861D01*
X146722858Y-71362220D01*
X146613365Y-71526087D01*
X146613365Y-71526088D01*
X146537950Y-71708158D01*
X146537950Y-71708159D01*
X146537949Y-71708161D01*
X146537949Y-71708163D01*
X146537949Y-71708165D01*
X146499500Y-71901456D01*
X146499500Y-72098543D01*
X146533506Y-72269500D01*
X146536047Y-72282271D01*
X146536047Y-72282275D01*
X146537948Y-72291837D01*
X146613364Y-72473909D01*
X146613366Y-72473911D01*
X146613367Y-72473913D01*
X146629208Y-72497620D01*
X146722861Y-72637782D01*
X146862218Y-72777139D01*
X147026086Y-72886632D01*
X147208165Y-72962051D01*
X147401459Y-73000500D01*
X147401460Y-73000500D01*
X152598540Y-73000500D01*
X152598541Y-73000500D01*
X152695188Y-72981275D01*
X152791836Y-72962051D01*
X152845165Y-72939961D01*
X152973914Y-72886632D01*
X153137782Y-72777139D01*
X153277139Y-72637782D01*
X153277139Y-72637781D01*
X153291058Y-72623862D01*
X153291061Y-72623856D01*
X157277139Y-68637782D01*
X157291328Y-68616547D01*
X157386632Y-68473914D01*
X157462051Y-68291835D01*
X157500500Y-68098541D01*
X157500500Y-63281459D01*
X157462051Y-63088165D01*
X157386632Y-62906086D01*
X157277139Y-62742218D01*
X157277134Y-62742213D01*
X157277131Y-62742209D01*
X157135298Y-62600377D01*
X157121374Y-62586453D01*
X157121373Y-62586453D01*
X154720790Y-60185870D01*
X154702584Y-60160810D01*
X154697413Y-60150661D01*
X154687842Y-60090229D01*
X154700479Y-60065427D01*
X154715617Y-60035715D01*
X154717848Y-60033484D01*
X154772361Y-60005709D01*
X154808865Y-59999928D01*
X154808865Y-59999927D01*
X154808871Y-59999927D01*
X154980756Y-59944078D01*
X155141788Y-59862028D01*
X155142375Y-59861602D01*
X155286420Y-59756946D01*
X155287610Y-59756118D01*
X155287998Y-59755801D01*
X155287998Y-59755800D01*
X155288002Y-59755798D01*
X155415798Y-59628002D01*
X155511059Y-59496886D01*
X155522026Y-59481791D01*
X155522028Y-59481788D01*
X155604078Y-59320756D01*
X155659927Y-59148871D01*
X155659945Y-59148759D01*
X155664225Y-59121734D01*
X155688200Y-58970371D01*
X155688200Y-58789628D01*
X155659928Y-58611132D01*
X155659927Y-58611127D01*
X155644927Y-58564962D01*
X155644926Y-58564962D01*
X155604078Y-58439244D01*
X155522153Y-58278458D01*
X155522057Y-58278259D01*
X155522024Y-58278205D01*
X155443680Y-58170373D01*
X155431416Y-58147837D01*
X155430452Y-58145341D01*
X155429620Y-58142779D01*
X155429285Y-58142319D01*
X155427139Y-58136758D01*
X155425742Y-58111044D01*
X155421715Y-58085617D01*
X155424106Y-58080923D01*
X155423821Y-58075663D01*
X155437802Y-58054043D01*
X155449492Y-58031101D01*
X155455427Y-58026789D01*
X155457047Y-58024285D01*
X155460947Y-58022779D01*
X155474562Y-58012889D01*
X155477711Y-58011285D01*
X155512110Y-58003028D01*
X155514127Y-58002250D01*
X155514709Y-58002404D01*
X155522645Y-58000500D01*
X155528892Y-58000500D01*
X155559483Y-58005345D01*
X155567760Y-58008034D01*
X155582709Y-58012891D01*
X155592977Y-58019183D01*
X155600523Y-58020687D01*
X155607163Y-58027875D01*
X155622122Y-58037042D01*
X157959417Y-60374337D01*
X157977622Y-60399395D01*
X157988709Y-60421154D01*
X157999500Y-60466100D01*
X157999500Y-70598541D01*
X158007306Y-70637783D01*
X158037949Y-70791837D01*
X158037950Y-70791840D01*
X158048863Y-70818185D01*
X158054733Y-70832358D01*
X158060038Y-70845164D01*
X158060038Y-70845165D01*
X158086185Y-70908291D01*
X158086186Y-70908291D01*
X158086186Y-70908292D01*
X158111955Y-70970504D01*
X158113372Y-70973923D01*
X158171523Y-71060950D01*
X158176840Y-71068907D01*
X158222861Y-71137782D01*
X158222864Y-71137785D01*
X158222868Y-71137790D01*
X158224261Y-71139183D01*
X158224262Y-71139184D01*
X158362219Y-71277140D01*
X158362220Y-71277140D01*
X161132219Y-74047140D01*
X161296086Y-74156632D01*
X161478165Y-74232052D01*
X161671460Y-74270501D01*
X161671461Y-74270501D01*
X161873421Y-74270501D01*
X161874618Y-74270501D01*
X161874698Y-74270500D01*
X173509806Y-74270500D01*
X173528765Y-74272331D01*
X174558932Y-74473342D01*
X174584222Y-74487385D01*
X174609975Y-74500507D01*
X174610811Y-74502149D01*
X174612423Y-74503044D01*
X174624625Y-74529260D01*
X174637752Y-74555023D01*
X174637463Y-74556842D01*
X174638242Y-74558515D01*
X174632701Y-74586910D01*
X174628180Y-74615455D01*
X174626877Y-74616757D01*
X174626524Y-74618568D01*
X174584916Y-74658720D01*
X174508664Y-74697572D01*
X174508398Y-74697705D01*
X174508380Y-74697716D01*
X174342789Y-74818026D01*
X174198026Y-74962789D01*
X174077716Y-75128380D01*
X174077701Y-75128404D01*
X174077572Y-75128663D01*
X173984780Y-75310779D01*
X173921519Y-75505474D01*
X173889500Y-75707640D01*
X173889500Y-75912358D01*
X173921519Y-76114524D01*
X173984780Y-76309219D01*
X174077572Y-76491335D01*
X174077705Y-76491600D01*
X174077716Y-76491618D01*
X174198029Y-76657213D01*
X174198031Y-76657215D01*
X174198034Y-76657219D01*
X174342781Y-76801966D01*
X174342784Y-76801968D01*
X174342787Y-76801971D01*
X174343176Y-76802290D01*
X174344376Y-76803125D01*
X174508386Y-76922285D01*
X174508389Y-76922287D01*
X174508395Y-76922291D01*
X174508645Y-76922417D01*
X174690781Y-77015220D01*
X174885466Y-77078477D01*
X174885467Y-77078477D01*
X174885470Y-77078478D01*
X175039006Y-77102796D01*
X175087643Y-77110500D01*
X175292355Y-77110500D01*
X175292357Y-77110500D01*
X175354642Y-77100634D01*
X175494529Y-77078478D01*
X175494529Y-77078477D01*
X175494531Y-77078477D01*
X175494534Y-77078477D01*
X175494537Y-77078476D01*
X175497113Y-77078068D01*
X175501920Y-77076076D01*
X175689219Y-77015220D01*
X175871610Y-76922287D01*
X176037219Y-76801966D01*
X176181966Y-76657219D01*
X176302287Y-76491610D01*
X176395220Y-76309219D01*
X176458477Y-76114534D01*
X176462226Y-76090864D01*
X176490500Y-75912355D01*
X176490500Y-75707644D01*
X176490499Y-75707640D01*
X176466612Y-75556824D01*
X176458478Y-75505470D01*
X176422553Y-75394904D01*
X176395220Y-75310781D01*
X176302417Y-75128645D01*
X176302291Y-75128395D01*
X176302287Y-75128389D01*
X176302285Y-75128386D01*
X176181970Y-74962786D01*
X176181968Y-74962784D01*
X176181966Y-74962781D01*
X176037219Y-74818034D01*
X176037215Y-74818031D01*
X176037213Y-74818029D01*
X175970563Y-74769605D01*
X175871618Y-74697716D01*
X175871603Y-74697707D01*
X175871334Y-74697572D01*
X175782323Y-74652219D01*
X175782322Y-74652218D01*
X175749172Y-74635327D01*
X175724114Y-74617122D01*
X175716058Y-74609066D01*
X175688281Y-74554549D01*
X175697851Y-74494120D01*
X175699287Y-74491302D01*
X175742546Y-74448047D01*
X175871610Y-74382287D01*
X175873923Y-74380607D01*
X176025471Y-74270501D01*
X176037219Y-74261966D01*
X176181966Y-74117219D01*
X176302287Y-73951610D01*
X176395220Y-73769219D01*
X176443225Y-73621469D01*
X176457286Y-73593875D01*
X176463985Y-73584655D01*
X176513484Y-73548695D01*
X176574661Y-73548693D01*
X176580360Y-73550544D01*
X176619776Y-73574697D01*
X176952860Y-73907781D01*
X176952861Y-73907782D01*
X177092218Y-74047139D01*
X177256086Y-74156632D01*
X177307789Y-74178048D01*
X177359491Y-74199464D01*
X177392078Y-74212961D01*
X177392079Y-74212962D01*
X177421139Y-74224998D01*
X177438164Y-74232051D01*
X177631459Y-74270500D01*
X181129804Y-74270500D01*
X181148764Y-74272332D01*
X182178929Y-74473343D01*
X182204220Y-74487386D01*
X182229973Y-74500508D01*
X182230809Y-74502150D01*
X182232421Y-74503045D01*
X182244623Y-74529261D01*
X182257750Y-74555024D01*
X182257461Y-74556843D01*
X182258240Y-74558516D01*
X182252699Y-74586911D01*
X182248178Y-74615456D01*
X182246875Y-74616758D01*
X182246522Y-74618569D01*
X182204915Y-74658720D01*
X182204914Y-74658721D01*
X182128664Y-74697572D01*
X182128398Y-74697705D01*
X182128380Y-74697716D01*
X181962789Y-74818026D01*
X181818026Y-74962789D01*
X181697716Y-75128380D01*
X181697701Y-75128404D01*
X181697572Y-75128663D01*
X181604780Y-75310779D01*
X181541519Y-75505474D01*
X181509500Y-75707640D01*
X181509500Y-75912358D01*
X181541519Y-76114524D01*
X181604780Y-76309219D01*
X181697572Y-76491335D01*
X181697705Y-76491600D01*
X181697716Y-76491618D01*
X181818029Y-76657213D01*
X181818031Y-76657215D01*
X181818034Y-76657219D01*
X181956976Y-76796161D01*
X181971376Y-76814427D01*
X181984908Y-76836506D01*
X181999500Y-76888238D01*
X181999500Y-79528890D01*
X181994654Y-79559483D01*
X181987107Y-79582710D01*
X181962957Y-79622121D01*
X180222858Y-81362220D01*
X180113365Y-81526087D01*
X180113365Y-81526088D01*
X180037950Y-81708158D01*
X180037950Y-81708159D01*
X180037949Y-81708166D01*
X179999500Y-81901455D01*
X179999500Y-83819796D01*
X179997667Y-83838756D01*
X179736220Y-85178641D01*
X179736221Y-85178642D01*
X179735067Y-85184553D01*
X179731521Y-85195470D01*
X179725410Y-85234046D01*
X179725073Y-85235777D01*
X179710153Y-85312244D01*
X179706341Y-85334388D01*
X179706192Y-85335388D01*
X179706189Y-85335413D01*
X179703798Y-85368245D01*
X179702842Y-85376535D01*
X179699500Y-85397642D01*
X179699500Y-85602358D01*
X179731519Y-85804524D01*
X179794780Y-85999219D01*
X179887572Y-86181335D01*
X179887705Y-86181600D01*
X179887716Y-86181618D01*
X179999408Y-86335347D01*
X180008029Y-86347213D01*
X180008031Y-86347215D01*
X180008034Y-86347219D01*
X180152781Y-86491966D01*
X180152784Y-86491968D01*
X180152787Y-86491971D01*
X180153176Y-86492290D01*
X180154376Y-86493125D01*
X180318386Y-86612285D01*
X180318389Y-86612287D01*
X180318395Y-86612291D01*
X180318645Y-86612417D01*
X180500781Y-86705220D01*
X180695466Y-86768477D01*
X180695467Y-86768477D01*
X180695470Y-86768478D01*
X180846820Y-86792450D01*
X180897643Y-86800500D01*
X181102355Y-86800500D01*
X181102357Y-86800500D01*
X181164642Y-86790634D01*
X181304529Y-86768478D01*
X181304529Y-86768477D01*
X181304531Y-86768477D01*
X181304534Y-86768477D01*
X181304537Y-86768476D01*
X181307113Y-86768068D01*
X181311920Y-86766076D01*
X181499219Y-86705220D01*
X181681610Y-86612287D01*
X181847219Y-86491966D01*
X181991966Y-86347219D01*
X182112287Y-86181610D01*
X182205220Y-85999219D01*
X182268477Y-85804534D01*
X182268479Y-85804524D01*
X182300500Y-85602355D01*
X182300500Y-85397643D01*
X182299531Y-85391527D01*
X182291164Y-85338701D01*
X182289842Y-85312227D01*
X182274592Y-85234073D01*
X182268478Y-85195470D01*
X182268477Y-85195466D01*
X182266785Y-85190259D01*
X182263776Y-85178642D01*
X182002332Y-83838756D01*
X182000500Y-83819797D01*
X182000500Y-82471107D01*
X182005344Y-82440518D01*
X182012891Y-82417287D01*
X182037040Y-82377878D01*
X183623856Y-80791061D01*
X183623862Y-80791058D01*
X183637781Y-80777139D01*
X183637782Y-80777139D01*
X183777139Y-80637782D01*
X183886632Y-80473914D01*
X183962051Y-80291835D01*
X184000500Y-80098541D01*
X184000500Y-76373592D01*
X184003235Y-76350482D01*
X184008557Y-76328317D01*
X184014210Y-76313017D01*
X184013729Y-76312818D01*
X184015212Y-76309233D01*
X184015220Y-76309219D01*
X184078477Y-76114534D01*
X184082226Y-76090864D01*
X184110500Y-75912355D01*
X184110500Y-75707644D01*
X184110499Y-75707640D01*
X184086612Y-75556824D01*
X184078478Y-75505470D01*
X184042553Y-75394904D01*
X184015220Y-75310781D01*
X183922417Y-75128645D01*
X183922291Y-75128395D01*
X183922287Y-75128389D01*
X183922285Y-75128386D01*
X183801970Y-74962786D01*
X183801968Y-74962784D01*
X183801966Y-74962781D01*
X183657219Y-74818034D01*
X183657215Y-74818031D01*
X183657213Y-74818029D01*
X183590563Y-74769605D01*
X183491618Y-74697716D01*
X183491603Y-74697707D01*
X183491334Y-74697572D01*
X183402323Y-74652219D01*
X183402322Y-74652218D01*
X183369172Y-74635327D01*
X183344114Y-74617122D01*
X183336058Y-74609066D01*
X183308281Y-74554549D01*
X183317851Y-74494120D01*
X183319287Y-74491302D01*
X183362546Y-74448047D01*
X183491610Y-74382287D01*
X183493923Y-74380607D01*
X183645471Y-74270501D01*
X183657219Y-74261966D01*
X183801966Y-74117219D01*
X183828087Y-74081264D01*
X183856129Y-74047352D01*
X183899299Y-73983249D01*
X183922287Y-73951610D01*
X183924771Y-73946733D01*
X183930861Y-73936382D01*
X184693424Y-72804084D01*
X184705526Y-72789391D01*
X185305283Y-72189634D01*
X186950000Y-72189634D01*
X186950000Y-72189635D01*
X186950000Y-72189638D01*
X186950000Y-73219499D01*
X186950001Y-73219500D01*
X187601000Y-73219500D01*
X187659191Y-73238407D01*
X187695155Y-73287907D01*
X187700000Y-73318500D01*
X187700000Y-73620500D01*
X187681093Y-73678691D01*
X187631593Y-73714655D01*
X187601000Y-73719500D01*
X186950001Y-73719500D01*
X186950000Y-73719501D01*
X186950000Y-73719502D01*
X186950000Y-74749364D01*
X186990627Y-75005870D01*
X187070881Y-75252871D01*
X187143245Y-75394895D01*
X187188792Y-75484285D01*
X187341450Y-75694401D01*
X187525098Y-75878049D01*
X187735214Y-76030707D01*
X187966626Y-76148617D01*
X188213626Y-76228871D01*
X188304542Y-76243271D01*
X188349999Y-76250471D01*
X188349999Y-76250470D01*
X188350000Y-76250471D01*
X188350000Y-74658036D01*
X188368907Y-74599845D01*
X188418407Y-74563881D01*
X188468314Y-74560938D01*
X188511358Y-74569500D01*
X188688641Y-74569500D01*
X188688642Y-74569500D01*
X188731686Y-74560938D01*
X188792447Y-74568130D01*
X188837377Y-74609662D01*
X188850000Y-74658036D01*
X188850000Y-76250469D01*
X188850000Y-76250470D01*
X188986373Y-76228871D01*
X189233373Y-76148617D01*
X189464785Y-76030707D01*
X189674901Y-75878049D01*
X189858549Y-75694401D01*
X190011207Y-75484285D01*
X190129117Y-75252873D01*
X190209371Y-75005873D01*
X190235927Y-74838210D01*
X190250000Y-74749363D01*
X190250000Y-73719502D01*
X190250000Y-73719501D01*
X190249999Y-73719500D01*
X190249998Y-73719500D01*
X189599000Y-73719500D01*
X189540809Y-73700593D01*
X189504845Y-73651093D01*
X189500000Y-73620500D01*
X189500000Y-73318500D01*
X189518907Y-73260309D01*
X189568407Y-73224345D01*
X189599000Y-73219500D01*
X190249998Y-73219500D01*
X190249999Y-73219500D01*
X190250000Y-73219499D01*
X190250000Y-72189638D01*
X190249999Y-72189634D01*
X190209371Y-71933127D01*
X190202439Y-71911790D01*
X190129117Y-71686126D01*
X190011207Y-71454714D01*
X189858549Y-71244598D01*
X189674901Y-71060950D01*
X189464785Y-70908292D01*
X189464784Y-70908291D01*
X189464782Y-70908290D01*
X189233371Y-70790381D01*
X188986371Y-70710127D01*
X188850000Y-70688527D01*
X188850000Y-72280963D01*
X188831093Y-72339154D01*
X188781593Y-72375118D01*
X188731688Y-72378061D01*
X188688648Y-72369500D01*
X188688642Y-72369500D01*
X188511358Y-72369500D01*
X188511351Y-72369500D01*
X188468312Y-72378061D01*
X188407551Y-72370868D01*
X188362622Y-72329335D01*
X188350000Y-72280963D01*
X188350000Y-70688529D01*
X188350000Y-70688528D01*
X188349999Y-70688528D01*
X188349996Y-70688528D01*
X188213627Y-70710127D01*
X187966627Y-70790381D01*
X187735216Y-70908290D01*
X187525099Y-71060949D01*
X187341449Y-71244599D01*
X187188790Y-71454716D01*
X187070881Y-71686127D01*
X186990627Y-71933128D01*
X186950000Y-72189634D01*
X185305283Y-72189634D01*
X189847264Y-67647654D01*
X189901779Y-67619879D01*
X189962211Y-67629450D01*
X189974150Y-67636634D01*
X190864315Y-68261610D01*
X190900489Y-68287007D01*
X190913607Y-68298027D01*
X191959417Y-69343837D01*
X191977622Y-69368895D01*
X191988709Y-69390654D01*
X191999500Y-69435600D01*
X191999500Y-85827332D01*
X191994654Y-85857926D01*
X191987107Y-85881152D01*
X191962957Y-85920561D01*
X191903258Y-85980261D01*
X191857283Y-86026236D01*
X191765189Y-86175546D01*
X191765187Y-86175550D01*
X191710000Y-86342091D01*
X191709998Y-86342099D01*
X191699500Y-86444863D01*
X191699500Y-87644911D01*
X191709998Y-87747675D01*
X191709998Y-87747676D01*
X191710000Y-87747682D01*
X191710002Y-87747688D01*
X191765187Y-87914224D01*
X191857285Y-88063540D01*
X191857286Y-88063541D01*
X191857288Y-88063544D01*
X191981344Y-88187600D01*
X192130666Y-88279702D01*
X192204525Y-88304176D01*
X192206700Y-88304897D01*
X192234208Y-88319114D01*
X192243390Y-88325867D01*
X192279066Y-88375571D01*
X192278713Y-88436755D01*
X192275590Y-88446179D01*
X192274077Y-88465409D01*
X192274078Y-88465410D01*
X192274078Y-88465411D01*
X192840095Y-89031428D01*
X192867871Y-89085943D01*
X192858300Y-89146375D01*
X192819591Y-89187166D01*
X192754395Y-89224807D01*
X192679919Y-89299283D01*
X192642278Y-89364479D01*
X192596808Y-89405419D01*
X192535958Y-89411814D01*
X192486540Y-89384983D01*
X191920523Y-88818966D01*
X191920522Y-88818966D01*
X191888144Y-88863529D01*
X191888126Y-88863560D01*
X191888005Y-88863800D01*
X191795244Y-89045856D01*
X191732006Y-89240479D01*
X191700000Y-89442568D01*
X191700000Y-89647206D01*
X191732006Y-89849295D01*
X191795243Y-90043915D01*
X191888138Y-90226234D01*
X191888513Y-90226814D01*
X191889486Y-90228090D01*
X191893049Y-90232994D01*
X191920523Y-90270808D01*
X191920524Y-90270808D01*
X192486540Y-89704791D01*
X192541055Y-89677016D01*
X192601487Y-89686587D01*
X192642278Y-89725297D01*
X192642279Y-89725298D01*
X192679920Y-89790494D01*
X192754394Y-89864968D01*
X192754396Y-89864969D01*
X192819588Y-89902608D01*
X192860529Y-89948077D01*
X192866925Y-90008927D01*
X192840092Y-90058347D01*
X192274077Y-90624362D01*
X192274078Y-90624362D01*
X192274078Y-90624363D01*
X192318647Y-90656746D01*
X192318653Y-90656749D01*
X192500974Y-90749645D01*
X192500978Y-90749647D01*
X192695581Y-90812878D01*
X192695585Y-90812879D01*
X192897682Y-90844888D01*
X193102315Y-90844888D01*
X193102318Y-90844888D01*
X193304413Y-90812879D01*
X193304417Y-90812878D01*
X193499020Y-90749647D01*
X193499022Y-90749645D01*
X193499027Y-90749644D01*
X193681342Y-90656751D01*
X193681350Y-90656746D01*
X193725920Y-90624363D01*
X193159903Y-90058346D01*
X193132128Y-90003832D01*
X193141699Y-89943400D01*
X193180408Y-89902609D01*
X193245606Y-89864968D01*
X193320080Y-89790494D01*
X193357721Y-89725296D01*
X193403189Y-89684356D01*
X193464040Y-89677960D01*
X193513458Y-89704791D01*
X194079475Y-90270808D01*
X194111858Y-90226238D01*
X194111863Y-90226230D01*
X194204756Y-90043915D01*
X194204757Y-90043910D01*
X194204759Y-90043908D01*
X194267990Y-89849305D01*
X194267991Y-89849301D01*
X194300000Y-89647206D01*
X194300000Y-89442568D01*
X194267991Y-89240473D01*
X194267990Y-89240469D01*
X194204759Y-89045866D01*
X194204757Y-89045862D01*
X194111861Y-88863541D01*
X194111860Y-88863539D01*
X194111858Y-88863535D01*
X194079475Y-88818966D01*
X194079474Y-88818966D01*
X193513459Y-89384980D01*
X193458943Y-89412757D01*
X193398511Y-89403186D01*
X193357720Y-89364476D01*
X193320081Y-89299284D01*
X193320080Y-89299282D01*
X193245606Y-89224808D01*
X193245603Y-89224806D01*
X193180409Y-89187166D01*
X193139468Y-89141697D01*
X193133072Y-89080846D01*
X193159902Y-89031430D01*
X193725920Y-88465412D01*
X193724461Y-88446869D01*
X193721701Y-88439387D01*
X193721011Y-88421831D01*
X193715583Y-88405123D01*
X193719841Y-88392017D01*
X193719301Y-88378248D01*
X193734491Y-88346933D01*
X193735110Y-88346081D01*
X193737351Y-88342997D01*
X193786299Y-88307215D01*
X193869334Y-88279702D01*
X194018656Y-88187600D01*
X194142712Y-88063544D01*
X194234814Y-87914222D01*
X194289999Y-87747685D01*
X194300500Y-87644897D01*
X194300499Y-86444880D01*
X194300499Y-86444879D01*
X194300499Y-86444871D01*
X194290495Y-86346950D01*
X194290465Y-86346636D01*
X194290483Y-86346550D01*
X194290365Y-86344227D01*
X194290156Y-86342643D01*
X194290001Y-86342109D01*
X194290000Y-86342099D01*
X194289999Y-86342097D01*
X194289999Y-86342091D01*
X194289972Y-86342012D01*
X194289475Y-86340297D01*
X194289475Y-86340295D01*
X194289471Y-86340283D01*
X194288684Y-86337574D01*
X194287764Y-86335347D01*
X194267719Y-86274856D01*
X194234814Y-86175554D01*
X194208952Y-86133626D01*
X194142713Y-86026233D01*
X194142711Y-86026231D01*
X194040579Y-85924098D01*
X194022376Y-85899043D01*
X194011288Y-85877281D01*
X194000500Y-85832342D01*
X194000500Y-72189634D01*
X195750000Y-72189634D01*
X195750000Y-72189635D01*
X195750000Y-72189638D01*
X195750000Y-73219499D01*
X195750001Y-73219500D01*
X196401000Y-73219500D01*
X196459191Y-73238407D01*
X196495155Y-73287907D01*
X196500000Y-73318500D01*
X196500000Y-73620500D01*
X196481093Y-73678691D01*
X196431593Y-73714655D01*
X196401000Y-73719500D01*
X195750001Y-73719500D01*
X195750000Y-73719501D01*
X195750000Y-73719502D01*
X195750000Y-74749364D01*
X195790627Y-75005870D01*
X195870881Y-75252871D01*
X195943245Y-75394895D01*
X195988792Y-75484285D01*
X196141450Y-75694401D01*
X196325098Y-75878049D01*
X196535214Y-76030707D01*
X196766626Y-76148617D01*
X197013626Y-76228871D01*
X197104542Y-76243271D01*
X197149999Y-76250471D01*
X197149999Y-76250470D01*
X197150000Y-76250471D01*
X197150000Y-74658036D01*
X197168907Y-74599845D01*
X197218407Y-74563881D01*
X197268314Y-74560938D01*
X197311358Y-74569500D01*
X197488641Y-74569500D01*
X197488642Y-74569500D01*
X197531686Y-74560938D01*
X197592447Y-74568130D01*
X197637377Y-74609662D01*
X197650000Y-74658036D01*
X197650000Y-76250469D01*
X197650000Y-76250470D01*
X197786373Y-76228871D01*
X198033373Y-76148617D01*
X198264785Y-76030707D01*
X198474901Y-75878049D01*
X198658549Y-75694401D01*
X198811207Y-75484285D01*
X198929117Y-75252873D01*
X199009371Y-75005873D01*
X199035927Y-74838210D01*
X199050000Y-74749363D01*
X199050000Y-73719502D01*
X199050000Y-73719501D01*
X199049999Y-73719500D01*
X199049998Y-73719500D01*
X198399000Y-73719500D01*
X198340809Y-73700593D01*
X198304845Y-73651093D01*
X198300000Y-73620500D01*
X198300000Y-73318500D01*
X198318907Y-73260309D01*
X198368407Y-73224345D01*
X198399000Y-73219500D01*
X199049998Y-73219500D01*
X199049999Y-73219500D01*
X199050000Y-73219499D01*
X199050000Y-72189638D01*
X199049999Y-72189634D01*
X199009371Y-71933127D01*
X199002439Y-71911790D01*
X198929117Y-71686126D01*
X198811207Y-71454714D01*
X198658549Y-71244598D01*
X198474901Y-71060950D01*
X198264785Y-70908292D01*
X198264784Y-70908291D01*
X198264782Y-70908290D01*
X198033371Y-70790381D01*
X197786371Y-70710127D01*
X197650000Y-70688527D01*
X197650000Y-72280963D01*
X197631093Y-72339154D01*
X197581593Y-72375118D01*
X197531688Y-72378061D01*
X197488648Y-72369500D01*
X197488642Y-72369500D01*
X197311358Y-72369500D01*
X197311351Y-72369500D01*
X197268312Y-72378061D01*
X197207551Y-72370868D01*
X197162622Y-72329335D01*
X197150000Y-72280963D01*
X197150000Y-70688529D01*
X197150000Y-70688528D01*
X197149999Y-70688528D01*
X197149996Y-70688528D01*
X197013627Y-70710127D01*
X196766627Y-70790381D01*
X196535216Y-70908290D01*
X196325099Y-71060949D01*
X196141449Y-71244599D01*
X195988790Y-71454716D01*
X195870881Y-71686127D01*
X195790627Y-71933128D01*
X195750000Y-72189634D01*
X194000500Y-72189634D01*
X194000500Y-68870965D01*
X194000500Y-68870960D01*
X194000499Y-68870956D01*
X194000498Y-68870954D01*
X194000426Y-68870368D01*
X194000031Y-68868605D01*
X193996027Y-68848477D01*
X193983445Y-68785220D01*
X193962051Y-68677665D01*
X193942156Y-68629635D01*
X193886632Y-68495586D01*
X193872151Y-68473914D01*
X193777139Y-68331718D01*
X193777134Y-68331713D01*
X193777131Y-68331709D01*
X193635298Y-68189877D01*
X193621374Y-68175953D01*
X193621373Y-68175953D01*
X193301920Y-67856500D01*
X193283714Y-67831440D01*
X193278543Y-67821291D01*
X193268972Y-67760859D01*
X193278809Y-67741552D01*
X193296747Y-67706345D01*
X193300987Y-67702105D01*
X193340395Y-67677957D01*
X193467573Y-67636636D01*
X193481552Y-67632094D01*
X193481552Y-67632093D01*
X193481561Y-67632091D01*
X193657501Y-67542444D01*
X193817252Y-67426379D01*
X193956879Y-67286752D01*
X194057195Y-67148676D01*
X194079087Y-67126783D01*
X194085763Y-67121932D01*
X194143951Y-67103026D01*
X194202142Y-67121933D01*
X194238104Y-67171426D01*
X194240652Y-67179266D01*
X194245500Y-67209866D01*
X194245500Y-67271420D01*
X194245584Y-67272148D01*
X194247154Y-67286752D01*
X194251908Y-67330980D01*
X194251909Y-67330985D01*
X194256312Y-67342789D01*
X194302200Y-67465827D01*
X194318284Y-67487312D01*
X194387346Y-67579566D01*
X194388454Y-67581046D01*
X194388457Y-67581048D01*
X194388458Y-67581049D01*
X194389820Y-67582068D01*
X194389893Y-67582153D01*
X194390596Y-67582649D01*
X194466258Y-67639290D01*
X194503668Y-67667296D01*
X194503669Y-67667296D01*
X194503670Y-67667297D01*
X194638511Y-67717589D01*
X194638512Y-67717589D01*
X194638517Y-67717591D01*
X194638518Y-67717591D01*
X194639073Y-67717798D01*
X194640247Y-67717966D01*
X194643767Y-67718155D01*
X194698127Y-67724000D01*
X196301872Y-67723999D01*
X196361483Y-67717591D01*
X196361489Y-67717589D01*
X196384325Y-67709071D01*
X196455956Y-67682355D01*
X196496329Y-67667297D01*
X196496329Y-67667296D01*
X196496331Y-67667296D01*
X196496333Y-67667294D01*
X196501899Y-67665218D01*
X196509164Y-67657689D01*
X196611546Y-67581046D01*
X196685672Y-67482027D01*
X196697794Y-67465834D01*
X196697797Y-67465829D01*
X196698743Y-67463295D01*
X196721324Y-67402749D01*
X196746251Y-67335915D01*
X196747454Y-67333151D01*
X196748087Y-67330992D01*
X196748089Y-67330988D01*
X196748090Y-67330985D01*
X196748091Y-67330983D01*
X196754500Y-67271373D01*
X196754499Y-65667628D01*
X196748091Y-65608017D01*
X196748089Y-65608011D01*
X196714668Y-65518403D01*
X196697798Y-65473171D01*
X196670258Y-65436383D01*
X196611549Y-65357958D01*
X196611548Y-65357957D01*
X196611546Y-65357954D01*
X196611541Y-65357950D01*
X196611113Y-65357630D01*
X196611112Y-65357628D01*
X196496330Y-65271702D01*
X196496328Y-65271701D01*
X196367927Y-65223811D01*
X196367911Y-65223805D01*
X196361488Y-65221410D01*
X196361483Y-65221409D01*
X196361481Y-65221408D01*
X196361477Y-65221408D01*
X196360474Y-65221300D01*
X196359658Y-65221025D01*
X196356206Y-65220841D01*
X196339312Y-65219024D01*
X196330249Y-65218050D01*
X196330248Y-65218049D01*
X196301876Y-65215000D01*
X196301873Y-65215000D01*
X196301870Y-65215000D01*
X194698133Y-65215000D01*
X194698129Y-65215000D01*
X194689938Y-65215000D01*
X194683975Y-65216521D01*
X194675069Y-65217478D01*
X194638520Y-65221407D01*
X194638514Y-65221408D01*
X194638514Y-65221409D01*
X194638506Y-65221412D01*
X194503671Y-65271700D01*
X194388456Y-65357951D01*
X194388454Y-65357953D01*
X194302200Y-65473171D01*
X194251910Y-65608006D01*
X194251910Y-65608009D01*
X194247154Y-65652246D01*
X194245500Y-65667630D01*
X194245500Y-65729130D01*
X194240652Y-65759730D01*
X194238104Y-65767570D01*
X194202137Y-65817067D01*
X194143945Y-65835970D01*
X194085764Y-65817064D01*
X194085756Y-65817058D01*
X194085755Y-65817058D01*
X194085754Y-65817056D01*
X194079095Y-65812219D01*
X194057190Y-65790315D01*
X194029355Y-65752003D01*
X193958041Y-65653847D01*
X193957200Y-65652639D01*
X193956886Y-65652256D01*
X193956881Y-65652251D01*
X193956879Y-65652248D01*
X193817252Y-65512621D01*
X193817248Y-65512618D01*
X193817246Y-65512616D01*
X193792667Y-65494758D01*
X193783351Y-65487989D01*
X193773705Y-65480002D01*
X193758537Y-65465731D01*
X193758534Y-65465729D01*
X193758530Y-65465725D01*
X192599509Y-64651991D01*
X192586391Y-64640971D01*
X192307641Y-64362221D01*
X192307641Y-64362220D01*
X192168290Y-64222868D01*
X192168285Y-64222864D01*
X192168282Y-64222861D01*
X192119473Y-64190248D01*
X192119472Y-64190247D01*
X192004419Y-64113369D01*
X192004414Y-64113367D01*
X192004415Y-64113367D01*
X191922651Y-64079500D01*
X191922650Y-64079500D01*
X191884672Y-64063769D01*
X191875665Y-64060038D01*
X191875664Y-64060037D01*
X191822336Y-64037949D01*
X191822334Y-64037948D01*
X191720945Y-64017781D01*
X191720944Y-64017780D01*
X191629045Y-63999500D01*
X191629043Y-63999500D01*
X191629041Y-63999500D01*
X188955180Y-63999500D01*
X188924587Y-63994654D01*
X188911901Y-63990532D01*
X188862401Y-63954568D01*
X188862394Y-63954558D01*
X188859400Y-63950436D01*
X188840500Y-63892256D01*
X188840500Y-60680201D01*
X188842332Y-60661241D01*
X189104926Y-59315459D01*
X189108477Y-59304534D01*
X189113361Y-59273700D01*
X189114592Y-59265924D01*
X189129842Y-59187772D01*
X189133578Y-59166139D01*
X189133732Y-59165115D01*
X189134013Y-59161290D01*
X189134578Y-59153572D01*
X189136162Y-59131958D01*
X189137110Y-59123754D01*
X189140500Y-59102355D01*
X189140500Y-58897644D01*
X189140499Y-58897640D01*
X196699500Y-58897640D01*
X196699500Y-59102358D01*
X196731519Y-59304524D01*
X196794780Y-59499219D01*
X196887572Y-59681335D01*
X196887705Y-59681600D01*
X196887716Y-59681618D01*
X197004277Y-59842049D01*
X197008029Y-59847213D01*
X197008031Y-59847215D01*
X197008034Y-59847219D01*
X197152781Y-59991966D01*
X197152784Y-59991968D01*
X197152787Y-59991971D01*
X197153176Y-59992290D01*
X197154376Y-59993125D01*
X197318386Y-60112285D01*
X197318389Y-60112287D01*
X197318395Y-60112291D01*
X197318645Y-60112417D01*
X197500781Y-60205220D01*
X197695466Y-60268477D01*
X197695467Y-60268477D01*
X197695470Y-60268478D01*
X197849006Y-60292796D01*
X197897643Y-60300500D01*
X198102355Y-60300500D01*
X198102357Y-60300500D01*
X198164642Y-60290634D01*
X198304529Y-60268478D01*
X198304529Y-60268477D01*
X198304531Y-60268477D01*
X198304534Y-60268477D01*
X198304537Y-60268476D01*
X198307113Y-60268068D01*
X198311920Y-60266076D01*
X198499219Y-60205220D01*
X198681610Y-60112287D01*
X198711971Y-60090229D01*
X198746108Y-60065427D01*
X198847219Y-59991966D01*
X198991966Y-59847219D01*
X199072180Y-59736813D01*
X199112285Y-59681613D01*
X199112287Y-59681610D01*
X199205220Y-59499219D01*
X199268477Y-59304534D01*
X199273361Y-59273700D01*
X199298780Y-59113216D01*
X199300500Y-59102356D01*
X199300500Y-58897641D01*
X199281286Y-58776339D01*
X199268478Y-58695470D01*
X199255582Y-58655780D01*
X199205220Y-58500781D01*
X199112417Y-58318645D01*
X199112291Y-58318395D01*
X199112287Y-58318389D01*
X199112285Y-58318386D01*
X198991970Y-58152786D01*
X198991968Y-58152784D01*
X198991966Y-58152781D01*
X198847219Y-58008034D01*
X198847215Y-58008031D01*
X198847213Y-58008029D01*
X198802142Y-57975283D01*
X198681618Y-57887716D01*
X198681600Y-57887705D01*
X198681335Y-57887572D01*
X198499219Y-57794780D01*
X198304524Y-57731519D01*
X198102358Y-57699500D01*
X198102355Y-57699500D01*
X198102352Y-57699500D01*
X197897648Y-57699500D01*
X197897645Y-57699500D01*
X197897642Y-57699500D01*
X197695474Y-57731519D01*
X197500779Y-57794780D01*
X197318663Y-57887572D01*
X197318404Y-57887701D01*
X197318380Y-57887716D01*
X197152789Y-58008026D01*
X197008026Y-58152789D01*
X196887716Y-58318380D01*
X196887701Y-58318404D01*
X196887572Y-58318663D01*
X196794780Y-58500779D01*
X196731519Y-58695474D01*
X196699500Y-58897640D01*
X189140499Y-58897640D01*
X189121286Y-58776339D01*
X189108478Y-58695470D01*
X189095582Y-58655780D01*
X189045220Y-58500781D01*
X188952417Y-58318645D01*
X188952291Y-58318395D01*
X188952287Y-58318389D01*
X188952285Y-58318386D01*
X188831970Y-58152786D01*
X188831968Y-58152784D01*
X188831966Y-58152781D01*
X188687219Y-58008034D01*
X188687215Y-58008031D01*
X188687213Y-58008029D01*
X188642142Y-57975283D01*
X188521618Y-57887716D01*
X188521600Y-57887705D01*
X188521335Y-57887572D01*
X188339219Y-57794780D01*
X188144524Y-57731519D01*
X187942358Y-57699500D01*
X187942355Y-57699500D01*
X187942352Y-57699500D01*
X187737648Y-57699500D01*
X187737645Y-57699500D01*
X187737642Y-57699500D01*
X187535474Y-57731519D01*
X187340779Y-57794780D01*
X187158663Y-57887572D01*
X187158404Y-57887701D01*
X187158380Y-57887716D01*
X186992789Y-58008026D01*
X186848026Y-58152789D01*
X186727716Y-58318380D01*
X186727701Y-58318404D01*
X186727572Y-58318663D01*
X186634780Y-58500779D01*
X186571519Y-58695474D01*
X186539500Y-58897640D01*
X186539500Y-59102359D01*
X186539499Y-59102359D01*
X186548002Y-59156041D01*
X186548834Y-59161295D01*
X186550157Y-59187772D01*
X186565406Y-59265924D01*
X186565684Y-59267679D01*
X186571520Y-59304528D01*
X186573210Y-59309729D01*
X186576223Y-59321360D01*
X186726249Y-60090229D01*
X186826967Y-60606402D01*
X186837668Y-60661241D01*
X186839500Y-60680201D01*
X186839500Y-65228891D01*
X186834654Y-65259485D01*
X186827107Y-65282711D01*
X186802958Y-65322119D01*
X186749242Y-65375837D01*
X186749241Y-65375839D01*
X186362219Y-65762861D01*
X184243315Y-67881762D01*
X184218255Y-67899968D01*
X184208106Y-67905139D01*
X184147674Y-67914710D01*
X184093158Y-67886933D01*
X184088922Y-67882697D01*
X184064771Y-67843285D01*
X184060922Y-67831440D01*
X184056315Y-67817259D01*
X184015220Y-67690781D01*
X183922417Y-67508645D01*
X183922291Y-67508395D01*
X183922287Y-67508389D01*
X183922285Y-67508386D01*
X183801970Y-67342786D01*
X183801968Y-67342784D01*
X183801966Y-67342781D01*
X183657219Y-67198034D01*
X183657215Y-67198031D01*
X183657213Y-67198029D01*
X183589290Y-67148680D01*
X183491618Y-67077716D01*
X183491600Y-67077705D01*
X183491335Y-67077572D01*
X183309219Y-66984780D01*
X183114524Y-66921519D01*
X182912358Y-66889500D01*
X182912355Y-66889500D01*
X182912352Y-66889500D01*
X182707648Y-66889500D01*
X182707645Y-66889500D01*
X182707642Y-66889500D01*
X182505474Y-66921519D01*
X182310779Y-66984780D01*
X182128663Y-67077572D01*
X182128404Y-67077701D01*
X182128380Y-67077716D01*
X181962789Y-67198026D01*
X181818026Y-67342789D01*
X181697716Y-67508380D01*
X181697701Y-67508404D01*
X181697572Y-67508663D01*
X181604780Y-67690779D01*
X181541519Y-67885474D01*
X181509500Y-68087640D01*
X181509500Y-68292358D01*
X181541519Y-68494524D01*
X181604780Y-68689219D01*
X181697572Y-68871335D01*
X181697705Y-68871600D01*
X181697716Y-68871618D01*
X181817182Y-69036047D01*
X181818029Y-69037213D01*
X181818031Y-69037215D01*
X181818034Y-69037219D01*
X181962781Y-69181966D01*
X181962784Y-69181968D01*
X181962787Y-69181971D01*
X181963176Y-69182290D01*
X181964376Y-69183125D01*
X182128386Y-69302285D01*
X182128389Y-69302287D01*
X182128395Y-69302291D01*
X182128663Y-69302426D01*
X182246568Y-69362502D01*
X182289833Y-69405767D01*
X182299404Y-69466199D01*
X182271626Y-69520716D01*
X182256924Y-69532826D01*
X182143619Y-69609133D01*
X182133257Y-69615232D01*
X182128699Y-69617554D01*
X182128407Y-69617701D01*
X182128380Y-69617717D01*
X182098164Y-69639669D01*
X182095280Y-69641687D01*
X182030698Y-69685182D01*
X182012340Y-69698147D01*
X182011529Y-69698747D01*
X182011521Y-69698754D01*
X181986608Y-69720285D01*
X181980068Y-69725472D01*
X181962790Y-69738025D01*
X181818026Y-69882789D01*
X181697716Y-70048380D01*
X181697701Y-70048404D01*
X181697572Y-70048663D01*
X181604780Y-70230779D01*
X181541519Y-70425474D01*
X181509500Y-70627640D01*
X181509500Y-70832358D01*
X181541519Y-71034524D01*
X181604780Y-71229219D01*
X181697572Y-71411335D01*
X181697705Y-71411600D01*
X181697716Y-71411618D01*
X181818029Y-71577213D01*
X181818031Y-71577215D01*
X181818034Y-71577219D01*
X181962781Y-71721966D01*
X181962784Y-71721968D01*
X181962787Y-71721971D01*
X181963176Y-71722290D01*
X181964376Y-71723125D01*
X182096758Y-71819306D01*
X182128389Y-71842287D01*
X182128395Y-71842291D01*
X182128645Y-71842417D01*
X182204914Y-71881278D01*
X182248177Y-71924542D01*
X182257749Y-71984974D01*
X182229972Y-72039490D01*
X182178928Y-72066654D01*
X181148763Y-72267667D01*
X181129803Y-72269500D01*
X178201109Y-72269500D01*
X178170516Y-72264654D01*
X178147289Y-72257107D01*
X178107878Y-72232957D01*
X177085534Y-71210614D01*
X177073424Y-71195911D01*
X176987820Y-71068801D01*
X176310864Y-70063618D01*
X176304772Y-70053268D01*
X176302426Y-70048663D01*
X176302349Y-70048513D01*
X176302289Y-70048393D01*
X176302280Y-70048378D01*
X176280329Y-70018165D01*
X176278339Y-70015322D01*
X176234827Y-69950713D01*
X176228200Y-69941323D01*
X176222062Y-69932625D01*
X176221453Y-69931802D01*
X176221445Y-69931791D01*
X176199795Y-69906725D01*
X176194627Y-69900208D01*
X176183132Y-69884386D01*
X176182194Y-69883038D01*
X176182051Y-69882867D01*
X176181968Y-69882784D01*
X176181966Y-69882781D01*
X176037219Y-69738034D01*
X176016550Y-69723017D01*
X175916324Y-69650198D01*
X175894423Y-69628298D01*
X175887727Y-69619082D01*
X175868819Y-69560891D01*
X175875957Y-69538922D01*
X175887724Y-69502703D01*
X175889623Y-69500089D01*
X175938577Y-69464301D01*
X176057092Y-69425029D01*
X176058965Y-69424454D01*
X176059121Y-69424358D01*
X176066346Y-69419899D01*
X175349907Y-68703460D01*
X175322130Y-68648943D01*
X175331701Y-68588511D01*
X175370408Y-68547721D01*
X175435606Y-68510080D01*
X175510080Y-68435606D01*
X175547721Y-68370408D01*
X175593189Y-68329470D01*
X175654039Y-68323074D01*
X175703460Y-68349907D01*
X176419899Y-69066346D01*
X176424358Y-69059121D01*
X176424358Y-69059119D01*
X176424358Y-69059118D01*
X176424453Y-69058965D01*
X176425031Y-69057085D01*
X176479506Y-68892693D01*
X176484023Y-68848478D01*
X176489999Y-68789995D01*
X176489999Y-67590005D01*
X176479507Y-67487312D01*
X176479507Y-67487311D01*
X176479504Y-67487301D01*
X176477757Y-67482028D01*
X176424360Y-67320885D01*
X176424359Y-67320882D01*
X176424357Y-67320878D01*
X176419899Y-67313652D01*
X175703459Y-68030092D01*
X175648942Y-68057869D01*
X175588510Y-68048298D01*
X175547720Y-68009589D01*
X175510080Y-67944394D01*
X175435606Y-67869920D01*
X175412362Y-67856500D01*
X175370409Y-67832278D01*
X175329468Y-67786809D01*
X175323072Y-67725958D01*
X175349903Y-67676540D01*
X176066346Y-66960098D01*
X176066344Y-66960097D01*
X176066345Y-66960097D01*
X176059128Y-66955645D01*
X176059126Y-66955644D01*
X176059120Y-66955641D01*
X176059117Y-66955640D01*
X176059115Y-66955639D01*
X175892690Y-66900492D01*
X175789995Y-66890000D01*
X175789987Y-66890000D01*
X174590013Y-66890000D01*
X174590005Y-66890000D01*
X174487312Y-66900491D01*
X174487311Y-66900491D01*
X174487301Y-66900494D01*
X174320874Y-66955642D01*
X174314740Y-66959426D01*
X174313652Y-66960097D01*
X174313652Y-66960098D01*
X174674428Y-67320874D01*
X175030093Y-67676539D01*
X175057870Y-67731056D01*
X175048299Y-67791488D01*
X175009589Y-67832279D01*
X174944396Y-67869918D01*
X174869918Y-67944396D01*
X174832279Y-68009589D01*
X174786809Y-68050530D01*
X174725959Y-68056925D01*
X174676539Y-68030093D01*
X174322984Y-67676538D01*
X173960098Y-67313652D01*
X173960097Y-67313652D01*
X173955642Y-67320874D01*
X173900494Y-67487301D01*
X173900491Y-67487312D01*
X173890000Y-67590003D01*
X173890000Y-68789993D01*
X173900491Y-68892686D01*
X173900491Y-68892687D01*
X173900494Y-68892697D01*
X173955589Y-69058965D01*
X173955641Y-69059120D01*
X173955642Y-69059120D01*
X173955642Y-69059121D01*
X173955645Y-69059128D01*
X173960097Y-69066345D01*
X173960098Y-69066346D01*
X174676540Y-68349903D01*
X174731055Y-68322128D01*
X174791487Y-68331699D01*
X174832278Y-68370409D01*
X174865078Y-68427220D01*
X174869920Y-68435606D01*
X174944394Y-68510080D01*
X174944396Y-68510081D01*
X175009588Y-68547720D01*
X175050529Y-68593189D01*
X175056925Y-68654039D01*
X175030092Y-68703460D01*
X174313653Y-69419898D01*
X174313653Y-69419899D01*
X174320882Y-69424359D01*
X174320887Y-69424362D01*
X174434427Y-69461984D01*
X174461936Y-69476202D01*
X174471118Y-69482955D01*
X174506793Y-69532662D01*
X174506437Y-69593846D01*
X174506431Y-69593866D01*
X174505414Y-69596933D01*
X174469637Y-69645866D01*
X174342783Y-69738032D01*
X174198026Y-69882789D01*
X174077716Y-70048380D01*
X174077701Y-70048404D01*
X174077572Y-70048663D01*
X173984780Y-70230779D01*
X173921519Y-70425474D01*
X173889500Y-70627640D01*
X173889500Y-70832358D01*
X173921519Y-71034524D01*
X173984780Y-71229219D01*
X174077572Y-71411335D01*
X174077705Y-71411600D01*
X174077716Y-71411618D01*
X174198029Y-71577213D01*
X174198031Y-71577215D01*
X174198034Y-71577219D01*
X174342781Y-71721966D01*
X174342784Y-71721968D01*
X174342789Y-71721973D01*
X174343179Y-71722293D01*
X174344386Y-71723133D01*
X174360345Y-71734727D01*
X174386769Y-71753925D01*
X174394992Y-71760601D01*
X174410716Y-71774829D01*
X174475412Y-71818399D01*
X174476239Y-71818964D01*
X174477218Y-71819640D01*
X174508386Y-71842285D01*
X174508390Y-71842287D01*
X174514544Y-71845423D01*
X174515535Y-71846107D01*
X174523613Y-71850861D01*
X174568776Y-71881277D01*
X174581744Y-71890010D01*
X174619448Y-71938198D01*
X174621628Y-71999345D01*
X174587450Y-72050094D01*
X174545403Y-72069292D01*
X173528756Y-72267667D01*
X173509796Y-72269500D01*
X162241109Y-72269500D01*
X162210516Y-72264654D01*
X162187289Y-72257107D01*
X162147878Y-72232957D01*
X160040582Y-70125661D01*
X160022376Y-70100602D01*
X160011288Y-70078840D01*
X160000500Y-70033898D01*
X160000500Y-59901465D01*
X160000500Y-59901460D01*
X160000499Y-59901456D01*
X160000498Y-59901454D01*
X160000426Y-59900869D01*
X160000035Y-59899124D01*
X159988683Y-59842051D01*
X159971527Y-59755802D01*
X159962052Y-59708165D01*
X159886632Y-59526086D01*
X159777140Y-59362219D01*
X156777140Y-56362220D01*
X156777139Y-56362218D01*
X156722633Y-56307712D01*
X156637790Y-56222868D01*
X156637789Y-56222867D01*
X156637784Y-56222862D01*
X156591099Y-56191668D01*
X156473923Y-56113372D01*
X156473921Y-56113371D01*
X156473912Y-56113367D01*
X156436203Y-56097747D01*
X156436201Y-56097746D01*
X156436201Y-56097745D01*
X156359098Y-56065809D01*
X156359096Y-56065808D01*
X156345165Y-56060038D01*
X156345164Y-56060037D01*
X156291837Y-56037949D01*
X156243512Y-56028336D01*
X156205291Y-56020733D01*
X156205279Y-56020730D01*
X156098547Y-55999500D01*
X156098543Y-55999500D01*
X156098541Y-55999500D01*
X143818540Y-55999500D01*
X143621459Y-55999500D01*
X143621456Y-55999500D01*
X143621453Y-55999500D01*
X143446146Y-56034372D01*
X143428164Y-56037949D01*
X143428162Y-56037949D01*
X143352744Y-56069187D01*
X143352745Y-56069188D01*
X143302843Y-56089857D01*
X143302788Y-56089879D01*
X143236813Y-56117206D01*
X143229712Y-56124308D01*
X143082221Y-56222857D01*
X142097247Y-57207828D01*
X142081492Y-57219946D01*
X142081770Y-57220354D01*
X142078845Y-57222342D01*
X142078838Y-57222347D01*
X142078837Y-57222348D01*
X141887305Y-57373553D01*
X141125083Y-57975289D01*
X141114716Y-57983699D01*
X141114680Y-57983729D01*
X141097692Y-57999281D01*
X141097693Y-57999282D01*
X141093567Y-58003059D01*
X141092003Y-58004197D01*
X141088494Y-58007704D01*
X141086882Y-58009181D01*
X141079908Y-58015567D01*
X141076763Y-58019049D01*
X141076642Y-58018940D01*
X141072701Y-58023497D01*
X140964202Y-58131997D01*
X140964194Y-58132006D01*
X140857975Y-58278202D01*
X140857960Y-58278226D01*
X140857831Y-58278485D01*
X140775920Y-58439245D01*
X140775918Y-58439249D01*
X140720071Y-58611127D01*
X140720070Y-58611131D01*
X140691800Y-58789627D01*
X140448200Y-58789627D01*
X140419928Y-58611132D01*
X140419927Y-58611127D01*
X140404927Y-58564962D01*
X140404926Y-58564962D01*
X140364078Y-58439244D01*
X140282028Y-58278212D01*
X140282026Y-58278208D01*
X140176799Y-58133375D01*
X140176591Y-58133085D01*
X140176580Y-58133050D01*
X140176031Y-58132262D01*
X140175878Y-58132079D01*
X140175800Y-58132001D01*
X140175798Y-58131998D01*
X140048002Y-58004202D01*
X140047998Y-58004199D01*
X140047996Y-58004197D01*
X139901791Y-57897973D01*
X139901787Y-57897970D01*
X139901778Y-57897964D01*
X139901513Y-57897831D01*
X139740752Y-57815920D01*
X139740749Y-57815918D01*
X139568871Y-57760071D01*
X139568867Y-57760070D01*
X139390371Y-57731800D01*
X139390368Y-57731800D01*
X139390365Y-57731800D01*
X139209635Y-57731800D01*
X139209632Y-57731800D01*
X139209629Y-57731800D01*
X139031137Y-57760069D01*
X138859242Y-57815922D01*
X138698485Y-57897831D01*
X138698226Y-57897960D01*
X138698211Y-57897970D01*
X138552004Y-58004196D01*
X138424193Y-58132007D01*
X138416286Y-58142889D01*
X138404390Y-58156461D01*
X138395219Y-58165174D01*
X138042191Y-58612354D01*
X137991294Y-58646312D01*
X137930157Y-58643867D01*
X137882134Y-58605955D01*
X137870335Y-58581608D01*
X137824078Y-58439244D01*
X137742028Y-58278212D01*
X137742026Y-58278208D01*
X137636799Y-58133375D01*
X137636591Y-58133085D01*
X137636580Y-58133050D01*
X137636031Y-58132262D01*
X137635878Y-58132079D01*
X137635800Y-58132001D01*
X137635798Y-58131998D01*
X137508002Y-58004202D01*
X137507998Y-58004199D01*
X137507996Y-58004197D01*
X137361791Y-57897973D01*
X137361787Y-57897970D01*
X137361778Y-57897964D01*
X137361513Y-57897831D01*
X137200752Y-57815920D01*
X137200749Y-57815918D01*
X137028871Y-57760071D01*
X137028867Y-57760070D01*
X136850371Y-57731800D01*
X136850368Y-57731800D01*
X136850365Y-57731800D01*
X136669635Y-57731800D01*
X136669632Y-57731800D01*
X136669629Y-57731800D01*
X136491137Y-57760069D01*
X136319242Y-57815922D01*
X136158485Y-57897831D01*
X136158226Y-57897960D01*
X136158211Y-57897970D01*
X136012004Y-58004196D01*
X135884196Y-58132004D01*
X135777970Y-58278211D01*
X135777960Y-58278226D01*
X135777831Y-58278485D01*
X135695920Y-58439245D01*
X135695918Y-58439249D01*
X135640071Y-58611127D01*
X135640070Y-58611131D01*
X135611800Y-58789627D01*
X135611800Y-58970371D01*
X135640070Y-59148867D01*
X135640071Y-59148870D01*
X135695918Y-59320748D01*
X135706535Y-59341585D01*
X135716106Y-59371048D01*
X135717195Y-59377922D01*
X135717889Y-59382304D01*
X135708311Y-59442735D01*
X135665060Y-59485986D01*
X135661517Y-59487791D01*
X135659724Y-59488705D01*
X135614771Y-59499500D01*
X127401456Y-59499500D01*
X127340188Y-59511687D01*
X127309554Y-59517781D01*
X127208162Y-59537949D01*
X127208154Y-59537950D01*
X127127090Y-59571527D01*
X127127089Y-59571529D01*
X127117126Y-59575656D01*
X127117124Y-59575657D01*
X127093345Y-59585506D01*
X127026088Y-59613365D01*
X126862220Y-59722858D01*
X126862218Y-59722860D01*
X126722858Y-59862221D01*
X120937102Y-65647974D01*
X120925330Y-65658033D01*
X119704972Y-66545641D01*
X119695502Y-66552700D01*
X119695104Y-66553005D01*
X119695095Y-66553012D01*
X119668699Y-66575992D01*
X119661895Y-66581410D01*
X119652790Y-66588025D01*
X119508025Y-66732790D01*
X119476071Y-66776768D01*
X119476072Y-66776769D01*
X119472952Y-66781063D01*
X119455171Y-66800715D01*
X119410705Y-66866738D01*
X119409661Y-66868176D01*
X119387714Y-66898384D01*
X119387701Y-66898406D01*
X119387554Y-66898699D01*
X119385232Y-66903257D01*
X119379133Y-66913619D01*
X118616576Y-68045907D01*
X118604466Y-68060610D01*
X114205662Y-72459417D01*
X114180605Y-72477621D01*
X114158847Y-72488708D01*
X114113900Y-72499500D01*
X105378172Y-72499500D01*
X105359168Y-72496979D01*
X105359044Y-72497620D01*
X105355565Y-72496942D01*
X104161565Y-72351775D01*
X104106082Y-72325983D01*
X104076355Y-72272504D01*
X104083740Y-72211766D01*
X104125415Y-72166969D01*
X104173514Y-72154499D01*
X104701867Y-72154499D01*
X104701872Y-72154499D01*
X104761483Y-72148091D01*
X104848199Y-72115748D01*
X104894736Y-72098390D01*
X104898025Y-72097231D01*
X104901583Y-72096046D01*
X104909167Y-72088186D01*
X105011546Y-72011546D01*
X105097796Y-71896331D01*
X105097798Y-71896327D01*
X105148089Y-71761488D01*
X105148090Y-71761485D01*
X105148091Y-71761483D01*
X105154500Y-71701873D01*
X105154499Y-70298128D01*
X105148091Y-70238517D01*
X105148088Y-70238510D01*
X105132422Y-70196506D01*
X105101864Y-70114575D01*
X105097797Y-70103670D01*
X105011947Y-69988989D01*
X105011618Y-69988511D01*
X105011541Y-69988449D01*
X104896330Y-69902202D01*
X104896328Y-69902201D01*
X104767927Y-69854311D01*
X104767911Y-69854305D01*
X104761488Y-69851910D01*
X104761483Y-69851909D01*
X104761481Y-69851908D01*
X104761477Y-69851908D01*
X104760474Y-69851800D01*
X104759658Y-69851525D01*
X104756206Y-69851341D01*
X104739312Y-69849524D01*
X104730249Y-69848550D01*
X104730248Y-69848549D01*
X104701876Y-69845500D01*
X104701873Y-69845500D01*
X104701870Y-69845500D01*
X103298133Y-69845500D01*
X103298129Y-69845500D01*
X103289938Y-69845500D01*
X103283975Y-69847021D01*
X103275069Y-69847978D01*
X103238520Y-69851907D01*
X103238514Y-69851908D01*
X103238514Y-69851909D01*
X103238506Y-69851912D01*
X103103671Y-69902200D01*
X102988456Y-69988451D01*
X102988454Y-69988453D01*
X102988451Y-69988456D01*
X102988450Y-69988458D01*
X102973758Y-70008082D01*
X102902200Y-70103671D01*
X102851910Y-70238506D01*
X102851910Y-70238510D01*
X102851909Y-70238511D01*
X102846280Y-70290873D01*
X102846277Y-70290899D01*
X102846177Y-70291836D01*
X102845500Y-70298129D01*
X100000500Y-70298129D01*
X100000500Y-62924559D01*
X102097498Y-62924559D01*
X102105835Y-63002102D01*
X102105997Y-63005133D01*
X102106402Y-63007375D01*
X102106402Y-63007378D01*
X102115275Y-63031169D01*
X102949937Y-62196505D01*
X103004452Y-62168730D01*
X103064884Y-62178301D01*
X103105675Y-62217010D01*
X103139910Y-62276306D01*
X103223694Y-62360090D01*
X103282985Y-62394322D01*
X103323926Y-62439789D01*
X103330322Y-62500639D01*
X103303489Y-62550060D01*
X102468829Y-63384722D01*
X102468829Y-63384723D01*
X102492618Y-63393596D01*
X102492629Y-63393598D01*
X102552176Y-63400000D01*
X104447821Y-63400000D01*
X104447824Y-63400000D01*
X104507374Y-63393598D01*
X104531168Y-63384722D01*
X103696506Y-62550060D01*
X103668731Y-62495546D01*
X103678302Y-62435114D01*
X103717011Y-62394323D01*
X103776306Y-62360090D01*
X103860090Y-62276306D01*
X103894325Y-62217010D01*
X103939792Y-62176071D01*
X104000642Y-62169675D01*
X104050060Y-62196506D01*
X104884723Y-63031169D01*
X104884723Y-63031168D01*
X104886711Y-63030736D01*
X104896552Y-63013310D01*
X104903644Y-63004379D01*
X104954635Y-62970570D01*
X105015761Y-62973188D01*
X105022394Y-62975663D01*
X105022416Y-62975671D01*
X105057814Y-62998422D01*
X105127629Y-63068236D01*
X105127635Y-63068242D01*
X105305978Y-63197815D01*
X105305982Y-63197817D01*
X105335333Y-63212772D01*
X105353940Y-63225073D01*
X105359011Y-63229318D01*
X106633047Y-64017781D01*
X106649015Y-64027663D01*
X106666921Y-64041842D01*
X110982219Y-68357140D01*
X111146086Y-68466632D01*
X111328165Y-68542052D01*
X111478556Y-68571966D01*
X111521459Y-68580500D01*
X111521460Y-68580500D01*
X111718541Y-68580500D01*
X112319804Y-68580500D01*
X112338763Y-68582331D01*
X112929005Y-68697503D01*
X113678636Y-68843775D01*
X113690256Y-68846784D01*
X113695275Y-68848415D01*
X113695461Y-68848476D01*
X113695464Y-68848476D01*
X113695466Y-68848477D01*
X113695467Y-68848477D01*
X113695470Y-68848478D01*
X113732357Y-68854320D01*
X113735769Y-68854922D01*
X113812227Y-68869842D01*
X113833860Y-68873578D01*
X113834884Y-68873732D01*
X113868038Y-68876162D01*
X113876250Y-68877111D01*
X113897645Y-68880500D01*
X113897648Y-68880500D01*
X113897650Y-68880500D01*
X114102355Y-68880500D01*
X114102357Y-68880500D01*
X114169645Y-68869842D01*
X114304529Y-68848478D01*
X114304529Y-68848477D01*
X114304531Y-68848477D01*
X114304534Y-68848477D01*
X114304537Y-68848476D01*
X114307113Y-68848068D01*
X114311920Y-68846076D01*
X114499219Y-68785220D01*
X114681610Y-68692287D01*
X114701739Y-68677663D01*
X114822397Y-68590000D01*
X114847219Y-68571966D01*
X114991966Y-68427219D01*
X115090327Y-68291836D01*
X115112285Y-68261613D01*
X115112287Y-68261610D01*
X115205220Y-68079219D01*
X115268477Y-67884534D01*
X115268478Y-67884528D01*
X115281771Y-67800602D01*
X115300500Y-67682356D01*
X115300500Y-67477641D01*
X115279396Y-67344402D01*
X115268478Y-67275470D01*
X115267147Y-67271373D01*
X115205220Y-67080781D01*
X115112382Y-66898576D01*
X115112291Y-66898395D01*
X115112287Y-66898389D01*
X115112285Y-66898386D01*
X114991970Y-66732786D01*
X114991968Y-66732784D01*
X114991966Y-66732781D01*
X114847219Y-66588034D01*
X114847215Y-66588031D01*
X114847213Y-66588029D01*
X114799016Y-66553012D01*
X114681618Y-66467716D01*
X114681600Y-66467705D01*
X114681335Y-66467572D01*
X114499219Y-66374780D01*
X114304524Y-66311519D01*
X114102358Y-66279500D01*
X114102355Y-66279500D01*
X114102352Y-66279500D01*
X113897648Y-66279500D01*
X113897645Y-66279500D01*
X113897641Y-66279500D01*
X113843956Y-66288001D01*
X113843957Y-66288002D01*
X113838701Y-66288834D01*
X113812228Y-66290157D01*
X113734119Y-66305397D01*
X113732346Y-66305678D01*
X113732329Y-66305682D01*
X113695473Y-66311520D01*
X113695466Y-66311521D01*
X113690270Y-66313210D01*
X113678642Y-66316221D01*
X112338758Y-66577667D01*
X112319798Y-66579500D01*
X112091109Y-66579500D01*
X112060516Y-66574654D01*
X112037289Y-66567107D01*
X111997878Y-66542957D01*
X108081840Y-62626919D01*
X108067661Y-62609013D01*
X107269318Y-61319011D01*
X107253910Y-61296021D01*
X107247950Y-61285869D01*
X107237815Y-61265978D01*
X107108242Y-61087635D01*
X106952365Y-60931758D01*
X106830728Y-60843384D01*
X106782493Y-60808339D01*
X106782486Y-60808334D01*
X106774022Y-60802185D01*
X106774021Y-60802184D01*
X106774019Y-60802183D01*
X106730419Y-60779967D01*
X106684825Y-60756735D01*
X106684825Y-60756736D01*
X106582752Y-60704727D01*
X106581473Y-60703978D01*
X106578528Y-60702552D01*
X106578513Y-60702545D01*
X106577615Y-60702110D01*
X106577606Y-60702105D01*
X106577604Y-60702104D01*
X106577226Y-60701921D01*
X106576438Y-60701646D01*
X106574359Y-60701049D01*
X106367945Y-60633983D01*
X106150228Y-60599500D01*
X106150225Y-60599500D01*
X106150222Y-60599500D01*
X105929778Y-60599500D01*
X105929775Y-60599500D01*
X105929772Y-60599500D01*
X105712053Y-60633983D01*
X105502401Y-60702101D01*
X105305980Y-60802182D01*
X105305976Y-60802184D01*
X105199284Y-60879701D01*
X105127740Y-60931680D01*
X105127634Y-60931756D01*
X105127623Y-60931768D01*
X105060653Y-60998737D01*
X105035597Y-61016941D01*
X105025449Y-61022112D01*
X104965018Y-61031686D01*
X104910500Y-61003909D01*
X104910498Y-61003908D01*
X104905484Y-60998894D01*
X104886396Y-60969192D01*
X104884722Y-60968828D01*
X104050060Y-61803489D01*
X103995544Y-61831266D01*
X103935112Y-61821695D01*
X103894322Y-61782986D01*
X103860090Y-61723694D01*
X103776306Y-61639910D01*
X103761771Y-61631518D01*
X103717010Y-61605675D01*
X103676070Y-61560205D01*
X103669675Y-61499355D01*
X103696505Y-61449937D01*
X104531169Y-60615275D01*
X104531167Y-60615274D01*
X104531168Y-60615274D01*
X104507379Y-60606402D01*
X104507376Y-60606401D01*
X104459383Y-60601242D01*
X104447824Y-60600000D01*
X104447822Y-60600000D01*
X102552175Y-60600000D01*
X102492626Y-60606401D01*
X102468830Y-60615276D01*
X103303490Y-61449936D01*
X103331267Y-61504453D01*
X103321696Y-61564885D01*
X103282988Y-61605676D01*
X103223694Y-61639910D01*
X103139910Y-61723694D01*
X103105676Y-61782988D01*
X103060205Y-61823928D01*
X102999355Y-61830322D01*
X102949936Y-61803490D01*
X102115276Y-60968830D01*
X102106400Y-60992626D01*
X102100000Y-61052174D01*
X102100000Y-62909888D01*
X102098362Y-62914928D01*
X102099471Y-62920113D01*
X102097498Y-62924559D01*
X100000500Y-62924559D01*
X100000500Y-57317640D01*
X112699500Y-57317640D01*
X112699500Y-57522358D01*
X112731519Y-57724524D01*
X112794780Y-57919219D01*
X112887572Y-58101335D01*
X112887705Y-58101600D01*
X112887716Y-58101618D01*
X113008029Y-58267213D01*
X113008031Y-58267215D01*
X113008034Y-58267219D01*
X113152781Y-58411966D01*
X113152784Y-58411968D01*
X113152787Y-58411971D01*
X113153176Y-58412290D01*
X113154376Y-58413125D01*
X113317804Y-58531862D01*
X113318389Y-58532287D01*
X113318395Y-58532291D01*
X113318645Y-58532417D01*
X113500781Y-58625220D01*
X113695466Y-58688477D01*
X113695467Y-58688477D01*
X113695470Y-58688478D01*
X113833221Y-58710296D01*
X113897643Y-58720500D01*
X114102355Y-58720500D01*
X114102357Y-58720500D01*
X114166779Y-58710296D01*
X114304529Y-58688478D01*
X114304529Y-58688477D01*
X114304531Y-58688477D01*
X114304534Y-58688477D01*
X114304537Y-58688476D01*
X114307113Y-58688068D01*
X114311920Y-58686076D01*
X114499219Y-58625220D01*
X114681610Y-58532287D01*
X114682201Y-58531858D01*
X114809405Y-58439439D01*
X114847219Y-58411966D01*
X114991966Y-58267219D01*
X115090150Y-58132079D01*
X115112285Y-58101613D01*
X115112287Y-58101610D01*
X115205220Y-57919219D01*
X115268477Y-57724534D01*
X115268478Y-57724529D01*
X115292258Y-57574394D01*
X115300500Y-57522357D01*
X115300500Y-57317680D01*
X119200000Y-57317680D01*
X119200000Y-57522318D01*
X119232006Y-57724407D01*
X119285064Y-57887701D01*
X119295243Y-57919027D01*
X119359341Y-58044829D01*
X119388138Y-58101346D01*
X119388513Y-58101926D01*
X119389486Y-58103202D01*
X119398443Y-58115530D01*
X119420523Y-58145920D01*
X119420524Y-58145920D01*
X119986540Y-57579903D01*
X120041055Y-57552128D01*
X120101487Y-57561699D01*
X120142278Y-57600409D01*
X120142279Y-57600410D01*
X120179920Y-57665606D01*
X120254394Y-57740080D01*
X120254396Y-57740081D01*
X120319588Y-57777720D01*
X120360529Y-57823189D01*
X120366925Y-57884039D01*
X120340092Y-57933459D01*
X119774077Y-58499474D01*
X119774078Y-58499474D01*
X119774078Y-58499475D01*
X119818647Y-58531858D01*
X119974223Y-58611127D01*
X120000974Y-58624757D01*
X120000978Y-58624759D01*
X120195581Y-58687990D01*
X120195585Y-58687991D01*
X120397682Y-58720000D01*
X120602315Y-58720000D01*
X120602318Y-58720000D01*
X120804413Y-58687991D01*
X120804417Y-58687990D01*
X120999020Y-58624759D01*
X120999022Y-58624757D01*
X120999027Y-58624756D01*
X121181342Y-58531863D01*
X121181350Y-58531858D01*
X121225920Y-58499475D01*
X120659903Y-57933458D01*
X120632128Y-57878944D01*
X120641699Y-57818512D01*
X120680408Y-57777721D01*
X120745606Y-57740080D01*
X120820080Y-57665606D01*
X120857721Y-57600408D01*
X120903189Y-57559468D01*
X120964040Y-57553072D01*
X121013458Y-57579903D01*
X121579475Y-58145920D01*
X121611858Y-58101350D01*
X121611863Y-58101342D01*
X121704756Y-57919027D01*
X121704757Y-57919022D01*
X121704759Y-57919020D01*
X121767990Y-57724417D01*
X121767991Y-57724413D01*
X121800000Y-57522318D01*
X121800000Y-57317680D01*
X121767991Y-57115585D01*
X121767990Y-57115581D01*
X121704759Y-56920978D01*
X121704757Y-56920974D01*
X121611860Y-56738651D01*
X121611855Y-56738643D01*
X121611671Y-56738390D01*
X121579475Y-56694078D01*
X121579474Y-56694078D01*
X121013459Y-57260092D01*
X120958943Y-57287869D01*
X120898511Y-57278298D01*
X120857720Y-57239588D01*
X120820081Y-57174396D01*
X120820080Y-57174394D01*
X120745606Y-57099920D01*
X120745603Y-57099918D01*
X120680409Y-57062278D01*
X120639468Y-57016809D01*
X120633072Y-56955958D01*
X120659902Y-56906542D01*
X121225920Y-56340524D01*
X121225920Y-56340523D01*
X121197986Y-56320228D01*
X121183202Y-56309486D01*
X121181926Y-56308513D01*
X121181346Y-56308138D01*
X120999027Y-56215243D01*
X120804407Y-56152006D01*
X120602318Y-56120000D01*
X120602315Y-56120000D01*
X120397685Y-56120000D01*
X120397681Y-56120000D01*
X120195592Y-56152006D01*
X120000968Y-56215244D01*
X119818912Y-56308005D01*
X119818672Y-56308126D01*
X119818641Y-56308144D01*
X119774078Y-56340522D01*
X119774078Y-56340523D01*
X120340095Y-56906540D01*
X120367871Y-56961055D01*
X120358300Y-57021487D01*
X120319591Y-57062278D01*
X120254395Y-57099919D01*
X120179919Y-57174395D01*
X120142278Y-57239591D01*
X120096808Y-57280531D01*
X120035958Y-57286926D01*
X119986540Y-57260095D01*
X119420523Y-56694078D01*
X119420522Y-56694078D01*
X119388144Y-56738641D01*
X119388126Y-56738672D01*
X119388005Y-56738912D01*
X119295244Y-56920968D01*
X119232006Y-57115591D01*
X119200000Y-57317680D01*
X115300500Y-57317680D01*
X115300500Y-57317641D01*
X115268479Y-57115476D01*
X115268478Y-57115470D01*
X115268477Y-57115466D01*
X115205220Y-56920781D01*
X115112415Y-56738641D01*
X115112291Y-56738396D01*
X115112287Y-56738389D01*
X115112285Y-56738386D01*
X114991970Y-56572786D01*
X114991968Y-56572784D01*
X114991966Y-56572781D01*
X114847219Y-56428034D01*
X114847215Y-56428031D01*
X114847213Y-56428029D01*
X114811240Y-56401893D01*
X114681618Y-56307716D01*
X114681600Y-56307705D01*
X114681335Y-56307572D01*
X114499219Y-56214780D01*
X114304524Y-56151519D01*
X114102358Y-56119500D01*
X114102355Y-56119500D01*
X114102352Y-56119500D01*
X113897648Y-56119500D01*
X113897645Y-56119500D01*
X113897642Y-56119500D01*
X113695474Y-56151519D01*
X113500779Y-56214780D01*
X113318663Y-56307572D01*
X113318404Y-56307701D01*
X113318380Y-56307716D01*
X113152789Y-56428026D01*
X113008026Y-56572789D01*
X112887716Y-56738380D01*
X112887707Y-56738396D01*
X112887579Y-56738651D01*
X112794780Y-56920779D01*
X112731519Y-57115474D01*
X112699500Y-57317640D01*
X100000500Y-57317640D01*
X100000500Y-53893705D01*
X101649500Y-53893705D01*
X101649500Y-54106293D01*
X101682751Y-54316239D01*
X101682752Y-54316243D01*
X101748439Y-54518405D01*
X101748441Y-54518408D01*
X101844808Y-54707541D01*
X101844941Y-54707806D01*
X101844947Y-54707815D01*
X101844948Y-54707816D01*
X101844950Y-54707819D01*
X101969891Y-54879786D01*
X101969893Y-54879788D01*
X101969896Y-54879792D01*
X102120208Y-55030104D01*
X102120211Y-55030106D01*
X102120217Y-55030112D01*
X102120593Y-55030420D01*
X102121791Y-55031254D01*
X102292180Y-55155049D01*
X102292183Y-55155051D01*
X102292189Y-55155055D01*
X102292439Y-55155181D01*
X102481588Y-55251557D01*
X102683757Y-55317246D01*
X102683758Y-55317246D01*
X102683761Y-55317247D01*
X102817947Y-55338500D01*
X102893707Y-55350500D01*
X103106290Y-55350500D01*
X103106293Y-55350500D01*
X103190197Y-55337210D01*
X103316238Y-55317247D01*
X103316238Y-55317246D01*
X103316240Y-55317246D01*
X103316243Y-55317246D01*
X103316246Y-55317245D01*
X103318822Y-55316837D01*
X103323629Y-55314845D01*
X103518412Y-55251557D01*
X103707816Y-55155051D01*
X103879792Y-55030104D01*
X104030104Y-54879792D01*
X104155051Y-54707816D01*
X104251557Y-54518412D01*
X104317246Y-54316243D01*
X104317247Y-54316238D01*
X104350500Y-54106290D01*
X104350500Y-53893705D01*
X197649500Y-53893705D01*
X197649500Y-54106293D01*
X197682751Y-54316239D01*
X197682752Y-54316243D01*
X197748439Y-54518405D01*
X197748441Y-54518408D01*
X197844808Y-54707541D01*
X197844941Y-54707806D01*
X197844947Y-54707815D01*
X197844948Y-54707816D01*
X197844950Y-54707819D01*
X197969891Y-54879786D01*
X197969893Y-54879788D01*
X197969896Y-54879792D01*
X198120208Y-55030104D01*
X198120211Y-55030106D01*
X198120217Y-55030112D01*
X198120593Y-55030420D01*
X198121791Y-55031254D01*
X198292180Y-55155049D01*
X198292183Y-55155051D01*
X198292189Y-55155055D01*
X198292439Y-55155181D01*
X198481588Y-55251557D01*
X198683757Y-55317246D01*
X198683758Y-55317246D01*
X198683761Y-55317247D01*
X198817947Y-55338500D01*
X198893707Y-55350500D01*
X199106290Y-55350500D01*
X199106293Y-55350500D01*
X199190197Y-55337210D01*
X199316238Y-55317247D01*
X199316238Y-55317246D01*
X199316240Y-55317246D01*
X199316243Y-55317246D01*
X199316246Y-55317245D01*
X199318822Y-55316837D01*
X199323629Y-55314845D01*
X199518412Y-55251557D01*
X199707816Y-55155051D01*
X199879792Y-55030104D01*
X200030104Y-54879792D01*
X200155051Y-54707816D01*
X200251557Y-54518412D01*
X200317246Y-54316243D01*
X200317247Y-54316238D01*
X200350500Y-54106290D01*
X200350500Y-53893705D01*
X200317248Y-53683767D01*
X200317247Y-53683761D01*
X200317246Y-53683757D01*
X200251557Y-53481588D01*
X200155181Y-53292439D01*
X200155055Y-53292189D01*
X200155051Y-53292183D01*
X200155049Y-53292180D01*
X200030108Y-53120213D01*
X200030106Y-53120211D01*
X200030104Y-53120208D01*
X199879792Y-52969896D01*
X199879788Y-52969893D01*
X199879786Y-52969891D01*
X199707819Y-52844950D01*
X199707815Y-52844947D01*
X199707806Y-52844941D01*
X199707541Y-52844808D01*
X199518408Y-52748441D01*
X199518405Y-52748439D01*
X199316243Y-52682752D01*
X199316239Y-52682751D01*
X199106293Y-52649500D01*
X199106290Y-52649500D01*
X199106287Y-52649500D01*
X198893713Y-52649500D01*
X198893710Y-52649500D01*
X198893707Y-52649500D01*
X198683765Y-52682750D01*
X198481583Y-52748444D01*
X198292456Y-52844808D01*
X198292201Y-52844936D01*
X198292183Y-52844947D01*
X198120214Y-52969890D01*
X197969890Y-53120214D01*
X197844947Y-53292183D01*
X197844936Y-53292201D01*
X197844808Y-53292456D01*
X197748443Y-53481584D01*
X197748439Y-53481593D01*
X197682752Y-53683755D01*
X197682751Y-53683759D01*
X197649500Y-53893705D01*
X104350500Y-53893705D01*
X104317248Y-53683767D01*
X104317247Y-53683761D01*
X104317246Y-53683757D01*
X104251557Y-53481588D01*
X104155181Y-53292439D01*
X104155055Y-53292189D01*
X104155051Y-53292183D01*
X104155049Y-53292180D01*
X104030108Y-53120213D01*
X104030106Y-53120211D01*
X104030104Y-53120208D01*
X103879792Y-52969896D01*
X103879788Y-52969893D01*
X103879786Y-52969891D01*
X103707819Y-52844950D01*
X103707815Y-52844947D01*
X103707806Y-52844941D01*
X103707541Y-52844808D01*
X103518408Y-52748441D01*
X103518405Y-52748439D01*
X103316243Y-52682752D01*
X103316239Y-52682751D01*
X103106293Y-52649500D01*
X103106290Y-52649500D01*
X103106287Y-52649500D01*
X102893713Y-52649500D01*
X102893710Y-52649500D01*
X102893707Y-52649500D01*
X102683765Y-52682750D01*
X102481583Y-52748444D01*
X102292456Y-52844808D01*
X102292201Y-52844936D01*
X102292183Y-52844947D01*
X102120214Y-52969890D01*
X101969890Y-53120214D01*
X101844947Y-53292183D01*
X101844936Y-53292201D01*
X101844808Y-53292456D01*
X101748443Y-53481584D01*
X101748439Y-53481593D01*
X101682752Y-53683755D01*
X101682751Y-53683759D01*
X101649500Y-53893705D01*
X100000500Y-53893705D01*
X100000500Y-52505303D01*
X100000562Y-52501789D01*
X100000563Y-52501763D01*
X100000690Y-52498212D01*
X100000875Y-52494757D01*
X100005213Y-52434108D01*
X100015006Y-52297161D01*
X100015759Y-52290167D01*
X100016764Y-52283176D01*
X100018009Y-52276268D01*
X100058992Y-52087870D01*
X100060730Y-52081064D01*
X100062721Y-52074285D01*
X100064937Y-52067626D01*
X100132306Y-51887001D01*
X100135004Y-51880490D01*
X100137927Y-51874090D01*
X100141081Y-51867787D01*
X100233466Y-51698598D01*
X100237047Y-51692561D01*
X100240877Y-51686602D01*
X100244881Y-51680836D01*
X100360402Y-51526518D01*
X100364822Y-51521034D01*
X100369436Y-51515709D01*
X100374238Y-51510549D01*
X100510549Y-51374238D01*
X100515709Y-51369436D01*
X100521034Y-51364822D01*
X100526518Y-51360402D01*
X100680836Y-51244881D01*
X100686602Y-51240877D01*
X100692561Y-51237047D01*
X100698598Y-51233466D01*
X100867787Y-51141081D01*
X100874090Y-51137927D01*
X100880490Y-51135004D01*
X100887001Y-51132306D01*
X101067626Y-51064937D01*
X101074290Y-51062719D01*
X101081064Y-51060730D01*
X101087870Y-51058992D01*
X101276268Y-51018009D01*
X101283166Y-51016765D01*
X101290175Y-51015757D01*
X101297159Y-51015007D01*
X101473568Y-51002390D01*
X101494767Y-51000874D01*
X101498213Y-51000690D01*
X101501806Y-51000561D01*
X101505304Y-51000500D01*
X200494696Y-51000500D01*
X200498194Y-51000561D01*
G37*
%TD.AperFunction*%
%TD*%
%TA.AperFunction,Conductor*%
%TO.N,Net-(D10-K)*%
G36*
X161990734Y-112630953D02*
G01*
X162877882Y-112997437D01*
X162884220Y-113003763D01*
X162884229Y-113003784D01*
X163250712Y-113890930D01*
X163250703Y-113899885D01*
X163246179Y-113905268D01*
X161706742Y-114884910D01*
X161697923Y-114886460D01*
X161692188Y-114883312D01*
X160998354Y-114189478D01*
X160994927Y-114181205D01*
X160996755Y-114174926D01*
X161976398Y-112635486D01*
X161983731Y-112630347D01*
X161990734Y-112630953D01*
G37*
%TD.AperFunction*%
%TD*%
%TA.AperFunction,Conductor*%
%TO.N,Net-(D10-K)*%
G36*
X181833774Y-112630963D02*
G01*
X181839157Y-112635487D01*
X182818799Y-114174924D01*
X182820349Y-114183743D01*
X182817201Y-114189478D01*
X182123367Y-114883312D01*
X182115094Y-114886739D01*
X182108813Y-114884910D01*
X180569376Y-113905268D01*
X180564236Y-113897935D01*
X180564842Y-113890932D01*
X180931327Y-113003782D01*
X180937651Y-112997446D01*
X181824821Y-112630954D01*
X181833774Y-112630963D01*
G37*
%TD.AperFunction*%
%TD*%
%TA.AperFunction,Conductor*%
%TO.N,Net-(D10-K)*%
G36*
X190460669Y-111203427D02*
G01*
X190463088Y-111206948D01*
X190856738Y-112092661D01*
X190856966Y-112101613D01*
X190854324Y-112105682D01*
X189968278Y-112992712D01*
X189960006Y-112996143D01*
X189951731Y-112992721D01*
X189951722Y-112992712D01*
X189476795Y-112517258D01*
X189065674Y-112105680D01*
X189062253Y-112097407D01*
X189063260Y-112092664D01*
X189456912Y-111206948D01*
X189463404Y-111200780D01*
X189467604Y-111200000D01*
X190452396Y-111200000D01*
X190460669Y-111203427D01*
G37*
%TD.AperFunction*%
%TD*%
%TA.AperFunction,Conductor*%
%TO.N,Net-(D10-K)*%
G36*
X189962248Y-100995809D02*
G01*
X190755043Y-101229135D01*
X190762012Y-101234758D01*
X190763157Y-101242917D01*
X190462048Y-102587006D01*
X190456895Y-102594330D01*
X190450631Y-102596148D01*
X189469891Y-102596148D01*
X189461618Y-102592721D01*
X189458354Y-102586395D01*
X189205914Y-101090634D01*
X189207916Y-101081906D01*
X189215504Y-101077150D01*
X189216151Y-101077059D01*
X189957672Y-100995404D01*
X189962248Y-100995809D01*
G37*
%TD.AperFunction*%
%TD*%
%TA.AperFunction,Conductor*%
%TO.N,Net-(D10-K)*%
G36*
X152964623Y-112630953D02*
G01*
X153851771Y-112997437D01*
X153858109Y-113003763D01*
X153858118Y-113003784D01*
X154224601Y-113890930D01*
X154224592Y-113899885D01*
X154220068Y-113905268D01*
X152680631Y-114884910D01*
X152671812Y-114886460D01*
X152666077Y-114883312D01*
X151972243Y-114189478D01*
X151968816Y-114181205D01*
X151970644Y-114174926D01*
X152950287Y-112635486D01*
X152957620Y-112630347D01*
X152964623Y-112630953D01*
G37*
%TD.AperFunction*%
%TD*%
%TA.AperFunction,Conductor*%
%TO.N,Net-(D10-K)*%
G36*
X189069067Y-112630953D02*
G01*
X189956215Y-112997437D01*
X189962553Y-113003763D01*
X189962562Y-113003784D01*
X190329045Y-113890930D01*
X190329036Y-113899885D01*
X190324512Y-113905268D01*
X188785075Y-114884910D01*
X188776256Y-114886460D01*
X188770521Y-114883312D01*
X188076687Y-114189478D01*
X188073260Y-114181205D01*
X188075088Y-114174926D01*
X189054731Y-112635486D01*
X189062064Y-112630347D01*
X189069067Y-112630953D01*
G37*
%TD.AperFunction*%
%TD*%
%TA.AperFunction,Conductor*%
%TO.N,Net-(D10-K)*%
G36*
X125886289Y-112630953D02*
G01*
X126773437Y-112997437D01*
X126779775Y-113003763D01*
X126779784Y-113003784D01*
X127146267Y-113890930D01*
X127146258Y-113899885D01*
X127141734Y-113905268D01*
X125602297Y-114884910D01*
X125593478Y-114886460D01*
X125587743Y-114883312D01*
X124893909Y-114189478D01*
X124890482Y-114181205D01*
X124892310Y-114174926D01*
X125871953Y-112635486D01*
X125879286Y-112630347D01*
X125886289Y-112630953D01*
G37*
%TD.AperFunction*%
%TD*%
%TA.AperFunction,Conductor*%
%TO.N,Net-(D10-K)*%
G36*
X136703218Y-112630963D02*
G01*
X136708601Y-112635487D01*
X137688243Y-114174924D01*
X137689793Y-114183743D01*
X137686645Y-114189478D01*
X136992811Y-114883312D01*
X136984538Y-114886739D01*
X136978257Y-114884910D01*
X135438820Y-113905268D01*
X135433680Y-113897935D01*
X135434286Y-113890932D01*
X135800771Y-113003782D01*
X135807095Y-112997446D01*
X136694265Y-112630954D01*
X136703218Y-112630963D01*
G37*
%TD.AperFunction*%
%TD*%
%TA.AperFunction,Conductor*%
%TO.N,Net-(D10-K)*%
G36*
X109624885Y-112630963D02*
G01*
X109630268Y-112635487D01*
X110609910Y-114174924D01*
X110611460Y-114183743D01*
X110608312Y-114189478D01*
X109914478Y-114883312D01*
X109906205Y-114886739D01*
X109899924Y-114884910D01*
X108360487Y-113905268D01*
X108355347Y-113897935D01*
X108355953Y-113890932D01*
X108722438Y-113003782D01*
X108728762Y-112997446D01*
X109615932Y-112630954D01*
X109624885Y-112630963D01*
G37*
%TD.AperFunction*%
%TD*%
%TA.AperFunction,Conductor*%
%TO.N,Net-(D10-K)*%
G36*
X154755441Y-112630963D02*
G01*
X154760824Y-112635487D01*
X155740466Y-114174924D01*
X155742016Y-114183743D01*
X155738868Y-114189478D01*
X155045034Y-114883312D01*
X155036761Y-114886739D01*
X155030480Y-114884910D01*
X153491043Y-113905268D01*
X153485903Y-113897935D01*
X153486509Y-113890932D01*
X153852994Y-113003782D01*
X153859318Y-112997446D01*
X154746488Y-112630954D01*
X154755441Y-112630963D01*
G37*
%TD.AperFunction*%
%TD*%
%TA.AperFunction,Conductor*%
%TO.N,Net-(D10-K)*%
G36*
X127677107Y-112630963D02*
G01*
X127682490Y-112635487D01*
X128662132Y-114174924D01*
X128663682Y-114183743D01*
X128660534Y-114189478D01*
X127966700Y-114883312D01*
X127958427Y-114886739D01*
X127952146Y-114884910D01*
X126412709Y-113905268D01*
X126407569Y-113897935D01*
X126408175Y-113890932D01*
X126774660Y-113003782D01*
X126780984Y-112997446D01*
X127668154Y-112630954D01*
X127677107Y-112630963D01*
G37*
%TD.AperFunction*%
%TD*%
%TA.AperFunction,Conductor*%
%TO.N,Net-(D10-K)*%
G36*
X180042956Y-112630953D02*
G01*
X180930104Y-112997437D01*
X180936442Y-113003763D01*
X180936451Y-113003784D01*
X181302934Y-113890930D01*
X181302925Y-113899885D01*
X181298401Y-113905268D01*
X179758964Y-114884910D01*
X179750145Y-114886460D01*
X179744410Y-114883312D01*
X179050576Y-114189478D01*
X179047149Y-114181205D01*
X179048977Y-114174926D01*
X180028620Y-112635486D01*
X180035953Y-112630347D01*
X180042956Y-112630953D01*
G37*
%TD.AperFunction*%
%TD*%
%TA.AperFunction,Conductor*%
%TO.N,Net-(D10-K)*%
G36*
X134912400Y-112630953D02*
G01*
X135799548Y-112997437D01*
X135805886Y-113003763D01*
X135805895Y-113003784D01*
X136172378Y-113890930D01*
X136172369Y-113899885D01*
X136167845Y-113905268D01*
X134628408Y-114884910D01*
X134619589Y-114886460D01*
X134613854Y-114883312D01*
X133920020Y-114189478D01*
X133916593Y-114181205D01*
X133918421Y-114174926D01*
X134898064Y-112635486D01*
X134905397Y-112630347D01*
X134912400Y-112630953D01*
G37*
%TD.AperFunction*%
%TD*%
%TA.AperFunction,Conductor*%
%TO.N,Net-(D10-K)*%
G36*
X143938511Y-112630953D02*
G01*
X144825659Y-112997437D01*
X144831997Y-113003763D01*
X144832006Y-113003784D01*
X145198489Y-113890930D01*
X145198480Y-113899885D01*
X145193956Y-113905268D01*
X143654519Y-114884910D01*
X143645700Y-114886460D01*
X143639965Y-114883312D01*
X142946131Y-114189478D01*
X142942704Y-114181205D01*
X142944532Y-114174926D01*
X143924175Y-112635486D01*
X143931508Y-112630347D01*
X143938511Y-112630953D01*
G37*
%TD.AperFunction*%
%TD*%
%TA.AperFunction,Conductor*%
%TO.N,Net-(D10-K)*%
G36*
X163781552Y-112630963D02*
G01*
X163786935Y-112635487D01*
X164766577Y-114174924D01*
X164768127Y-114183743D01*
X164764979Y-114189478D01*
X164071145Y-114883312D01*
X164062872Y-114886739D01*
X164056591Y-114884910D01*
X162517154Y-113905268D01*
X162512014Y-113897935D01*
X162512620Y-113890932D01*
X162879105Y-113003782D01*
X162885429Y-112997446D01*
X163772599Y-112630954D01*
X163781552Y-112630963D01*
G37*
%TD.AperFunction*%
%TD*%
%TA.AperFunction,Conductor*%
%TO.N,Net-(D10-K)*%
G36*
X118650996Y-112630963D02*
G01*
X118656379Y-112635487D01*
X119636021Y-114174924D01*
X119637571Y-114183743D01*
X119634423Y-114189478D01*
X118940589Y-114883312D01*
X118932316Y-114886739D01*
X118926035Y-114884910D01*
X117386598Y-113905268D01*
X117381458Y-113897935D01*
X117382064Y-113890932D01*
X117748549Y-113003782D01*
X117754873Y-112997446D01*
X118642043Y-112630954D01*
X118650996Y-112630963D01*
G37*
%TD.AperFunction*%
%TD*%
%TA.AperFunction,Conductor*%
%TO.N,Net-(D10-K)*%
G36*
X172807663Y-112630963D02*
G01*
X172813046Y-112635487D01*
X173792688Y-114174924D01*
X173794238Y-114183743D01*
X173791090Y-114189478D01*
X173097256Y-114883312D01*
X173088983Y-114886739D01*
X173082702Y-114884910D01*
X171543265Y-113905268D01*
X171538125Y-113897935D01*
X171538731Y-113890932D01*
X171905216Y-113003782D01*
X171911540Y-112997446D01*
X172798710Y-112630954D01*
X172807663Y-112630963D01*
G37*
%TD.AperFunction*%
%TD*%
%TA.AperFunction,Conductor*%
%TO.N,Net-(D10-K)*%
G36*
X145729329Y-112630963D02*
G01*
X145734712Y-112635487D01*
X146714354Y-114174924D01*
X146715904Y-114183743D01*
X146712756Y-114189478D01*
X146018922Y-114883312D01*
X146010649Y-114886739D01*
X146004368Y-114884910D01*
X144464931Y-113905268D01*
X144459791Y-113897935D01*
X144460397Y-113890932D01*
X144826882Y-113003782D01*
X144833206Y-112997446D01*
X145720376Y-112630954D01*
X145729329Y-112630963D01*
G37*
%TD.AperFunction*%
%TD*%
%TA.AperFunction,Conductor*%
%TO.N,Net-(D10-K)*%
G36*
X171016845Y-112630953D02*
G01*
X171903993Y-112997437D01*
X171910331Y-113003763D01*
X171910340Y-113003784D01*
X172276823Y-113890930D01*
X172276814Y-113899885D01*
X172272290Y-113905268D01*
X170732853Y-114884910D01*
X170724034Y-114886460D01*
X170718299Y-114883312D01*
X170024465Y-114189478D01*
X170021038Y-114181205D01*
X170022866Y-114174926D01*
X171002509Y-112635486D01*
X171009842Y-112630347D01*
X171016845Y-112630953D01*
G37*
%TD.AperFunction*%
%TD*%
%TA.AperFunction,Conductor*%
%TO.N,Net-(D10-K)*%
G36*
X116860178Y-112630953D02*
G01*
X117747326Y-112997437D01*
X117753664Y-113003763D01*
X117753673Y-113003784D01*
X118120156Y-113890930D01*
X118120147Y-113899885D01*
X118115623Y-113905268D01*
X116576186Y-114884910D01*
X116567367Y-114886460D01*
X116561632Y-114883312D01*
X115867798Y-114189478D01*
X115864371Y-114181205D01*
X115866199Y-114174926D01*
X116845842Y-112635486D01*
X116853175Y-112630347D01*
X116860178Y-112630953D01*
G37*
%TD.AperFunction*%
%TD*%
%TA.AperFunction,Conductor*%
%TO.N,Net-(D2-A)*%
G36*
X141286073Y-65238464D02*
G01*
X141289486Y-65240334D01*
X142185811Y-65947939D01*
X142239770Y-65990537D01*
X142242732Y-65994010D01*
X142243601Y-65995564D01*
X142244648Y-66004456D01*
X142244184Y-66006098D01*
X142242016Y-66010281D01*
X141844068Y-66501483D01*
X141843250Y-66502391D01*
X141842391Y-66503250D01*
X141841483Y-66504068D01*
X141350334Y-66901973D01*
X141346296Y-66904099D01*
X141344590Y-66904605D01*
X141335684Y-66903672D01*
X141335683Y-66903672D01*
X141334181Y-66902857D01*
X141330579Y-66899824D01*
X141017846Y-66503684D01*
X140580553Y-65949764D01*
X140578479Y-65945700D01*
X140577886Y-65943604D01*
X140578615Y-65935318D01*
X140579160Y-65934193D01*
X140581413Y-65931024D01*
X141270773Y-65241664D01*
X141274564Y-65239131D01*
X141276579Y-65238296D01*
X141284892Y-65238054D01*
X141286073Y-65238464D01*
G37*
%TD.AperFunction*%
%TD*%
%TA.AperFunction,Conductor*%
%TO.N,Net-(U1-THRES)*%
G36*
X190278737Y-65752364D02*
G01*
X190284586Y-65759145D01*
X190284652Y-65759353D01*
X190503558Y-66466038D01*
X190503558Y-66472962D01*
X190284652Y-67179646D01*
X190278931Y-67186535D01*
X190270014Y-67187360D01*
X190269806Y-67187294D01*
X190267508Y-67186535D01*
X189610500Y-66969500D01*
X189534690Y-67238610D01*
X189529148Y-67245644D01*
X189520255Y-67246699D01*
X189515155Y-67243710D01*
X188830442Y-66558997D01*
X188827015Y-66550724D01*
X188830442Y-66542451D01*
X188906855Y-66466038D01*
X189255304Y-66117589D01*
X189259095Y-66115057D01*
X189610119Y-65969657D01*
X189610868Y-65969378D01*
X190269808Y-65751705D01*
X190278737Y-65752364D01*
G37*
%TD.AperFunction*%
%TD*%
%TA.AperFunction,Conductor*%
%TO.N,Net-(U1-THRES)*%
G36*
X175814934Y-70232256D02*
G01*
X175815546Y-70233084D01*
X176566677Y-71348408D01*
X176666816Y-71497099D01*
X176668595Y-71505876D01*
X176665385Y-71511908D01*
X175971908Y-72205385D01*
X175963635Y-72208812D01*
X175957099Y-72206816D01*
X174693087Y-71355548D01*
X174688141Y-71348086D01*
X174689920Y-71339309D01*
X174690535Y-71338477D01*
X175185802Y-70727514D01*
X175187514Y-70725802D01*
X175798477Y-70230534D01*
X175807062Y-70227987D01*
X175814934Y-70232256D01*
G37*
%TD.AperFunction*%
%TD*%
%TA.AperFunction,Conductor*%
%TO.N,Net-(U1-THRES)*%
G36*
X191085952Y-65998823D02*
G01*
X191085956Y-65998825D01*
X191087207Y-65999504D01*
X191091202Y-66003064D01*
X191417383Y-66467651D01*
X191824318Y-67047258D01*
X191910316Y-67169746D01*
X191912160Y-67173923D01*
X191912675Y-67176233D01*
X191911635Y-67184178D01*
X191911182Y-67185049D01*
X191909075Y-67187923D01*
X191218793Y-67878205D01*
X191214995Y-67880742D01*
X191212809Y-67881647D01*
X191204814Y-67881995D01*
X191203876Y-67881698D01*
X191200676Y-67880118D01*
X191197951Y-67878205D01*
X190033830Y-67060889D01*
X190030677Y-67057586D01*
X190029722Y-67056082D01*
X190028180Y-67047261D01*
X190028181Y-67047258D01*
X190028491Y-67045871D01*
X190030819Y-67041057D01*
X190495578Y-66467641D01*
X190496376Y-66466755D01*
X190497255Y-66465876D01*
X190498141Y-66465078D01*
X190907094Y-66133618D01*
X191070184Y-66001433D01*
X191070985Y-66000783D01*
X191071297Y-66000529D01*
X191075339Y-65998398D01*
X191077047Y-65997892D01*
X191085952Y-65998823D01*
G37*
%TD.AperFunction*%
%TD*%
%TA.AperFunction,Conductor*%
%TO.N,Net-(U1-THRES)*%
G36*
X183589577Y-71793373D02*
G01*
X183590365Y-71793793D01*
X183593143Y-71795849D01*
X184283739Y-72486445D01*
X184286276Y-72490243D01*
X184287205Y-72492487D01*
X184287584Y-72500381D01*
X184287324Y-72501232D01*
X184285839Y-72504349D01*
X183436848Y-73764981D01*
X183433608Y-73768197D01*
X183432125Y-73769180D01*
X183423336Y-73770895D01*
X183422024Y-73770629D01*
X183416981Y-73768251D01*
X182807988Y-73274581D01*
X182807083Y-73273765D01*
X182806233Y-73272915D01*
X182805417Y-73272010D01*
X182311999Y-72663328D01*
X182309872Y-72659289D01*
X182309365Y-72657580D01*
X182310298Y-72648675D01*
X182310936Y-72647498D01*
X182314682Y-72643376D01*
X183575173Y-71794480D01*
X183579378Y-71792720D01*
X183581763Y-71792237D01*
X183589577Y-71793373D01*
G37*
%TD.AperFunction*%
%TD*%
%TA.AperFunction,Conductor*%
%TO.N,Net-(U1-THRES)*%
G36*
X182727814Y-72478079D02*
G01*
X182732761Y-72485542D01*
X182732915Y-72486566D01*
X182814724Y-73268783D01*
X182814724Y-73271217D01*
X182732915Y-74053433D01*
X182728646Y-74061305D01*
X182720061Y-74063853D01*
X182719037Y-74063699D01*
X181223311Y-73771845D01*
X181215848Y-73766898D01*
X181213852Y-73760362D01*
X181213852Y-72779637D01*
X181217279Y-72771364D01*
X181223310Y-72768154D01*
X182719038Y-72476300D01*
X182727814Y-72478079D01*
G37*
%TD.AperFunction*%
%TD*%
%TA.AperFunction,Conductor*%
%TO.N,/OUT*%
G36*
X175101317Y-72476762D02*
G01*
X175103064Y-72477116D01*
X175105612Y-72478832D01*
X175110490Y-72482116D01*
X175111229Y-72483231D01*
X175113115Y-72488479D01*
X175194661Y-73268180D01*
X175194724Y-73269397D01*
X175194724Y-73270602D01*
X175194661Y-73271819D01*
X175113157Y-74051118D01*
X175111804Y-74055480D01*
X175110954Y-74057047D01*
X175103997Y-74062684D01*
X175103354Y-74062875D01*
X175102715Y-74063065D01*
X175097150Y-74063330D01*
X173605594Y-73772290D01*
X173601369Y-73770558D01*
X173599345Y-73769216D01*
X173594619Y-73762875D01*
X173594360Y-73762025D01*
X173593852Y-73758615D01*
X173593852Y-72781964D01*
X173594741Y-72777490D01*
X173595672Y-72775242D01*
X173600984Y-72769391D01*
X173601777Y-72768969D01*
X173605020Y-72767820D01*
X175096752Y-72476746D01*
X175101317Y-72476762D01*
G37*
%TD.AperFunction*%
%TD*%
%TA.AperFunction,Conductor*%
%TO.N,/OUT*%
G36*
X142407583Y-57620022D02*
G01*
X143099977Y-58312416D01*
X143103404Y-58320689D01*
X143100887Y-58327939D01*
X142348020Y-59281597D01*
X142340204Y-59285967D01*
X142331587Y-59283530D01*
X142331472Y-59283438D01*
X141838041Y-58883684D01*
X141836315Y-58881958D01*
X141436561Y-58388527D01*
X141434016Y-58379942D01*
X141438287Y-58372071D01*
X141438317Y-58372046D01*
X142392062Y-57619111D01*
X142400677Y-57616675D01*
X142407583Y-57620022D01*
G37*
%TD.AperFunction*%
%TD*%
%TA.AperFunction,Conductor*%
%TO.N,+5V*%
G36*
X104075838Y-75350575D02*
G01*
X105294563Y-75498749D01*
X105302362Y-75503149D01*
X105304851Y-75510363D01*
X105304851Y-76489636D01*
X105301424Y-76497909D01*
X105294563Y-76501250D01*
X104075910Y-76649415D01*
X104067284Y-76647012D01*
X104062884Y-76639213D01*
X104062862Y-76639021D01*
X103995978Y-76001211D01*
X103995978Y-75998788D01*
X104062862Y-75360976D01*
X104067133Y-75353107D01*
X104075718Y-75350562D01*
X104075838Y-75350575D01*
G37*
%TD.AperFunction*%
%TD*%
%TA.AperFunction,Conductor*%
%TO.N,+5V*%
G36*
X112481730Y-86202149D02*
G01*
X113175350Y-86895769D01*
X113178777Y-86904042D01*
X113176849Y-86910477D01*
X112232812Y-88344016D01*
X112225399Y-88349041D01*
X112218573Y-88348395D01*
X112207971Y-88344016D01*
X111381283Y-88002561D01*
X111374946Y-87996236D01*
X111029104Y-87158924D01*
X111029113Y-87149971D01*
X111033479Y-87144691D01*
X112467024Y-86200649D01*
X112475816Y-86198962D01*
X112481730Y-86202149D01*
G37*
%TD.AperFunction*%
%TD*%
%TA.AperFunction,Conductor*%
%TO.N,Net-(U1-CONT)*%
G36*
X183588626Y-75809052D02*
G01*
X183596740Y-75812842D01*
X183599797Y-75821259D01*
X183597669Y-75827484D01*
X182869186Y-76860453D01*
X182861618Y-76865239D01*
X182852882Y-76863271D01*
X182852291Y-76862826D01*
X182399428Y-76498467D01*
X182395130Y-76490611D01*
X182397646Y-76482017D01*
X182397875Y-76481742D01*
X182996293Y-75787253D01*
X183004287Y-75783224D01*
X183005663Y-75783203D01*
X183588626Y-75809052D01*
G37*
%TD.AperFunction*%
%TD*%
%TA.AperFunction,Conductor*%
%TO.N,Net-(U1-CONT)*%
G36*
X181498636Y-83907279D02*
G01*
X181501846Y-83913311D01*
X181793699Y-85409037D01*
X181791920Y-85417814D01*
X181784457Y-85422761D01*
X181783433Y-85422915D01*
X181001217Y-85504724D01*
X180998783Y-85504724D01*
X180216566Y-85422915D01*
X180208694Y-85418646D01*
X180206146Y-85410061D01*
X180206297Y-85409050D01*
X180498154Y-83913310D01*
X180503101Y-83905848D01*
X180509637Y-83903852D01*
X181490363Y-83903852D01*
X181498636Y-83907279D01*
G37*
%TD.AperFunction*%
%TD*%
%TA.AperFunction,Conductor*%
%TO.N,Net-(U1-DISCH)*%
G36*
X192297847Y-65057845D02*
G01*
X193468072Y-65879446D01*
X193472874Y-65887005D01*
X193470925Y-65895745D01*
X193470438Y-65896389D01*
X193004044Y-66471822D01*
X193002322Y-66473544D01*
X192426889Y-66939938D01*
X192418304Y-66942485D01*
X192410433Y-66938216D01*
X192409946Y-66937572D01*
X191588345Y-65767347D01*
X191586396Y-65758607D01*
X191589646Y-65752353D01*
X192282852Y-65059147D01*
X192291124Y-65055721D01*
X192297847Y-65057845D01*
G37*
%TD.AperFunction*%
%TD*%
%TA.AperFunction,Conductor*%
%TO.N,Net-(U1-DISCH)*%
G36*
X183591908Y-69254614D02*
G01*
X184285385Y-69948091D01*
X184288812Y-69956364D01*
X184286816Y-69962900D01*
X183435549Y-71226911D01*
X183428086Y-71231858D01*
X183419309Y-71230079D01*
X183418477Y-71229464D01*
X182807519Y-70734201D01*
X182805798Y-70732480D01*
X182310535Y-70121522D01*
X182307987Y-70112937D01*
X182312256Y-70105065D01*
X182313068Y-70104464D01*
X183577101Y-69253182D01*
X183585876Y-69251404D01*
X183591908Y-69254614D01*
G37*
%TD.AperFunction*%
%TD*%
%TA.AperFunction,Conductor*%
%TO.N,Net-(U1-DISCH)*%
G36*
X188623433Y-59077084D02*
G01*
X188631305Y-59081353D01*
X188633853Y-59089938D01*
X188633699Y-59090962D01*
X188341846Y-60586689D01*
X188336899Y-60594152D01*
X188330363Y-60596148D01*
X187349637Y-60596148D01*
X187341364Y-60592721D01*
X187338154Y-60586689D01*
X187046300Y-59090962D01*
X187048079Y-59082185D01*
X187055542Y-59077238D01*
X187056559Y-59077084D01*
X187838786Y-58995275D01*
X187841214Y-58995275D01*
X188623433Y-59077084D01*
G37*
%TD.AperFunction*%
%TD*%
%TA.AperFunction,Conductor*%
%TO.N,Net-(D3-A)*%
G36*
X138747937Y-65239111D02*
G01*
X139645811Y-65947939D01*
X139701597Y-65991979D01*
X139705967Y-65999795D01*
X139703530Y-66008412D01*
X139703438Y-66008527D01*
X139303684Y-66501958D01*
X139301958Y-66503684D01*
X138808527Y-66903438D01*
X138799942Y-66905983D01*
X138792071Y-66901712D01*
X138791979Y-66901597D01*
X138477846Y-66503684D01*
X138039111Y-65947937D01*
X138036675Y-65939322D01*
X138040021Y-65932417D01*
X138732417Y-65240021D01*
X138740689Y-65236595D01*
X138747937Y-65239111D01*
G37*
%TD.AperFunction*%
%TD*%
%TA.AperFunction,Conductor*%
%TO.N,Net-(D4-A)*%
G36*
X143888412Y-66096469D02*
G01*
X143888527Y-66096561D01*
X144381958Y-66496315D01*
X144383684Y-66498041D01*
X144783438Y-66991472D01*
X144785983Y-67000057D01*
X144781712Y-67007928D01*
X144781597Y-67008020D01*
X143827939Y-67760887D01*
X143819322Y-67763324D01*
X143812416Y-67759977D01*
X143120022Y-67067583D01*
X143116595Y-67059310D01*
X143119110Y-67052063D01*
X143871980Y-66098401D01*
X143879795Y-66094032D01*
X143888412Y-66096469D01*
G37*
%TD.AperFunction*%
%TD*%
%TA.AperFunction,Conductor*%
%TO.N,Net-(D5-A)*%
G36*
X151508412Y-66096469D02*
G01*
X151508527Y-66096561D01*
X152001958Y-66496315D01*
X152003684Y-66498041D01*
X152403438Y-66991472D01*
X152405983Y-67000057D01*
X152401712Y-67007928D01*
X152401597Y-67008020D01*
X151447939Y-67760887D01*
X151439322Y-67763324D01*
X151432416Y-67759977D01*
X150740022Y-67067583D01*
X150736595Y-67059310D01*
X150739110Y-67052063D01*
X151491980Y-66098401D01*
X151499795Y-66094032D01*
X151508412Y-66096469D01*
G37*
%TD.AperFunction*%
%TD*%
%TA.AperFunction,Conductor*%
%TO.N,Net-(D6-A)*%
G36*
X152507928Y-58478287D02*
G01*
X152508020Y-58478402D01*
X153226119Y-59388020D01*
X153260887Y-59432060D01*
X153263324Y-59440677D01*
X153259977Y-59447583D01*
X152567583Y-60139977D01*
X152559310Y-60143404D01*
X152552061Y-60140887D01*
X151781797Y-59532801D01*
X151598402Y-59388020D01*
X151594032Y-59380204D01*
X151596469Y-59371587D01*
X151596477Y-59371576D01*
X151996319Y-58878036D01*
X151998036Y-58876319D01*
X152491474Y-58476560D01*
X152500057Y-58474016D01*
X152507928Y-58478287D01*
G37*
%TD.AperFunction*%
%TD*%
%TA.AperFunction,Conductor*%
%TO.N,Net-(SW1-B)*%
G36*
X121242163Y-66064869D02*
G01*
X121935653Y-66758359D01*
X121939080Y-66766632D01*
X121937333Y-66772782D01*
X121211394Y-67947638D01*
X121204130Y-67952875D01*
X121195784Y-67951730D01*
X120458607Y-67544556D01*
X120455117Y-67541610D01*
X120000112Y-66971154D01*
X119997632Y-66962549D01*
X120001963Y-66954711D01*
X120002340Y-66954423D01*
X121227010Y-66063679D01*
X121235714Y-66061585D01*
X121242163Y-66064869D01*
G37*
%TD.AperFunction*%
%TD*%
%TA.AperFunction,Conductor*%
%TO.N,Net-(SW1-B)*%
G36*
X119890690Y-67079920D02*
G01*
X119891522Y-67080535D01*
X120502480Y-67575798D01*
X120504201Y-67577519D01*
X120999464Y-68188477D01*
X121002012Y-68197062D01*
X120997743Y-68204934D01*
X120996911Y-68205549D01*
X119732900Y-69056816D01*
X119724123Y-69058595D01*
X119718091Y-69055385D01*
X119024614Y-68361908D01*
X119021187Y-68353635D01*
X119023181Y-68347102D01*
X119874452Y-67083086D01*
X119881913Y-67078141D01*
X119890690Y-67079920D01*
G37*
%TD.AperFunction*%
%TD*%
%TA.AperFunction,Conductor*%
%TO.N,Net-(SW1-B)*%
G36*
X104075838Y-72850575D02*
G01*
X105294563Y-72998749D01*
X105302362Y-73003149D01*
X105304851Y-73010363D01*
X105304851Y-73989636D01*
X105301424Y-73997909D01*
X105294563Y-74001250D01*
X104075910Y-74149415D01*
X104067284Y-74147012D01*
X104062884Y-74139213D01*
X104062862Y-74139021D01*
X103995978Y-73501211D01*
X103995978Y-73498788D01*
X104062862Y-72860976D01*
X104067133Y-72853107D01*
X104075718Y-72850562D01*
X104075838Y-72850575D01*
G37*
%TD.AperFunction*%
%TD*%
%TA.AperFunction,Conductor*%
%TO.N,Net-(SW1-B)*%
G36*
X138808412Y-58476469D02*
G01*
X138808527Y-58476561D01*
X139301958Y-58876315D01*
X139303684Y-58878041D01*
X139703438Y-59371472D01*
X139705983Y-59380057D01*
X139701712Y-59387928D01*
X139701597Y-59388020D01*
X138747939Y-60140887D01*
X138739322Y-60143324D01*
X138732416Y-60139977D01*
X138040022Y-59447583D01*
X138036595Y-59439310D01*
X138039110Y-59432063D01*
X138791980Y-58478401D01*
X138799795Y-58474032D01*
X138808412Y-58476469D01*
G37*
%TD.AperFunction*%
%TD*%
%TA.AperFunction,Conductor*%
%TO.N,Net-(D1-A)*%
G36*
X106839475Y-61585028D02*
G01*
X107658405Y-62908295D01*
X107659845Y-62917133D01*
X107656729Y-62922725D01*
X106962725Y-63616729D01*
X106954452Y-63620156D01*
X106948295Y-63618405D01*
X105625028Y-62799475D01*
X105619796Y-62792207D01*
X105620834Y-62784072D01*
X106034541Y-61999429D01*
X106039429Y-61994541D01*
X106824071Y-61580834D01*
X106832986Y-61580008D01*
X106839475Y-61585028D01*
G37*
%TD.AperFunction*%
%TD*%
%TA.AperFunction,Conductor*%
%TO.N,Net-(D1-A)*%
G36*
X113917814Y-66788079D02*
G01*
X113922761Y-66795542D01*
X113922915Y-66796566D01*
X114004724Y-67578783D01*
X114004724Y-67581217D01*
X113922915Y-68363433D01*
X113918646Y-68371305D01*
X113910061Y-68373853D01*
X113909037Y-68373699D01*
X112413311Y-68081845D01*
X112405848Y-68076898D01*
X112403852Y-68070362D01*
X112403852Y-67089637D01*
X112407279Y-67081364D01*
X112413310Y-67078154D01*
X113909038Y-66786300D01*
X113917814Y-66788079D01*
G37*
%TD.AperFunction*%
%TD*%
M02*
