M48
; DRILL file KiCad 10.0.1 date 2026-05-05T11:20:11
; FORMAT={-:-/ absolute / metric / decimal}
; #@! TF.CreationDate,2026-05-05T11:20:11+10:00
; #@! TF.GenerationSoftware,Kicad,Pcbnew,10.0.1
; #@! TF.FileFunction,Plated,1,2,PTH
FMAT,2
METRIC
; #@! TA.AperFunction,Plated,PTH,ViaDrill
T1C0.300
; #@! TA.AperFunction,Plated,PTH,ComponentDrill
T2C0.787
; #@! TA.AperFunction,Plated,PTH,ComponentDrill
T3C0.800
; #@! TA.AperFunction,Plated,PTH,ComponentDrill
T4C0.900
; #@! TA.AperFunction,Plated,PTH,ComponentDrill
T5C1.000
; #@! TA.AperFunction,Plated,PTH,ComponentDrill
T6C1.800
%
G90
G05
T1
X136.0Y-68.0
X137.952Y-65.152
X140.42Y-65.08
X145.5Y-70.0
X147.5Y-72.0
T2
X136.76Y-58.88
X136.76Y-66.5
X139.3Y-58.88
X139.3Y-66.5
X141.84Y-58.88
X141.84Y-66.5
X144.38Y-58.88
X144.38Y-66.5
X146.92Y-58.88
X146.92Y-66.5
X149.46Y-58.88
X149.46Y-66.5
X152.0Y-58.88
X152.0Y-66.5
X154.54Y-58.88
X154.54Y-66.5
T3
X104.0Y-71.0
X104.0Y-73.5
X104.0Y-76.0
X114.0Y-57.42
X114.0Y-67.58
X120.5Y-57.42
X120.5Y-67.58
X175.19Y-68.19
X175.19Y-70.73
X175.19Y-73.27
X175.19Y-75.81
X179.84Y-101.0
X181.0Y-85.5
X181.0Y-90.5
X182.81Y-68.19
X182.81Y-70.73
X182.81Y-73.27
X182.81Y-75.81
X187.84Y-59.0
X190.0Y-101.0
X193.0Y-87.045
X193.0Y-89.545
X198.0Y-59.0
T4
X103.5Y-62.0
X106.04Y-62.0
X108.725Y-113.0
X111.265Y-113.0
X117.751Y-113.0
X120.291Y-113.0
X126.777Y-113.0
X129.317Y-113.0
X135.803Y-113.0
X138.343Y-113.0
X144.829Y-113.0
X147.369Y-113.0
X153.856Y-113.0
X156.396Y-113.0
X162.882Y-113.0
X165.422Y-113.0
X171.908Y-113.0
X174.448Y-113.0
X180.934Y-113.0
X183.474Y-113.0
X189.96Y-113.0
X192.5Y-113.0
T5
X111.377Y-88.0
X111.377Y-90.54
X111.377Y-93.08
X111.377Y-95.62
X111.377Y-98.16
X111.377Y-100.7
X190.5Y-66.469
X193.0Y-66.469
X195.5Y-66.469
T6
X188.6Y-73.669G85X188.6Y-73.269
G05
X197.4Y-73.669G85X197.4Y-73.269
G05
M30
